<?xml version="1.0" encoding="UTF-8"?>
<svg xmlns="http://www.w3.org/2000/svg" xmlns:xlink="http://www.w3.org/1999/xlink" width="600pt" height="450pt" viewBox="0 0 600 450" version="1.1">
<defs>
<g>
<symbol overflow="visible" id="qpTrYXGf0-0">
<path style="stroke:none;" d="M 0.671875 2.390625 L 0.671875 -9.515625 L 7.421875 -9.515625 L 7.421875 2.390625 Z M 1.4375 1.640625 L 6.671875 1.640625 L 6.671875 -8.765625 L 1.4375 -8.765625 Z M 1.4375 1.640625 "/>
</symbol>
<symbol overflow="visible" id="qpTrYXGf0-1">
<path style="stroke:none;" d="M 4.296875 -8.96875 C 3.609375 -8.96875 3.09375 -8.628906 2.75 -7.953125 C 2.40625 -7.273438 2.234375 -6.257812 2.234375 -4.90625 C 2.234375 -3.5625 2.40625 -2.550781 2.75 -1.875 C 3.09375 -1.195312 3.609375 -0.859375 4.296875 -0.859375 C 4.984375 -0.859375 5.5 -1.195312 5.84375 -1.875 C 6.1875 -2.550781 6.359375 -3.5625 6.359375 -4.90625 C 6.359375 -6.257812 6.1875 -7.273438 5.84375 -7.953125 C 5.5 -8.628906 4.984375 -8.96875 4.296875 -8.96875 Z M 4.296875 -10.015625 C 5.398438 -10.015625 6.238281 -9.578125 6.8125 -8.703125 C 7.394531 -7.835938 7.6875 -6.570312 7.6875 -4.90625 C 7.6875 -3.25 7.394531 -1.984375 6.8125 -1.109375 C 6.238281 -0.242188 5.398438 0.1875 4.296875 0.1875 C 3.191406 0.1875 2.347656 -0.242188 1.765625 -1.109375 C 1.179688 -1.984375 0.890625 -3.25 0.890625 -4.90625 C 0.890625 -6.570312 1.179688 -7.835938 1.765625 -8.703125 C 2.347656 -9.578125 3.191406 -10.015625 4.296875 -10.015625 Z M 4.296875 -10.015625 "/>
</symbol>
<symbol overflow="visible" id="qpTrYXGf1-0">
<path style="stroke:none;" d="M 0.671875 2.390625 L 0.671875 -9.515625 L 7.421875 -9.515625 L 7.421875 2.390625 Z M 1.4375 1.640625 L 6.671875 1.640625 L 6.671875 -8.765625 L 1.4375 -8.765625 Z M 1.4375 1.640625 "/>
</symbol>
<symbol overflow="visible" id="qpTrYXGf1-1">
<path style="stroke:none;" d="M 1.453125 -9.84375 L 6.6875 -9.84375 L 6.6875 -8.71875 L 2.671875 -8.71875 L 2.671875 -6.3125 C 2.867188 -6.375 3.0625 -6.421875 3.25 -6.453125 C 3.445312 -6.484375 3.644531 -6.5 3.84375 -6.5 C 4.9375 -6.5 5.800781 -6.195312 6.4375 -5.59375 C 7.082031 -5 7.40625 -4.1875 7.40625 -3.15625 C 7.40625 -2.09375 7.078125 -1.269531 6.421875 -0.6875 C 5.765625 -0.101562 4.832031 0.1875 3.625 0.1875 C 3.21875 0.1875 2.800781 0.148438 2.375 0.078125 C 1.945312 0.015625 1.503906 -0.0859375 1.046875 -0.234375 L 1.046875 -1.5625 C 1.441406 -1.351562 1.847656 -1.191406 2.265625 -1.078125 C 2.691406 -0.972656 3.140625 -0.921875 3.609375 -0.921875 C 4.367188 -0.921875 4.96875 -1.117188 5.40625 -1.515625 C 5.851562 -1.921875 6.078125 -2.46875 6.078125 -3.15625 C 6.078125 -3.84375 5.851562 -4.382812 5.40625 -4.78125 C 4.96875 -5.1875 4.367188 -5.390625 3.609375 -5.390625 C 3.253906 -5.390625 2.898438 -5.347656 2.546875 -5.265625 C 2.191406 -5.179688 1.828125 -5.054688 1.453125 -4.890625 Z M 1.453125 -9.84375 "/>
</symbol>
<symbol overflow="visible" id="qpTrYXGf1-2">
<path style="stroke:none;" d="M 1.671875 -1.125 L 3.84375 -1.125 L 3.84375 -8.625 L 1.484375 -8.15625 L 1.484375 -9.359375 L 3.84375 -9.84375 L 5.171875 -9.84375 L 5.171875 -1.125 L 7.34375 -1.125 L 7.34375 0 L 1.671875 0 Z M 1.671875 -1.125 "/>
</symbol>
<symbol overflow="visible" id="qpTrYXGf1-3">
<path style="stroke:none;" d="M 4.296875 -8.96875 C 3.609375 -8.96875 3.09375 -8.628906 2.75 -7.953125 C 2.40625 -7.273438 2.234375 -6.257812 2.234375 -4.90625 C 2.234375 -3.5625 2.40625 -2.550781 2.75 -1.875 C 3.09375 -1.195312 3.609375 -0.859375 4.296875 -0.859375 C 4.984375 -0.859375 5.5 -1.195312 5.84375 -1.875 C 6.1875 -2.550781 6.359375 -3.5625 6.359375 -4.90625 C 6.359375 -6.257812 6.1875 -7.273438 5.84375 -7.953125 C 5.5 -8.628906 4.984375 -8.96875 4.296875 -8.96875 Z M 4.296875 -10.015625 C 5.398438 -10.015625 6.238281 -9.578125 6.8125 -8.703125 C 7.394531 -7.835938 7.6875 -6.570312 7.6875 -4.90625 C 7.6875 -3.25 7.394531 -1.984375 6.8125 -1.109375 C 6.238281 -0.242188 5.398438 0.1875 4.296875 0.1875 C 3.191406 0.1875 2.347656 -0.242188 1.765625 -1.109375 C 1.179688 -1.984375 0.890625 -3.25 0.890625 -4.90625 C 0.890625 -6.570312 1.179688 -7.835938 1.765625 -8.703125 C 2.347656 -9.578125 3.191406 -10.015625 4.296875 -10.015625 Z M 4.296875 -10.015625 "/>
</symbol>
<symbol overflow="visible" id="qpTrYXGf2-0">
<path style="stroke:none;" d="M 0.671875 2.390625 L 0.671875 -9.515625 L 7.421875 -9.515625 L 7.421875 2.390625 Z M 1.4375 1.640625 L 6.671875 1.640625 L 6.671875 -8.765625 L 1.4375 -8.765625 Z M 1.4375 1.640625 "/>
</symbol>
<symbol overflow="visible" id="qpTrYXGf2-1">
<path style="stroke:none;" d="M 4.296875 -8.96875 C 3.609375 -8.96875 3.09375 -8.628906 2.75 -7.953125 C 2.40625 -7.273438 2.234375 -6.257812 2.234375 -4.90625 C 2.234375 -3.5625 2.40625 -2.550781 2.75 -1.875 C 3.09375 -1.195312 3.609375 -0.859375 4.296875 -0.859375 C 4.984375 -0.859375 5.5 -1.195312 5.84375 -1.875 C 6.1875 -2.550781 6.359375 -3.5625 6.359375 -4.90625 C 6.359375 -6.257812 6.1875 -7.273438 5.84375 -7.953125 C 5.5 -8.628906 4.984375 -8.96875 4.296875 -8.96875 Z M 4.296875 -10.015625 C 5.398438 -10.015625 6.238281 -9.578125 6.8125 -8.703125 C 7.394531 -7.835938 7.6875 -6.570312 7.6875 -4.90625 C 7.6875 -3.25 7.394531 -1.984375 6.8125 -1.109375 C 6.238281 -0.242188 5.398438 0.1875 4.296875 0.1875 C 3.191406 0.1875 2.347656 -0.242188 1.765625 -1.109375 C 1.179688 -1.984375 0.890625 -3.25 0.890625 -4.90625 C 0.890625 -6.570312 1.179688 -7.835938 1.765625 -8.703125 C 2.347656 -9.578125 3.191406 -10.015625 4.296875 -10.015625 Z M 4.296875 -10.015625 "/>
</symbol>
<symbol overflow="visible" id="qpTrYXGf3-0">
<path style="stroke:none;" d="M 0.671875 2.390625 L 0.671875 -9.515625 L 7.421875 -9.515625 L 7.421875 2.390625 Z M 1.4375 1.640625 L 6.671875 1.640625 L 6.671875 -8.765625 L 1.4375 -8.765625 Z M 1.4375 1.640625 "/>
</symbol>
<symbol overflow="visible" id="qpTrYXGf3-1">
<path style="stroke:none;" d="M 1.453125 -9.84375 L 6.6875 -9.84375 L 6.6875 -8.71875 L 2.671875 -8.71875 L 2.671875 -6.3125 C 2.867188 -6.375 3.0625 -6.421875 3.25 -6.453125 C 3.445312 -6.484375 3.644531 -6.5 3.84375 -6.5 C 4.9375 -6.5 5.800781 -6.195312 6.4375 -5.59375 C 7.082031 -5 7.40625 -4.1875 7.40625 -3.15625 C 7.40625 -2.09375 7.078125 -1.269531 6.421875 -0.6875 C 5.765625 -0.101562 4.832031 0.1875 3.625 0.1875 C 3.21875 0.1875 2.800781 0.148438 2.375 0.078125 C 1.945312 0.015625 1.503906 -0.0859375 1.046875 -0.234375 L 1.046875 -1.5625 C 1.441406 -1.351562 1.847656 -1.191406 2.265625 -1.078125 C 2.691406 -0.972656 3.140625 -0.921875 3.609375 -0.921875 C 4.367188 -0.921875 4.96875 -1.117188 5.40625 -1.515625 C 5.851562 -1.921875 6.078125 -2.46875 6.078125 -3.15625 C 6.078125 -3.84375 5.851562 -4.382812 5.40625 -4.78125 C 4.96875 -5.1875 4.367188 -5.390625 3.609375 -5.390625 C 3.253906 -5.390625 2.898438 -5.347656 2.546875 -5.265625 C 2.191406 -5.179688 1.828125 -5.054688 1.453125 -4.890625 Z M 1.453125 -9.84375 "/>
</symbol>
<symbol overflow="visible" id="qpTrYXGf4-0">
<path style="stroke:none;" d="M 0.671875 2.390625 L 0.671875 -9.515625 L 7.421875 -9.515625 L 7.421875 2.390625 Z M 1.4375 1.640625 L 6.671875 1.640625 L 6.671875 -8.765625 L 1.4375 -8.765625 Z M 1.4375 1.640625 "/>
</symbol>
<symbol overflow="visible" id="qpTrYXGf4-1">
<path style="stroke:none;" d="M 1.671875 -1.125 L 3.84375 -1.125 L 3.84375 -8.625 L 1.484375 -8.15625 L 1.484375 -9.359375 L 3.84375 -9.84375 L 5.171875 -9.84375 L 5.171875 -1.125 L 7.34375 -1.125 L 7.34375 0 L 1.671875 0 Z M 1.671875 -1.125 "/>
</symbol>
<symbol overflow="visible" id="qpTrYXGf5-0">
<path style="stroke:none;" d="M 0.671875 2.390625 L 0.671875 -9.515625 L 7.421875 -9.515625 L 7.421875 2.390625 Z M 1.4375 1.640625 L 6.671875 1.640625 L 6.671875 -8.765625 L 1.4375 -8.765625 Z M 1.4375 1.640625 "/>
</symbol>
<symbol overflow="visible" id="qpTrYXGf5-1">
<path style="stroke:none;" d="M 4.296875 -8.96875 C 3.609375 -8.96875 3.09375 -8.628906 2.75 -7.953125 C 2.40625 -7.273438 2.234375 -6.257812 2.234375 -4.90625 C 2.234375 -3.5625 2.40625 -2.550781 2.75 -1.875 C 3.09375 -1.195312 3.609375 -0.859375 4.296875 -0.859375 C 4.984375 -0.859375 5.5 -1.195312 5.84375 -1.875 C 6.1875 -2.550781 6.359375 -3.5625 6.359375 -4.90625 C 6.359375 -6.257812 6.1875 -7.273438 5.84375 -7.953125 C 5.5 -8.628906 4.984375 -8.96875 4.296875 -8.96875 Z M 4.296875 -10.015625 C 5.398438 -10.015625 6.238281 -9.578125 6.8125 -8.703125 C 7.394531 -7.835938 7.6875 -6.570312 7.6875 -4.90625 C 7.6875 -3.25 7.394531 -1.984375 6.8125 -1.109375 C 6.238281 -0.242188 5.398438 0.1875 4.296875 0.1875 C 3.191406 0.1875 2.347656 -0.242188 1.765625 -1.109375 C 1.179688 -1.984375 0.890625 -3.25 0.890625 -4.90625 C 0.890625 -6.570312 1.179688 -7.835938 1.765625 -8.703125 C 2.347656 -9.578125 3.191406 -10.015625 4.296875 -10.015625 Z M 4.296875 -10.015625 "/>
</symbol>
<symbol overflow="visible" id="qpTrYXGf6-0">
<path style="stroke:none;" d="M 0.671875 2.390625 L 0.671875 -9.515625 L 7.421875 -9.515625 L 7.421875 2.390625 Z M 1.4375 1.640625 L 6.671875 1.640625 L 6.671875 -8.765625 L 1.4375 -8.765625 Z M 1.4375 1.640625 "/>
</symbol>
<symbol overflow="visible" id="qpTrYXGf6-1">
<path style="stroke:none;" d="M 7.21875 -9.515625 L 7.21875 -8.21875 C 6.71875 -8.457031 6.242188 -8.632812 5.796875 -8.75 C 5.347656 -8.875 4.914062 -8.9375 4.5 -8.9375 C 3.769531 -8.9375 3.207031 -8.796875 2.8125 -8.515625 C 2.425781 -8.234375 2.234375 -7.832031 2.234375 -7.3125 C 2.234375 -6.882812 2.363281 -6.554688 2.625 -6.328125 C 2.882812 -6.109375 3.378906 -5.929688 4.109375 -5.796875 L 4.90625 -5.625 C 5.90625 -5.4375 6.640625 -5.101562 7.109375 -4.625 C 7.578125 -4.15625 7.8125 -3.519531 7.8125 -2.71875 C 7.8125 -1.757812 7.492188 -1.035156 6.859375 -0.546875 C 6.222656 -0.0546875 5.285156 0.1875 4.046875 0.1875 C 3.578125 0.1875 3.078125 0.132812 2.546875 0.03125 C 2.023438 -0.0703125 1.484375 -0.226562 0.921875 -0.4375 L 0.921875 -1.8125 C 1.460938 -1.5 1.992188 -1.265625 2.515625 -1.109375 C 3.035156 -0.960938 3.546875 -0.890625 4.046875 -0.890625 C 4.804688 -0.890625 5.390625 -1.035156 5.796875 -1.328125 C 6.210938 -1.628906 6.421875 -2.054688 6.421875 -2.609375 C 6.421875 -3.097656 6.269531 -3.476562 5.96875 -3.75 C 5.675781 -4.019531 5.191406 -4.222656 4.515625 -4.359375 L 3.71875 -4.515625 C 2.71875 -4.710938 1.992188 -5.019531 1.546875 -5.4375 C 1.109375 -5.863281 0.890625 -6.457031 0.890625 -7.21875 C 0.890625 -8.082031 1.195312 -8.765625 1.8125 -9.265625 C 2.425781 -9.765625 3.269531 -10.015625 4.34375 -10.015625 C 4.800781 -10.015625 5.269531 -9.972656 5.75 -9.890625 C 6.226562 -9.804688 6.71875 -9.679688 7.21875 -9.515625 Z M 7.21875 -9.515625 "/>
</symbol>
<symbol overflow="visible" id="qpTrYXGf6-2">
<path style="stroke:none;" d="M 4.140625 -6.53125 C 3.484375 -6.53125 2.96875 -6.273438 2.59375 -5.765625 C 2.21875 -5.265625 2.03125 -4.570312 2.03125 -3.6875 C 2.03125 -2.800781 2.21875 -2.101562 2.59375 -1.59375 C 2.96875 -1.09375 3.484375 -0.84375 4.140625 -0.84375 C 4.785156 -0.84375 5.296875 -1.09375 5.671875 -1.59375 C 6.046875 -2.101562 6.234375 -2.800781 6.234375 -3.6875 C 6.234375 -4.5625 6.046875 -5.253906 5.671875 -5.765625 C 5.296875 -6.273438 4.785156 -6.53125 4.140625 -6.53125 Z M 4.140625 -7.5625 C 5.191406 -7.5625 6.015625 -7.21875 6.609375 -6.53125 C 7.210938 -5.84375 7.515625 -4.894531 7.515625 -3.6875 C 7.515625 -2.476562 7.210938 -1.53125 6.609375 -0.84375 C 6.015625 -0.15625 5.191406 0.1875 4.140625 0.1875 C 3.078125 0.1875 2.242188 -0.15625 1.640625 -0.84375 C 1.046875 -1.53125 0.75 -2.476562 0.75 -3.6875 C 0.75 -4.894531 1.046875 -5.84375 1.640625 -6.53125 C 2.242188 -7.21875 3.078125 -7.5625 4.140625 -7.5625 Z M 4.140625 -7.5625 "/>
</symbol>
<symbol overflow="visible" id="qpTrYXGf6-3">
<path style="stroke:none;" d=""/>
</symbol>
<symbol overflow="visible" id="qpTrYXGf6-4">
<path style="stroke:none;" d="M 2.46875 -9.484375 L 2.46875 -7.390625 L 4.96875 -7.390625 L 4.96875 -6.4375 L 2.46875 -6.4375 L 2.46875 -2.4375 C 2.46875 -1.832031 2.550781 -1.441406 2.71875 -1.265625 C 2.882812 -1.097656 3.21875 -1.015625 3.71875 -1.015625 L 4.96875 -1.015625 L 4.96875 0 L 3.71875 0 C 2.789062 0 2.144531 -0.171875 1.78125 -0.515625 C 1.425781 -0.867188 1.25 -1.507812 1.25 -2.4375 L 1.25 -6.4375 L 0.359375 -6.4375 L 0.359375 -7.390625 L 1.25 -7.390625 L 1.25 -9.484375 Z M 2.46875 -9.484375 "/>
</symbol>
<symbol overflow="visible" id="qpTrYXGf6-5">
<path style="stroke:none;" d="M 7.40625 -7.390625 L 4.734375 -3.796875 L 7.546875 0 L 6.125 0 L 3.96875 -2.90625 L 1.8125 0 L 0.390625 0 L 3.25 -3.859375 L 0.640625 -7.390625 L 2.0625 -7.390625 L 4.015625 -4.75 L 5.984375 -7.390625 Z M 7.40625 -7.390625 "/>
</symbol>
<symbol overflow="visible" id="qpTrYXGf6-6">
<path style="stroke:none;" d="M 4.625 -3.71875 C 3.644531 -3.71875 2.96875 -3.601562 2.59375 -3.375 C 2.21875 -3.144531 2.03125 -2.765625 2.03125 -2.234375 C 2.03125 -1.796875 2.171875 -1.453125 2.453125 -1.203125 C 2.734375 -0.953125 3.117188 -0.828125 3.609375 -0.828125 C 4.273438 -0.828125 4.8125 -1.0625 5.21875 -1.53125 C 5.625 -2.007812 5.828125 -2.644531 5.828125 -3.4375 L 5.828125 -3.71875 Z M 7.046875 -4.21875 L 7.046875 0 L 5.828125 0 L 5.828125 -1.125 C 5.554688 -0.675781 5.210938 -0.34375 4.796875 -0.125 C 4.378906 0.0820312 3.875 0.1875 3.28125 0.1875 C 2.53125 0.1875 1.929688 -0.0195312 1.484375 -0.4375 C 1.035156 -0.863281 0.8125 -1.4375 0.8125 -2.15625 C 0.8125 -2.976562 1.085938 -3.597656 1.640625 -4.015625 C 2.203125 -4.441406 3.035156 -4.65625 4.140625 -4.65625 L 5.828125 -4.65625 L 5.828125 -4.78125 C 5.828125 -5.332031 5.644531 -5.757812 5.28125 -6.0625 C 4.914062 -6.375 4.398438 -6.53125 3.734375 -6.53125 C 3.316406 -6.53125 2.90625 -6.476562 2.5 -6.375 C 2.101562 -6.28125 1.71875 -6.128906 1.34375 -5.921875 L 1.34375 -7.046875 C 1.789062 -7.210938 2.222656 -7.335938 2.640625 -7.421875 C 3.054688 -7.515625 3.460938 -7.5625 3.859375 -7.5625 C 4.929688 -7.5625 5.726562 -7.285156 6.25 -6.734375 C 6.78125 -6.179688 7.046875 -5.34375 7.046875 -4.21875 Z M 7.046875 -4.21875 "/>
</symbol>
<symbol overflow="visible" id="qpTrYXGf6-7">
<path style="stroke:none;" d="M 7.40625 -4.453125 L 7.40625 0 L 6.203125 0 L 6.203125 -4.421875 C 6.203125 -5.117188 6.0625 -5.640625 5.78125 -5.984375 C 5.507812 -6.328125 5.101562 -6.5 4.5625 -6.5 C 3.90625 -6.5 3.390625 -6.289062 3.015625 -5.875 C 2.640625 -5.457031 2.453125 -4.890625 2.453125 -4.171875 L 2.453125 0 L 1.21875 0 L 1.21875 -7.390625 L 2.453125 -7.390625 L 2.453125 -6.234375 C 2.734375 -6.679688 3.070312 -7.015625 3.46875 -7.234375 C 3.863281 -7.453125 4.316406 -7.5625 4.828125 -7.5625 C 5.679688 -7.5625 6.320312 -7.296875 6.75 -6.765625 C 7.1875 -6.242188 7.40625 -5.472656 7.40625 -4.453125 Z M 7.40625 -4.453125 "/>
</symbol>
<symbol overflow="visible" id="qpTrYXGf6-8">
<path style="stroke:none;" d="M 6.125 -6.265625 L 6.125 -10.25 L 7.34375 -10.25 L 7.34375 0 L 6.125 0 L 6.125 -1.109375 C 5.875 -0.671875 5.550781 -0.34375 5.15625 -0.125 C 4.769531 0.0820312 4.304688 0.1875 3.765625 0.1875 C 2.867188 0.1875 2.140625 -0.164062 1.578125 -0.875 C 1.023438 -1.582031 0.75 -2.519531 0.75 -3.6875 C 0.75 -4.84375 1.023438 -5.773438 1.578125 -6.484375 C 2.140625 -7.203125 2.867188 -7.5625 3.765625 -7.5625 C 4.304688 -7.5625 4.769531 -7.453125 5.15625 -7.234375 C 5.550781 -7.023438 5.875 -6.703125 6.125 -6.265625 Z M 2 -3.6875 C 2 -2.789062 2.179688 -2.085938 2.546875 -1.578125 C 2.910156 -1.078125 3.414062 -0.828125 4.0625 -0.828125 C 4.695312 -0.828125 5.195312 -1.078125 5.5625 -1.578125 C 5.9375 -2.085938 6.125 -2.789062 6.125 -3.6875 C 6.125 -4.570312 5.9375 -5.269531 5.5625 -5.78125 C 5.195312 -6.289062 4.695312 -6.546875 4.0625 -6.546875 C 3.414062 -6.546875 2.910156 -6.289062 2.546875 -5.78125 C 2.179688 -5.269531 2 -4.570312 2 -3.6875 Z M 2 -3.6875 "/>
</symbol>
<symbol overflow="visible" id="qpTrYXGf6-9">
<path style="stroke:none;" d="M 5.984375 -7.171875 L 5.984375 -6.015625 C 5.640625 -6.191406 5.28125 -6.320312 4.90625 -6.40625 C 4.539062 -6.5 4.160156 -6.546875 3.765625 -6.546875 C 3.160156 -6.546875 2.707031 -6.453125 2.40625 -6.265625 C 2.101562 -6.078125 1.953125 -5.800781 1.953125 -5.4375 C 1.953125 -5.15625 2.0625 -4.929688 2.28125 -4.765625 C 2.5 -4.609375 2.929688 -4.457031 3.578125 -4.3125 L 4 -4.21875 C 4.851562 -4.039062 5.460938 -3.78125 5.828125 -3.4375 C 6.191406 -3.101562 6.375 -2.632812 6.375 -2.03125 C 6.375 -1.351562 6.101562 -0.8125 5.5625 -0.40625 C 5.019531 -0.0078125 4.273438 0.1875 3.328125 0.1875 C 2.929688 0.1875 2.515625 0.144531 2.078125 0.0625 C 1.648438 -0.0078125 1.203125 -0.117188 0.734375 -0.265625 L 0.734375 -1.515625 C 1.179688 -1.285156 1.617188 -1.113281 2.046875 -1 C 2.484375 -0.882812 2.914062 -0.828125 3.34375 -0.828125 C 3.914062 -0.828125 4.351562 -0.921875 4.65625 -1.109375 C 4.96875 -1.304688 5.125 -1.582031 5.125 -1.9375 C 5.125 -2.269531 5.015625 -2.523438 4.796875 -2.703125 C 4.578125 -2.878906 4.085938 -3.046875 3.328125 -3.203125 L 2.90625 -3.3125 C 2.15625 -3.46875 1.613281 -3.707031 1.28125 -4.03125 C 0.945312 -4.363281 0.78125 -4.816406 0.78125 -5.390625 C 0.78125 -6.078125 1.023438 -6.609375 1.515625 -6.984375 C 2.015625 -7.367188 2.71875 -7.5625 3.625 -7.5625 C 4.070312 -7.5625 4.492188 -7.523438 4.890625 -7.453125 C 5.285156 -7.390625 5.648438 -7.296875 5.984375 -7.171875 Z M 5.984375 -7.171875 "/>
</symbol>
<symbol overflow="visible" id="qpTrYXGf6-10">
<path style="stroke:none;" d="M 7.59375 -4 L 7.59375 -3.40625 L 2.015625 -3.40625 C 2.066406 -2.570312 2.316406 -1.9375 2.765625 -1.5 C 3.210938 -1.0625 3.835938 -0.84375 4.640625 -0.84375 C 5.109375 -0.84375 5.5625 -0.898438 6 -1.015625 C 6.4375 -1.128906 6.867188 -1.296875 7.296875 -1.515625 L 7.296875 -0.375 C 6.867188 -0.1875 6.425781 -0.046875 5.96875 0.046875 C 5.507812 0.140625 5.046875 0.1875 4.578125 0.1875 C 3.398438 0.1875 2.46875 -0.148438 1.78125 -0.828125 C 1.09375 -1.515625 0.75 -2.445312 0.75 -3.625 C 0.75 -4.832031 1.070312 -5.789062 1.71875 -6.5 C 2.375 -7.207031 3.253906 -7.5625 4.359375 -7.5625 C 5.359375 -7.5625 6.144531 -7.238281 6.71875 -6.59375 C 7.300781 -5.957031 7.59375 -5.09375 7.59375 -4 Z M 6.375 -4.34375 C 6.363281 -5.007812 6.175781 -5.539062 5.8125 -5.9375 C 5.457031 -6.332031 4.976562 -6.53125 4.375 -6.53125 C 3.695312 -6.53125 3.15625 -6.335938 2.75 -5.953125 C 2.34375 -5.578125 2.109375 -5.039062 2.046875 -4.34375 Z M 6.375 -4.34375 "/>
</symbol>
<symbol overflow="visible" id="qpTrYXGf6-11">
<path style="stroke:none;" d="M 7.015625 -5.96875 C 7.316406 -6.507812 7.675781 -6.910156 8.09375 -7.171875 C 8.519531 -7.429688 9.019531 -7.5625 9.59375 -7.5625 C 10.363281 -7.5625 10.957031 -7.289062 11.375 -6.75 C 11.789062 -6.21875 12 -5.453125 12 -4.453125 L 12 0 L 10.78125 0 L 10.78125 -4.421875 C 10.78125 -5.128906 10.65625 -5.648438 10.40625 -5.984375 C 10.15625 -6.328125 9.773438 -6.5 9.265625 -6.5 C 8.628906 -6.5 8.128906 -6.289062 7.765625 -5.875 C 7.398438 -5.457031 7.21875 -4.890625 7.21875 -4.171875 L 7.21875 0 L 6 0 L 6 -4.421875 C 6 -5.128906 5.875 -5.648438 5.625 -5.984375 C 5.375 -6.328125 4.988281 -6.5 4.46875 -6.5 C 3.851562 -6.5 3.363281 -6.289062 3 -5.875 C 2.632812 -5.457031 2.453125 -4.890625 2.453125 -4.171875 L 2.453125 0 L 1.21875 0 L 1.21875 -7.390625 L 2.453125 -7.390625 L 2.453125 -6.234375 C 2.722656 -6.691406 3.050781 -7.023438 3.4375 -7.234375 C 3.820312 -7.453125 4.28125 -7.5625 4.8125 -7.5625 C 5.351562 -7.5625 5.8125 -7.425781 6.1875 -7.15625 C 6.5625 -6.882812 6.835938 -6.488281 7.015625 -5.96875 Z M 7.015625 -5.96875 "/>
</symbol>
<symbol overflow="visible" id="qpTrYXGf6-12">
<path style="stroke:none;" d="M 4.5625 1.984375 L 3.90625 1.984375 L 3.890625 0 C 3.429688 -0.0078125 2.96875 -0.0625 2.5 -0.15625 C 2.039062 -0.257812 1.582031 -0.410156 1.125 -0.609375 L 1.125 -1.796875 C 1.570312 -1.515625 2.023438 -1.300781 2.484375 -1.15625 C 2.941406 -1.007812 3.414062 -0.9375 3.90625 -0.9375 L 3.90625 -3.9375 C 2.9375 -4.09375 2.226562 -4.359375 1.78125 -4.734375 C 1.34375 -5.117188 1.125 -5.640625 1.125 -6.296875 C 1.125 -7.015625 1.363281 -7.578125 1.84375 -7.984375 C 2.320312 -8.398438 3.007812 -8.640625 3.90625 -8.703125 L 3.90625 -10.25 L 4.5625 -10.25 L 4.5625 -8.734375 C 4.96875 -8.710938 5.363281 -8.664062 5.75 -8.59375 C 6.132812 -8.53125 6.507812 -8.4375 6.875 -8.3125 L 6.875 -7.171875 C 6.507812 -7.347656 6.132812 -7.488281 5.75 -7.59375 C 5.363281 -7.695312 4.96875 -7.753906 4.5625 -7.765625 L 4.5625 -4.953125 C 5.5625 -4.796875 6.296875 -4.519531 6.765625 -4.125 C 7.234375 -3.738281 7.46875 -3.203125 7.46875 -2.515625 C 7.46875 -1.765625 7.21875 -1.175781 6.71875 -0.75 C 6.21875 -0.320312 5.5 -0.078125 4.5625 -0.015625 Z M 3.90625 -5.078125 L 3.90625 -7.78125 C 3.394531 -7.71875 3.003906 -7.570312 2.734375 -7.34375 C 2.460938 -7.113281 2.328125 -6.800781 2.328125 -6.40625 C 2.328125 -6.03125 2.453125 -5.738281 2.703125 -5.53125 C 2.953125 -5.320312 3.351562 -5.171875 3.90625 -5.078125 Z M 4.5625 -3.8125 L 4.5625 -0.953125 C 5.125 -1.023438 5.546875 -1.179688 5.828125 -1.421875 C 6.109375 -1.671875 6.25 -1.992188 6.25 -2.390625 C 6.25 -2.773438 6.113281 -3.082031 5.84375 -3.3125 C 5.570312 -3.539062 5.144531 -3.707031 4.5625 -3.8125 Z M 4.5625 -3.8125 "/>
</symbol>
<symbol overflow="visible" id="qpTrYXGf6-13">
<path style="stroke:none;" d="M 1.265625 -10.25 L 2.484375 -10.25 L 2.484375 0 L 1.265625 0 Z M 1.265625 -10.25 "/>
</symbol>
<symbol overflow="visible" id="qpTrYXGf6-14">
<path style="stroke:none;" d="M 2.453125 -1.109375 L 2.453125 2.8125 L 1.21875 2.8125 L 1.21875 -7.390625 L 2.453125 -7.390625 L 2.453125 -6.265625 C 2.703125 -6.703125 3.019531 -7.023438 3.40625 -7.234375 C 3.800781 -7.453125 4.269531 -7.5625 4.8125 -7.5625 C 5.707031 -7.5625 6.429688 -7.203125 6.984375 -6.484375 C 7.546875 -5.773438 7.828125 -4.84375 7.828125 -3.6875 C 7.828125 -2.519531 7.546875 -1.582031 6.984375 -0.875 C 6.429688 -0.164062 5.707031 0.1875 4.8125 0.1875 C 4.269531 0.1875 3.800781 0.0820312 3.40625 -0.125 C 3.019531 -0.34375 2.703125 -0.671875 2.453125 -1.109375 Z M 6.578125 -3.6875 C 6.578125 -4.570312 6.390625 -5.269531 6.015625 -5.78125 C 5.648438 -6.289062 5.148438 -6.546875 4.515625 -6.546875 C 3.867188 -6.546875 3.363281 -6.289062 3 -5.78125 C 2.632812 -5.269531 2.453125 -4.570312 2.453125 -3.6875 C 2.453125 -2.789062 2.632812 -2.085938 3 -1.578125 C 3.363281 -1.078125 3.867188 -0.828125 4.515625 -0.828125 C 5.148438 -0.828125 5.648438 -1.078125 6.015625 -1.578125 C 6.390625 -2.085938 6.578125 -2.789062 6.578125 -3.6875 Z M 6.578125 -3.6875 "/>
</symbol>
<symbol overflow="visible" id="qpTrYXGf6-15">
<path style="stroke:none;" d="M 7.40625 -4.453125 L 7.40625 0 L 6.203125 0 L 6.203125 -4.421875 C 6.203125 -5.117188 6.0625 -5.640625 5.78125 -5.984375 C 5.507812 -6.328125 5.101562 -6.5 4.5625 -6.5 C 3.90625 -6.5 3.390625 -6.289062 3.015625 -5.875 C 2.640625 -5.457031 2.453125 -4.890625 2.453125 -4.171875 L 2.453125 0 L 1.21875 0 L 1.21875 -10.25 L 2.453125 -10.25 L 2.453125 -6.234375 C 2.734375 -6.679688 3.070312 -7.015625 3.46875 -7.234375 C 3.863281 -7.453125 4.316406 -7.5625 4.828125 -7.5625 C 5.679688 -7.5625 6.320312 -7.296875 6.75 -6.765625 C 7.1875 -6.242188 7.40625 -5.472656 7.40625 -4.453125 Z M 7.40625 -4.453125 "/>
</symbol>
<symbol overflow="visible" id="qpTrYXGf6-16">
<path style="stroke:none;" d="M 6.203125 -8.46875 L 6.203125 -4.796875 L 9.875 -4.796875 L 9.875 -3.671875 L 6.203125 -3.671875 L 6.203125 0 L 5.109375 0 L 5.109375 -3.671875 L 1.4375 -3.671875 L 1.4375 -4.796875 L 5.109375 -4.796875 L 5.109375 -8.46875 Z M 6.203125 -8.46875 "/>
</symbol>
<symbol overflow="visible" id="qpTrYXGf6-17">
<path style="stroke:none;" d="M 1.671875 -1.125 L 3.84375 -1.125 L 3.84375 -8.625 L 1.484375 -8.15625 L 1.484375 -9.359375 L 3.84375 -9.84375 L 5.171875 -9.84375 L 5.171875 -1.125 L 7.34375 -1.125 L 7.34375 0 L 1.671875 0 Z M 1.671875 -1.125 "/>
</symbol>
<symbol overflow="visible" id="qpTrYXGf6-18">
<path style="stroke:none;" d="M 1.6875 1.25 L 2.15625 1.25 C 2.769531 1.25 3.164062 1.15625 3.34375 0.96875 C 3.53125 0.78125 3.625 0.375 3.625 -0.25 L 3.625 -1.890625 C 3.625 -2.578125 3.722656 -3.078125 3.921875 -3.390625 C 4.117188 -3.703125 4.460938 -3.914062 4.953125 -4.03125 C 4.460938 -4.144531 4.117188 -4.359375 3.921875 -4.671875 C 3.722656 -4.984375 3.625 -5.484375 3.625 -6.171875 L 3.625 -7.8125 C 3.625 -8.425781 3.53125 -8.828125 3.34375 -9.015625 C 3.164062 -9.210938 2.769531 -9.3125 2.15625 -9.3125 L 1.6875 -9.3125 L 1.6875 -10.25 L 2.109375 -10.25 C 3.203125 -10.25 3.929688 -10.085938 4.296875 -9.765625 C 4.660156 -9.441406 4.84375 -8.796875 4.84375 -7.828125 L 4.84375 -6.25 C 4.84375 -5.59375 4.960938 -5.140625 5.203125 -4.890625 C 5.441406 -4.640625 5.875 -4.515625 6.5 -4.515625 L 6.90625 -4.515625 L 6.90625 -3.5625 L 6.5 -3.5625 C 5.875 -3.5625 5.441406 -3.429688 5.203125 -3.171875 C 4.960938 -2.921875 4.84375 -2.46875 4.84375 -1.8125 L 4.84375 -0.234375 C 4.84375 0.734375 4.660156 1.378906 4.296875 1.703125 C 3.929688 2.035156 3.203125 2.203125 2.109375 2.203125 L 1.6875 2.203125 Z M 1.6875 1.25 "/>
</symbol>
<symbol overflow="visible" id="qpTrYXGf6-19">
<path style="stroke:none;" d="M 6.90625 1.25 L 6.90625 2.203125 L 6.5 2.203125 C 5.40625 2.203125 4.671875 2.035156 4.296875 1.703125 C 3.921875 1.378906 3.734375 0.734375 3.734375 -0.234375 L 3.734375 -1.8125 C 3.734375 -2.46875 3.613281 -2.921875 3.375 -3.171875 C 3.144531 -3.429688 2.71875 -3.5625 2.09375 -3.5625 L 1.6875 -3.5625 L 1.6875 -4.515625 L 2.09375 -4.515625 C 2.71875 -4.515625 3.144531 -4.640625 3.375 -4.890625 C 3.613281 -5.140625 3.734375 -5.59375 3.734375 -6.25 L 3.734375 -7.828125 C 3.734375 -8.796875 3.921875 -9.441406 4.296875 -9.765625 C 4.671875 -10.085938 5.40625 -10.25 6.5 -10.25 L 6.90625 -10.25 L 6.90625 -9.3125 L 6.453125 -9.3125 C 5.835938 -9.3125 5.429688 -9.210938 5.234375 -9.015625 C 5.046875 -8.828125 4.953125 -8.425781 4.953125 -7.8125 L 4.953125 -6.171875 C 4.953125 -5.484375 4.851562 -4.984375 4.65625 -4.671875 C 4.457031 -4.359375 4.113281 -4.144531 3.625 -4.03125 C 4.113281 -3.914062 4.457031 -3.703125 4.65625 -3.390625 C 4.851562 -3.078125 4.953125 -2.578125 4.953125 -1.890625 L 4.953125 -0.25 C 4.953125 0.363281 5.046875 0.765625 5.234375 0.953125 C 5.429688 1.148438 5.835938 1.25 6.453125 1.25 Z M 6.90625 1.25 "/>
</symbol>
<symbol overflow="visible" id="qpTrYXGf6-20">
<path style="stroke:none;" d="M 4.34375 0.6875 C 4 1.5625 3.664062 2.132812 3.34375 2.40625 C 3.019531 2.675781 2.582031 2.8125 2.03125 2.8125 L 1.0625 2.8125 L 1.0625 1.796875 L 1.78125 1.796875 C 2.113281 1.796875 2.367188 1.710938 2.546875 1.546875 C 2.734375 1.390625 2.941406 1.019531 3.171875 0.4375 L 3.390625 -0.125 L 0.40625 -7.390625 L 1.6875 -7.390625 L 4 -1.609375 L 6.296875 -7.390625 L 7.59375 -7.390625 Z M 4.34375 0.6875 "/>
</symbol>
<symbol overflow="visible" id="qpTrYXGf7-0">
<path style="stroke:none;" d="M 0.671875 2.390625 L 0.671875 -9.515625 L 7.421875 -9.515625 L 7.421875 2.390625 Z M 1.4375 1.640625 L 6.671875 1.640625 L 6.671875 -8.765625 L 1.4375 -8.765625 Z M 1.4375 1.640625 "/>
</symbol>
<symbol overflow="visible" id="qpTrYXGf7-1">
<path style="stroke:none;" d="M 7.015625 -5.96875 C 7.316406 -6.507812 7.675781 -6.910156 8.09375 -7.171875 C 8.519531 -7.429688 9.019531 -7.5625 9.59375 -7.5625 C 10.363281 -7.5625 10.957031 -7.289062 11.375 -6.75 C 11.789062 -6.21875 12 -5.453125 12 -4.453125 L 12 0 L 10.78125 0 L 10.78125 -4.421875 C 10.78125 -5.128906 10.65625 -5.648438 10.40625 -5.984375 C 10.15625 -6.328125 9.773438 -6.5 9.265625 -6.5 C 8.628906 -6.5 8.128906 -6.289062 7.765625 -5.875 C 7.398438 -5.457031 7.21875 -4.890625 7.21875 -4.171875 L 7.21875 0 L 6 0 L 6 -4.421875 C 6 -5.128906 5.875 -5.648438 5.625 -5.984375 C 5.375 -6.328125 4.988281 -6.5 4.46875 -6.5 C 3.851562 -6.5 3.363281 -6.289062 3 -5.875 C 2.632812 -5.457031 2.453125 -4.890625 2.453125 -4.171875 L 2.453125 0 L 1.21875 0 L 1.21875 -7.390625 L 2.453125 -7.390625 L 2.453125 -6.234375 C 2.722656 -6.691406 3.050781 -7.023438 3.4375 -7.234375 C 3.820312 -7.453125 4.28125 -7.5625 4.8125 -7.5625 C 5.351562 -7.5625 5.8125 -7.425781 6.1875 -7.15625 C 6.5625 -6.882812 6.835938 -6.488281 7.015625 -5.96875 Z M 7.015625 -5.96875 "/>
</symbol>
<symbol overflow="visible" id="qpTrYXGf7-2">
<path style="stroke:none;" d="M 7.59375 -4 L 7.59375 -3.40625 L 2.015625 -3.40625 C 2.066406 -2.570312 2.316406 -1.9375 2.765625 -1.5 C 3.210938 -1.0625 3.835938 -0.84375 4.640625 -0.84375 C 5.109375 -0.84375 5.5625 -0.898438 6 -1.015625 C 6.4375 -1.128906 6.867188 -1.296875 7.296875 -1.515625 L 7.296875 -0.375 C 6.867188 -0.1875 6.425781 -0.046875 5.96875 0.046875 C 5.507812 0.140625 5.046875 0.1875 4.578125 0.1875 C 3.398438 0.1875 2.46875 -0.148438 1.78125 -0.828125 C 1.09375 -1.515625 0.75 -2.445312 0.75 -3.625 C 0.75 -4.832031 1.070312 -5.789062 1.71875 -6.5 C 2.375 -7.207031 3.253906 -7.5625 4.359375 -7.5625 C 5.359375 -7.5625 6.144531 -7.238281 6.71875 -6.59375 C 7.300781 -5.957031 7.59375 -5.09375 7.59375 -4 Z M 6.375 -4.34375 C 6.363281 -5.007812 6.175781 -5.539062 5.8125 -5.9375 C 5.457031 -6.332031 4.976562 -6.53125 4.375 -6.53125 C 3.695312 -6.53125 3.15625 -6.335938 2.75 -5.953125 C 2.34375 -5.578125 2.109375 -5.039062 2.046875 -4.34375 Z M 6.375 -4.34375 "/>
</symbol>
<symbol overflow="visible" id="qpTrYXGf8-0">
<path style="stroke:none;" d="M 0.671875 2.390625 L 0.671875 -9.515625 L 7.421875 -9.515625 L 7.421875 2.390625 Z M 1.4375 1.640625 L 6.671875 1.640625 L 6.671875 -8.765625 L 1.4375 -8.765625 Z M 1.4375 1.640625 "/>
</symbol>
<symbol overflow="visible" id="qpTrYXGf8-1">
<path style="stroke:none;" d="M 7.59375 -4 L 7.59375 -3.40625 L 2.015625 -3.40625 C 2.066406 -2.570312 2.316406 -1.9375 2.765625 -1.5 C 3.210938 -1.0625 3.835938 -0.84375 4.640625 -0.84375 C 5.109375 -0.84375 5.5625 -0.898438 6 -1.015625 C 6.4375 -1.128906 6.867188 -1.296875 7.296875 -1.515625 L 7.296875 -0.375 C 6.867188 -0.1875 6.425781 -0.046875 5.96875 0.046875 C 5.507812 0.140625 5.046875 0.1875 4.578125 0.1875 C 3.398438 0.1875 2.46875 -0.148438 1.78125 -0.828125 C 1.09375 -1.515625 0.75 -2.445312 0.75 -3.625 C 0.75 -4.832031 1.070312 -5.789062 1.71875 -6.5 C 2.375 -7.207031 3.253906 -7.5625 4.359375 -7.5625 C 5.359375 -7.5625 6.144531 -7.238281 6.71875 -6.59375 C 7.300781 -5.957031 7.59375 -5.09375 7.59375 -4 Z M 6.375 -4.34375 C 6.363281 -5.007812 6.175781 -5.539062 5.8125 -5.9375 C 5.457031 -6.332031 4.976562 -6.53125 4.375 -6.53125 C 3.695312 -6.53125 3.15625 -6.335938 2.75 -5.953125 C 2.34375 -5.578125 2.109375 -5.039062 2.046875 -4.34375 Z M 6.375 -4.34375 "/>
</symbol>
<symbol overflow="visible" id="qpTrYXGf9-0">
<path style="stroke:none;" d="M 0.671875 2.390625 L 0.671875 -9.515625 L 7.421875 -9.515625 L 7.421875 2.390625 Z M 1.4375 1.640625 L 6.671875 1.640625 L 6.671875 -8.765625 L 1.4375 -8.765625 Z M 1.4375 1.640625 "/>
</symbol>
<symbol overflow="visible" id="qpTrYXGf9-1">
<path style="stroke:none;" d=""/>
</symbol>
<symbol overflow="visible" id="qpTrYXGf9-2">
<path style="stroke:none;" d="M 4.140625 -6.53125 C 3.484375 -6.53125 2.96875 -6.273438 2.59375 -5.765625 C 2.21875 -5.265625 2.03125 -4.570312 2.03125 -3.6875 C 2.03125 -2.800781 2.21875 -2.101562 2.59375 -1.59375 C 2.96875 -1.09375 3.484375 -0.84375 4.140625 -0.84375 C 4.785156 -0.84375 5.296875 -1.09375 5.671875 -1.59375 C 6.046875 -2.101562 6.234375 -2.800781 6.234375 -3.6875 C 6.234375 -4.5625 6.046875 -5.253906 5.671875 -5.765625 C 5.296875 -6.273438 4.785156 -6.53125 4.140625 -6.53125 Z M 4.140625 -7.5625 C 5.191406 -7.5625 6.015625 -7.21875 6.609375 -6.53125 C 7.210938 -5.84375 7.515625 -4.894531 7.515625 -3.6875 C 7.515625 -2.476562 7.210938 -1.53125 6.609375 -0.84375 C 6.015625 -0.15625 5.191406 0.1875 4.140625 0.1875 C 3.078125 0.1875 2.242188 -0.15625 1.640625 -0.84375 C 1.046875 -1.53125 0.75 -2.476562 0.75 -3.6875 C 0.75 -4.894531 1.046875 -5.84375 1.640625 -6.53125 C 2.242188 -7.21875 3.078125 -7.5625 4.140625 -7.5625 Z M 4.140625 -7.5625 "/>
</symbol>
<symbol overflow="visible" id="qpTrYXGf9-3">
<path style="stroke:none;" d="M 7.015625 -5.96875 C 7.316406 -6.507812 7.675781 -6.910156 8.09375 -7.171875 C 8.519531 -7.429688 9.019531 -7.5625 9.59375 -7.5625 C 10.363281 -7.5625 10.957031 -7.289062 11.375 -6.75 C 11.789062 -6.21875 12 -5.453125 12 -4.453125 L 12 0 L 10.78125 0 L 10.78125 -4.421875 C 10.78125 -5.128906 10.65625 -5.648438 10.40625 -5.984375 C 10.15625 -6.328125 9.773438 -6.5 9.265625 -6.5 C 8.628906 -6.5 8.128906 -6.289062 7.765625 -5.875 C 7.398438 -5.457031 7.21875 -4.890625 7.21875 -4.171875 L 7.21875 0 L 6 0 L 6 -4.421875 C 6 -5.128906 5.875 -5.648438 5.625 -5.984375 C 5.375 -6.328125 4.988281 -6.5 4.46875 -6.5 C 3.851562 -6.5 3.363281 -6.289062 3 -5.875 C 2.632812 -5.457031 2.453125 -4.890625 2.453125 -4.171875 L 2.453125 0 L 1.21875 0 L 1.21875 -7.390625 L 2.453125 -7.390625 L 2.453125 -6.234375 C 2.722656 -6.691406 3.050781 -7.023438 3.4375 -7.234375 C 3.820312 -7.453125 4.28125 -7.5625 4.8125 -7.5625 C 5.351562 -7.5625 5.8125 -7.425781 6.1875 -7.15625 C 6.5625 -6.882812 6.835938 -6.488281 7.015625 -5.96875 Z M 7.015625 -5.96875 "/>
</symbol>
<symbol overflow="visible" id="qpTrYXGf9-4">
<path style="stroke:none;" d="M 1.578125 -1.671875 L 2.96875 -1.671875 L 2.96875 0 L 1.578125 0 Z M 1.578125 -6.984375 L 2.96875 -6.984375 L 2.96875 -5.3125 L 1.578125 -5.3125 Z M 1.578125 -6.984375 "/>
</symbol>
<symbol overflow="visible" id="qpTrYXGf9-5">
<path style="stroke:none;" d="M 1.125 -9.84375 L 4.546875 1.25 L 3.421875 1.25 L 0 -9.84375 Z M 1.125 -9.84375 "/>
</symbol>
<symbol overflow="visible" id="qpTrYXGf9-6">
<path style="stroke:none;" d="M 5.015625 -10.25 L 5.015625 -9.25 L 3.84375 -9.25 C 3.414062 -9.25 3.113281 -9.160156 2.9375 -8.984375 C 2.769531 -8.804688 2.6875 -8.488281 2.6875 -8.03125 L 2.6875 -7.390625 L 4.6875 -7.390625 L 4.6875 -6.4375 L 2.6875 -6.4375 L 2.6875 0 L 1.46875 0 L 1.46875 -6.4375 L 0.3125 -6.4375 L 0.3125 -7.390625 L 1.46875 -7.390625 L 1.46875 -7.890625 C 1.46875 -8.710938 1.65625 -9.3125 2.03125 -9.6875 C 2.414062 -10.0625 3.023438 -10.25 3.859375 -10.25 Z M 5.015625 -10.25 "/>
</symbol>
<symbol overflow="visible" id="qpTrYXGf9-7">
<path style="stroke:none;" d="M 4.625 -3.71875 C 3.644531 -3.71875 2.96875 -3.601562 2.59375 -3.375 C 2.21875 -3.144531 2.03125 -2.765625 2.03125 -2.234375 C 2.03125 -1.796875 2.171875 -1.453125 2.453125 -1.203125 C 2.734375 -0.953125 3.117188 -0.828125 3.609375 -0.828125 C 4.273438 -0.828125 4.8125 -1.0625 5.21875 -1.53125 C 5.625 -2.007812 5.828125 -2.644531 5.828125 -3.4375 L 5.828125 -3.71875 Z M 7.046875 -4.21875 L 7.046875 0 L 5.828125 0 L 5.828125 -1.125 C 5.554688 -0.675781 5.210938 -0.34375 4.796875 -0.125 C 4.378906 0.0820312 3.875 0.1875 3.28125 0.1875 C 2.53125 0.1875 1.929688 -0.0195312 1.484375 -0.4375 C 1.035156 -0.863281 0.8125 -1.4375 0.8125 -2.15625 C 0.8125 -2.976562 1.085938 -3.597656 1.640625 -4.015625 C 2.203125 -4.441406 3.035156 -4.65625 4.140625 -4.65625 L 5.828125 -4.65625 L 5.828125 -4.78125 C 5.828125 -5.332031 5.644531 -5.757812 5.28125 -6.0625 C 4.914062 -6.375 4.398438 -6.53125 3.734375 -6.53125 C 3.316406 -6.53125 2.90625 -6.476562 2.5 -6.375 C 2.101562 -6.28125 1.71875 -6.128906 1.34375 -5.921875 L 1.34375 -7.046875 C 1.789062 -7.210938 2.222656 -7.335938 2.640625 -7.421875 C 3.054688 -7.515625 3.460938 -7.5625 3.859375 -7.5625 C 4.929688 -7.5625 5.726562 -7.285156 6.25 -6.734375 C 6.78125 -6.179688 7.046875 -5.34375 7.046875 -4.21875 Z M 7.046875 -4.21875 "/>
</symbol>
<symbol overflow="visible" id="qpTrYXGf9-8">
<path style="stroke:none;" d="M 6.90625 1.25 L 6.90625 2.203125 L 6.5 2.203125 C 5.40625 2.203125 4.671875 2.035156 4.296875 1.703125 C 3.921875 1.378906 3.734375 0.734375 3.734375 -0.234375 L 3.734375 -1.8125 C 3.734375 -2.46875 3.613281 -2.921875 3.375 -3.171875 C 3.144531 -3.429688 2.71875 -3.5625 2.09375 -3.5625 L 1.6875 -3.5625 L 1.6875 -4.515625 L 2.09375 -4.515625 C 2.71875 -4.515625 3.144531 -4.640625 3.375 -4.890625 C 3.613281 -5.140625 3.734375 -5.59375 3.734375 -6.25 L 3.734375 -7.828125 C 3.734375 -8.796875 3.921875 -9.441406 4.296875 -9.765625 C 4.671875 -10.085938 5.40625 -10.25 6.5 -10.25 L 6.90625 -10.25 L 6.90625 -9.3125 L 6.453125 -9.3125 C 5.835938 -9.3125 5.429688 -9.210938 5.234375 -9.015625 C 5.046875 -8.828125 4.953125 -8.425781 4.953125 -7.8125 L 4.953125 -6.171875 C 4.953125 -5.484375 4.851562 -4.984375 4.65625 -4.671875 C 4.457031 -4.359375 4.113281 -4.144531 3.625 -4.03125 C 4.113281 -3.914062 4.457031 -3.703125 4.65625 -3.390625 C 4.851562 -3.078125 4.953125 -2.578125 4.953125 -1.890625 L 4.953125 -0.25 C 4.953125 0.363281 5.046875 0.765625 5.234375 0.953125 C 5.429688 1.148438 5.835938 1.25 6.453125 1.25 Z M 6.90625 1.25 "/>
</symbol>
<symbol overflow="visible" id="qpTrYXGf9-9">
<path style="stroke:none;" d="M 2.59375 -1.125 L 7.234375 -1.125 L 7.234375 0 L 0.984375 0 L 0.984375 -1.125 C 1.492188 -1.644531 2.179688 -2.34375 3.046875 -3.21875 C 3.921875 -4.101562 4.472656 -4.675781 4.703125 -4.9375 C 5.128906 -5.414062 5.425781 -5.816406 5.59375 -6.140625 C 5.757812 -6.472656 5.84375 -6.800781 5.84375 -7.125 C 5.84375 -7.644531 5.660156 -8.070312 5.296875 -8.40625 C 4.929688 -8.738281 4.453125 -8.90625 3.859375 -8.90625 C 3.441406 -8.90625 3 -8.832031 2.53125 -8.6875 C 2.070312 -8.539062 1.582031 -8.316406 1.0625 -8.015625 L 1.0625 -9.359375 C 1.59375 -9.578125 2.085938 -9.738281 2.546875 -9.84375 C 3.015625 -9.957031 3.445312 -10.015625 3.84375 -10.015625 C 4.851562 -10.015625 5.660156 -9.757812 6.265625 -9.25 C 6.878906 -8.738281 7.1875 -8.0625 7.1875 -7.21875 C 7.1875 -6.8125 7.109375 -6.425781 6.953125 -6.0625 C 6.804688 -5.695312 6.53125 -5.269531 6.125 -4.78125 C 6.019531 -4.65625 5.671875 -4.285156 5.078125 -3.671875 C 4.492188 -3.066406 3.664062 -2.21875 2.59375 -1.125 Z M 2.59375 -1.125 "/>
</symbol>
<symbol overflow="visible" id="qpTrYXGf10-0">
<path style="stroke:none;" d="M 0.671875 2.390625 L 0.671875 -9.515625 L 7.421875 -9.515625 L 7.421875 2.390625 Z M 1.4375 1.640625 L 6.671875 1.640625 L 6.671875 -8.765625 L 1.4375 -8.765625 Z M 1.4375 1.640625 "/>
</symbol>
<symbol overflow="visible" id="qpTrYXGf10-1">
<path style="stroke:none;" d="M 2.46875 -9.484375 L 2.46875 -7.390625 L 4.96875 -7.390625 L 4.96875 -6.4375 L 2.46875 -6.4375 L 2.46875 -2.4375 C 2.46875 -1.832031 2.550781 -1.441406 2.71875 -1.265625 C 2.882812 -1.097656 3.21875 -1.015625 3.71875 -1.015625 L 4.96875 -1.015625 L 4.96875 0 L 3.71875 0 C 2.789062 0 2.144531 -0.171875 1.78125 -0.515625 C 1.425781 -0.867188 1.25 -1.507812 1.25 -2.4375 L 1.25 -6.4375 L 0.359375 -6.4375 L 0.359375 -7.390625 L 1.25 -7.390625 L 1.25 -9.484375 Z M 2.46875 -9.484375 "/>
</symbol>
<symbol overflow="visible" id="qpTrYXGf10-2">
<path style="stroke:none;" d="M 7.40625 -4.453125 L 7.40625 0 L 6.203125 0 L 6.203125 -4.421875 C 6.203125 -5.117188 6.0625 -5.640625 5.78125 -5.984375 C 5.507812 -6.328125 5.101562 -6.5 4.5625 -6.5 C 3.90625 -6.5 3.390625 -6.289062 3.015625 -5.875 C 2.640625 -5.457031 2.453125 -4.890625 2.453125 -4.171875 L 2.453125 0 L 1.21875 0 L 1.21875 -10.25 L 2.453125 -10.25 L 2.453125 -6.234375 C 2.734375 -6.679688 3.070312 -7.015625 3.46875 -7.234375 C 3.863281 -7.453125 4.316406 -7.5625 4.828125 -7.5625 C 5.679688 -7.5625 6.320312 -7.296875 6.75 -6.765625 C 7.1875 -6.242188 7.40625 -5.472656 7.40625 -4.453125 Z M 7.40625 -4.453125 "/>
</symbol>
<symbol overflow="visible" id="qpTrYXGf10-3">
<path style="stroke:none;" d="M 5.546875 -6.25 C 5.410156 -6.332031 5.257812 -6.390625 5.09375 -6.421875 C 4.9375 -6.460938 4.765625 -6.484375 4.578125 -6.484375 C 3.890625 -6.484375 3.363281 -6.257812 3 -5.8125 C 2.632812 -5.363281 2.453125 -4.722656 2.453125 -3.890625 L 2.453125 0 L 1.21875 0 L 1.21875 -7.390625 L 2.453125 -7.390625 L 2.453125 -6.234375 C 2.703125 -6.679688 3.03125 -7.015625 3.4375 -7.234375 C 3.84375 -7.453125 4.34375 -7.5625 4.9375 -7.5625 C 5.019531 -7.5625 5.109375 -7.554688 5.203125 -7.546875 C 5.304688 -7.535156 5.421875 -7.519531 5.546875 -7.5 Z M 5.546875 -6.25 "/>
</symbol>
<symbol overflow="visible" id="qpTrYXGf10-4">
<path style="stroke:none;" d="M 6.578125 -7.09375 L 6.578125 -5.96875 C 6.242188 -6.15625 5.898438 -6.296875 5.546875 -6.390625 C 5.203125 -6.484375 4.859375 -6.53125 4.515625 -6.53125 C 3.722656 -6.53125 3.109375 -6.28125 2.671875 -5.78125 C 2.242188 -5.28125 2.03125 -4.582031 2.03125 -3.6875 C 2.03125 -2.78125 2.242188 -2.078125 2.671875 -1.578125 C 3.109375 -1.085938 3.722656 -0.84375 4.515625 -0.84375 C 4.859375 -0.84375 5.203125 -0.890625 5.546875 -0.984375 C 5.898438 -1.078125 6.242188 -1.21875 6.578125 -1.40625 L 6.578125 -0.28125 C 6.242188 -0.125 5.894531 -0.0078125 5.53125 0.0625 C 5.164062 0.144531 4.78125 0.1875 4.375 0.1875 C 3.257812 0.1875 2.375 -0.160156 1.71875 -0.859375 C 1.070312 -1.554688 0.75 -2.5 0.75 -3.6875 C 0.75 -4.882812 1.078125 -5.828125 1.734375 -6.515625 C 2.398438 -7.210938 3.304688 -7.5625 4.453125 -7.5625 C 4.828125 -7.5625 5.191406 -7.519531 5.546875 -7.4375 C 5.898438 -7.363281 6.242188 -7.25 6.578125 -7.09375 Z M 6.578125 -7.09375 "/>
</symbol>
<symbol overflow="visible" id="qpTrYXGf11-0">
<path style="stroke:none;" d="M 0.671875 2.390625 L 0.671875 -9.515625 L 7.421875 -9.515625 L 7.421875 2.390625 Z M 1.4375 1.640625 L 6.671875 1.640625 L 6.671875 -8.765625 L 1.4375 -8.765625 Z M 1.4375 1.640625 "/>
</symbol>
<symbol overflow="visible" id="qpTrYXGf11-1">
<path style="stroke:none;" d="M 4.625 -3.71875 C 3.644531 -3.71875 2.96875 -3.601562 2.59375 -3.375 C 2.21875 -3.144531 2.03125 -2.765625 2.03125 -2.234375 C 2.03125 -1.796875 2.171875 -1.453125 2.453125 -1.203125 C 2.734375 -0.953125 3.117188 -0.828125 3.609375 -0.828125 C 4.273438 -0.828125 4.8125 -1.0625 5.21875 -1.53125 C 5.625 -2.007812 5.828125 -2.644531 5.828125 -3.4375 L 5.828125 -3.71875 Z M 7.046875 -4.21875 L 7.046875 0 L 5.828125 0 L 5.828125 -1.125 C 5.554688 -0.675781 5.210938 -0.34375 4.796875 -0.125 C 4.378906 0.0820312 3.875 0.1875 3.28125 0.1875 C 2.53125 0.1875 1.929688 -0.0195312 1.484375 -0.4375 C 1.035156 -0.863281 0.8125 -1.4375 0.8125 -2.15625 C 0.8125 -2.976562 1.085938 -3.597656 1.640625 -4.015625 C 2.203125 -4.441406 3.035156 -4.65625 4.140625 -4.65625 L 5.828125 -4.65625 L 5.828125 -4.78125 C 5.828125 -5.332031 5.644531 -5.757812 5.28125 -6.0625 C 4.914062 -6.375 4.398438 -6.53125 3.734375 -6.53125 C 3.316406 -6.53125 2.90625 -6.476562 2.5 -6.375 C 2.101562 -6.28125 1.71875 -6.128906 1.34375 -5.921875 L 1.34375 -7.046875 C 1.789062 -7.210938 2.222656 -7.335938 2.640625 -7.421875 C 3.054688 -7.515625 3.460938 -7.5625 3.859375 -7.5625 C 4.929688 -7.5625 5.726562 -7.285156 6.25 -6.734375 C 6.78125 -6.179688 7.046875 -5.34375 7.046875 -4.21875 Z M 7.046875 -4.21875 "/>
</symbol>
<symbol overflow="visible" id="qpTrYXGf12-0">
<path style="stroke:none;" d="M 0.671875 2.390625 L 0.671875 -9.515625 L 7.421875 -9.515625 L 7.421875 2.390625 Z M 1.4375 1.640625 L 6.671875 1.640625 L 6.671875 -8.765625 L 1.4375 -8.765625 Z M 1.4375 1.640625 "/>
</symbol>
<symbol overflow="visible" id="qpTrYXGf12-1">
<path style="stroke:none;" d="M 1.6875 1.25 L 2.15625 1.25 C 2.769531 1.25 3.164062 1.15625 3.34375 0.96875 C 3.53125 0.78125 3.625 0.375 3.625 -0.25 L 3.625 -1.890625 C 3.625 -2.578125 3.722656 -3.078125 3.921875 -3.390625 C 4.117188 -3.703125 4.460938 -3.914062 4.953125 -4.03125 C 4.460938 -4.144531 4.117188 -4.359375 3.921875 -4.671875 C 3.722656 -4.984375 3.625 -5.484375 3.625 -6.171875 L 3.625 -7.8125 C 3.625 -8.425781 3.53125 -8.828125 3.34375 -9.015625 C 3.164062 -9.210938 2.769531 -9.3125 2.15625 -9.3125 L 1.6875 -9.3125 L 1.6875 -10.25 L 2.109375 -10.25 C 3.203125 -10.25 3.929688 -10.085938 4.296875 -9.765625 C 4.660156 -9.441406 4.84375 -8.796875 4.84375 -7.828125 L 4.84375 -6.25 C 4.84375 -5.59375 4.960938 -5.140625 5.203125 -4.890625 C 5.441406 -4.640625 5.875 -4.515625 6.5 -4.515625 L 6.90625 -4.515625 L 6.90625 -3.5625 L 6.5 -3.5625 C 5.875 -3.5625 5.441406 -3.429688 5.203125 -3.171875 C 4.960938 -2.921875 4.84375 -2.46875 4.84375 -1.8125 L 4.84375 -0.234375 C 4.84375 0.734375 4.660156 1.378906 4.296875 1.703125 C 3.929688 2.035156 3.203125 2.203125 2.109375 2.203125 L 1.6875 2.203125 Z M 1.6875 1.25 "/>
</symbol>
<symbol overflow="visible" id="qpTrYXGf12-2">
<path style="stroke:none;" d="M 4.5625 1.984375 L 3.90625 1.984375 L 3.890625 0 C 3.429688 -0.0078125 2.96875 -0.0625 2.5 -0.15625 C 2.039062 -0.257812 1.582031 -0.410156 1.125 -0.609375 L 1.125 -1.796875 C 1.570312 -1.515625 2.023438 -1.300781 2.484375 -1.15625 C 2.941406 -1.007812 3.414062 -0.9375 3.90625 -0.9375 L 3.90625 -3.9375 C 2.9375 -4.09375 2.226562 -4.359375 1.78125 -4.734375 C 1.34375 -5.117188 1.125 -5.640625 1.125 -6.296875 C 1.125 -7.015625 1.363281 -7.578125 1.84375 -7.984375 C 2.320312 -8.398438 3.007812 -8.640625 3.90625 -8.703125 L 3.90625 -10.25 L 4.5625 -10.25 L 4.5625 -8.734375 C 4.96875 -8.710938 5.363281 -8.664062 5.75 -8.59375 C 6.132812 -8.53125 6.507812 -8.4375 6.875 -8.3125 L 6.875 -7.171875 C 6.507812 -7.347656 6.132812 -7.488281 5.75 -7.59375 C 5.363281 -7.695312 4.96875 -7.753906 4.5625 -7.765625 L 4.5625 -4.953125 C 5.5625 -4.796875 6.296875 -4.519531 6.765625 -4.125 C 7.234375 -3.738281 7.46875 -3.203125 7.46875 -2.515625 C 7.46875 -1.765625 7.21875 -1.175781 6.71875 -0.75 C 6.21875 -0.320312 5.5 -0.078125 4.5625 -0.015625 Z M 3.90625 -5.078125 L 3.90625 -7.78125 C 3.394531 -7.71875 3.003906 -7.570312 2.734375 -7.34375 C 2.460938 -7.113281 2.328125 -6.800781 2.328125 -6.40625 C 2.328125 -6.03125 2.453125 -5.738281 2.703125 -5.53125 C 2.953125 -5.320312 3.351562 -5.171875 3.90625 -5.078125 Z M 4.5625 -3.8125 L 4.5625 -0.953125 C 5.125 -1.023438 5.546875 -1.179688 5.828125 -1.421875 C 6.109375 -1.671875 6.25 -1.992188 6.25 -2.390625 C 6.25 -2.773438 6.113281 -3.082031 5.84375 -3.3125 C 5.570312 -3.539062 5.144531 -3.707031 4.5625 -3.8125 Z M 4.5625 -3.8125 "/>
</symbol>
</g>
</defs>
<g id="surface1">
<rect x="0" y="0" width="600" height="450" style="fill:rgb(100%,100%,100%);fill-opacity:1;stroke:none;"/>
<path style=" stroke:none;fill-rule:nonzero;fill:rgb(100%,100%,100%);fill-opacity:1;" d="M 34.5 416.25 L 588 416.25 L 588 30.75 L 34.5 30.75 Z M 34.5 416.25 "/>
<path style="fill:none;stroke-width:1;stroke-linecap:butt;stroke-linejoin:miter;stroke:rgb(0%,0%,0%);stroke-opacity:0.12;stroke-miterlimit:10;" d="M 46 555 L 46 41 " transform="matrix(0.75,0,0,0.75,0,0)"/>
<path style="fill:none;stroke-width:1;stroke-linecap:butt;stroke-linejoin:miter;stroke:rgb(0%,0%,0%);stroke-opacity:0.12;stroke-miterlimit:10;" d="M 415 555 L 415 41 " transform="matrix(0.75,0,0,0.75,0,0)"/>
<path style="fill:none;stroke-width:1;stroke-linecap:butt;stroke-linejoin:miter;stroke:rgb(0%,0%,0%);stroke-opacity:0.12;stroke-miterlimit:10;" d="M 784 555 L 784 41 " transform="matrix(0.75,0,0,0.75,0,0)"/>
<path style="fill:none;stroke-width:1;stroke-linecap:butt;stroke-linejoin:miter;stroke:rgb(0%,0%,0%);stroke-opacity:0.12;stroke-miterlimit:10;" d="M 46 555 L 784 555 " transform="matrix(0.75,0,0,0.75,0,0)"/>
<path style="fill:none;stroke-width:1;stroke-linecap:butt;stroke-linejoin:miter;stroke:rgb(0%,0%,0%);stroke-opacity:0.12;stroke-miterlimit:10;" d="M 46 298 L 784 298 " transform="matrix(0.75,0,0,0.75,0,0)"/>
<path style="fill:none;stroke-width:1;stroke-linecap:butt;stroke-linejoin:miter;stroke:rgb(0%,0%,0%);stroke-opacity:0.12;stroke-miterlimit:10;" d="M 46 41 L 784 41 " transform="matrix(0.75,0,0,0.75,0,0)"/>
<g style="fill:rgb(0%,0%,0%);fill-opacity:1;">
  <use xlink:href="#qpTrYXGf0-1" x="30.652344" y="435.53125"/>
</g>
<g style="fill:rgb(0%,0%,0%);fill-opacity:1;">
  <use xlink:href="#qpTrYXGf1-1" x="307.546875" y="435.53125"/>
</g>
<g style="fill:rgb(0%,0%,0%);fill-opacity:1;">
  <use xlink:href="#qpTrYXGf1-2" x="579.5625" y="435.53125"/>
</g>
<g style="fill:rgb(0%,0%,0%);fill-opacity:1;">
  <use xlink:href="#qpTrYXGf1-3" x="588.152344" y="435.53125"/>
</g>
<g style="fill:rgb(0%,0%,0%);fill-opacity:1;">
  <use xlink:href="#qpTrYXGf2-1" x="19.449219" y="420.921875"/>
</g>
<g style="fill:rgb(0%,0%,0%);fill-opacity:1;">
  <use xlink:href="#qpTrYXGf3-1" x="19.882812" y="228.171875"/>
</g>
<g style="fill:rgb(0%,0%,0%);fill-opacity:1;">
  <use xlink:href="#qpTrYXGf4-1" x="10.859375" y="35.421875"/>
</g>
<g style="fill:rgb(0%,0%,0%);fill-opacity:1;">
  <use xlink:href="#qpTrYXGf5-1" x="19.449219" y="35.421875"/>
</g>
<g style="fill:rgb(0%,0%,0%);fill-opacity:1;">
  <use xlink:href="#qpTrYXGf6-1" x="137.363281" y="24.566406"/>
</g>
<g style="fill:rgb(0%,0%,0%);fill-opacity:1;">
  <use xlink:href="#qpTrYXGf6-2" x="145.933594" y="24.566406"/>
</g>
<g style="fill:rgb(0%,0%,0%);fill-opacity:1;">
  <use xlink:href="#qpTrYXGf7-1" x="154.195312" y="24.566406"/>
</g>
<g style="fill:rgb(0%,0%,0%);fill-opacity:1;">
  <use xlink:href="#qpTrYXGf7-2" x="167.34375" y="24.566406"/>
</g>
<g style="fill:rgb(0%,0%,0%);fill-opacity:1;">
  <use xlink:href="#qpTrYXGf6-3" x="175.648438" y="24.566406"/>
</g>
<g style="fill:rgb(0%,0%,0%);fill-opacity:1;">
  <use xlink:href="#qpTrYXGf6-4" x="179.941406" y="24.566406"/>
</g>
<g style="fill:rgb(0%,0%,0%);fill-opacity:1;">
  <use xlink:href="#qpTrYXGf8-1" x="185.234375" y="24.566406"/>
</g>
<g style="fill:rgb(0%,0%,0%);fill-opacity:1;">
  <use xlink:href="#qpTrYXGf6-5" x="193.539062" y="24.566406"/>
</g>
<g style="fill:rgb(0%,0%,0%);fill-opacity:1;">
  <use xlink:href="#qpTrYXGf6-4" x="201.53125" y="24.566406"/>
</g>
<g style="fill:rgb(0%,0%,0%);fill-opacity:1;">
  <use xlink:href="#qpTrYXGf9-1" x="206.824219" y="24.566406"/>
</g>
<g style="fill:rgb(0%,0%,0%);fill-opacity:1;">
  <use xlink:href="#qpTrYXGf6-6" x="211.113281" y="24.566406"/>
</g>
<g style="fill:rgb(0%,0%,0%);fill-opacity:1;">
  <use xlink:href="#qpTrYXGf6-7" x="219.386719" y="24.566406"/>
</g>
<g style="fill:rgb(0%,0%,0%);fill-opacity:1;">
  <use xlink:href="#qpTrYXGf6-8" x="227.941406" y="24.566406"/>
</g>
<g style="fill:rgb(0%,0%,0%);fill-opacity:1;">
  <use xlink:href="#qpTrYXGf6-3" x="236.511719" y="24.566406"/>
</g>
<g style="fill:rgb(0%,0%,0%);fill-opacity:1;">
  <use xlink:href="#qpTrYXGf6-9" x="240.804687" y="24.566406"/>
</g>
<g style="fill:rgb(0%,0%,0%);fill-opacity:1;">
  <use xlink:href="#qpTrYXGf9-2" x="247.835937" y="24.566406"/>
</g>
<g style="fill:rgb(0%,0%,0%);fill-opacity:1;">
  <use xlink:href="#qpTrYXGf9-3" x="256.097656" y="24.566406"/>
</g>
<g style="fill:rgb(0%,0%,0%);fill-opacity:1;">
  <use xlink:href="#qpTrYXGf6-10" x="269.246094" y="24.566406"/>
</g>
<g style="fill:rgb(0%,0%,0%);fill-opacity:1;">
  <use xlink:href="#qpTrYXGf6-3" x="277.554688" y="24.566406"/>
</g>
<g style="fill:rgb(0%,0%,0%);fill-opacity:1;">
  <use xlink:href="#qpTrYXGf6-11" x="281.84375" y="24.566406"/>
</g>
<g style="fill:rgb(0%,0%,0%);fill-opacity:1;">
  <use xlink:href="#qpTrYXGf6-6" x="294.996094" y="24.566406"/>
</g>
<g style="fill:rgb(0%,0%,0%);fill-opacity:1;">
  <use xlink:href="#qpTrYXGf10-1" x="303.265625" y="24.566406"/>
</g>
<g style="fill:rgb(0%,0%,0%);fill-opacity:1;">
  <use xlink:href="#qpTrYXGf10-2" x="308.5625" y="24.566406"/>
</g>
<g style="fill:rgb(0%,0%,0%);fill-opacity:1;">
  <use xlink:href="#qpTrYXGf9-4" x="317.117188" y="24.566406"/>
</g>
<g style="fill:rgb(0%,0%,0%);fill-opacity:1;">
  <use xlink:href="#qpTrYXGf9-1" x="321.664062" y="24.566406"/>
</g>
<g style="fill:rgb(0%,0%,0%);fill-opacity:1;">
  <use xlink:href="#qpTrYXGf6-12" x="325.957031" y="24.566406"/>
</g>
<g style="fill:rgb(0%,0%,0%);fill-opacity:1;">
  <use xlink:href="#qpTrYXGf9-5" x="334.546875" y="24.566406"/>
</g>
<g style="fill:rgb(0%,0%,0%);fill-opacity:1;">
  <use xlink:href="#qpTrYXGf9-6" x="339.09375" y="24.566406"/>
</g>
<g style="fill:rgb(0%,0%,0%);fill-opacity:1;">
  <use xlink:href="#qpTrYXGf10-3" x="343.847656" y="24.566406"/>
</g>
<g style="fill:rgb(0%,0%,0%);fill-opacity:1;">
  <use xlink:href="#qpTrYXGf9-7" x="349.398438" y="24.566406"/>
</g>
<g style="fill:rgb(0%,0%,0%);fill-opacity:1;">
  <use xlink:href="#qpTrYXGf10-4" x="357.667969" y="24.566406"/>
</g>
<g style="fill:rgb(0%,0%,0%);fill-opacity:1;">
  <use xlink:href="#qpTrYXGf9-8" x="365.089844" y="24.566406"/>
</g>
<g style="fill:rgb(0%,0%,0%);fill-opacity:1;">
  <use xlink:href="#qpTrYXGf9-9" x="373.679688" y="24.566406"/>
</g>
<g style="fill:rgb(0%,0%,0%);fill-opacity:1;">
  <use xlink:href="#qpTrYXGf9-5" x="382.269531" y="24.566406"/>
</g>
<g style="fill:rgb(0%,0%,0%);fill-opacity:1;">
  <use xlink:href="#qpTrYXGf6-6" x="386.820312" y="24.566406"/>
</g>
<g style="fill:rgb(0%,0%,0%);fill-opacity:1;">
  <use xlink:href="#qpTrYXGf6-13" x="395.089844" y="24.566406"/>
</g>
<g style="fill:rgb(0%,0%,0%);fill-opacity:1;">
  <use xlink:href="#qpTrYXGf6-14" x="398.84375" y="24.566406"/>
</g>
<g style="fill:rgb(0%,0%,0%);fill-opacity:1;">
  <use xlink:href="#qpTrYXGf6-15" x="407.410156" y="24.566406"/>
</g>
<g style="fill:rgb(0%,0%,0%);fill-opacity:1;">
  <use xlink:href="#qpTrYXGf11-1" x="415.96875" y="24.566406"/>
</g>
<g style="fill:rgb(0%,0%,0%);fill-opacity:1;">
  <use xlink:href="#qpTrYXGf6-16" x="424.238281" y="24.566406"/>
</g>
<g style="fill:rgb(0%,0%,0%);fill-opacity:1;">
  <use xlink:href="#qpTrYXGf6-17" x="435.550781" y="24.566406"/>
</g>
<g style="fill:rgb(0%,0%,0%);fill-opacity:1;">
  <use xlink:href="#qpTrYXGf6-18" x="444.140625" y="24.566406"/>
</g>
<g style="fill:rgb(0%,0%,0%);fill-opacity:1;">
  <use xlink:href="#qpTrYXGf6-19" x="452.730469" y="24.566406"/>
</g>
<g style="fill:rgb(0%,0%,0%);fill-opacity:1;">
  <use xlink:href="#qpTrYXGf6-20" x="461.320312" y="24.566406"/>
</g>
<g style="fill:rgb(0%,0%,0%);fill-opacity:1;">
  <use xlink:href="#qpTrYXGf12-1" x="469.308594" y="24.566406"/>
</g>
<g style="fill:rgb(0%,0%,0%);fill-opacity:1;">
  <use xlink:href="#qpTrYXGf12-2" x="477.898438" y="24.566406"/>
</g>
<path style="fill:none;stroke-width:1;stroke-linecap:butt;stroke-linejoin:miter;stroke:rgb(0%,0%,0%);stroke-opacity:1;stroke-miterlimit:10;" d="M 46 555.5 L 46 561.5 " transform="matrix(0.75,0,0,0.75,0,0)"/>
<path style="fill:none;stroke-width:1;stroke-linecap:butt;stroke-linejoin:miter;stroke:rgb(0%,0%,0%);stroke-opacity:1;stroke-miterlimit:10;" d="M 415 555.5 L 415 561.5 " transform="matrix(0.75,0,0,0.75,0,0)"/>
<path style="fill:none;stroke-width:1;stroke-linecap:butt;stroke-linejoin:miter;stroke:rgb(0%,0%,0%);stroke-opacity:1;stroke-miterlimit:10;" d="M 784 555.5 L 784 561.5 " transform="matrix(0.75,0,0,0.75,0,0)"/>
<path style="fill:none;stroke-width:1;stroke-linecap:butt;stroke-linejoin:miter;stroke:rgb(0%,0%,0%);stroke-opacity:1;stroke-miterlimit:10;" d="M 45.5 555 L 39.5 555 " transform="matrix(0.75,0,0,0.75,0,0)"/>
<path style="fill:none;stroke-width:1;stroke-linecap:butt;stroke-linejoin:miter;stroke:rgb(0%,0%,0%);stroke-opacity:1;stroke-miterlimit:10;" d="M 45.5 298 L 39.5 298 " transform="matrix(0.75,0,0,0.75,0,0)"/>
<path style="fill:none;stroke-width:1;stroke-linecap:butt;stroke-linejoin:miter;stroke:rgb(0%,0%,0%);stroke-opacity:1;stroke-miterlimit:10;" d="M 45.5 41 L 39.5 41 " transform="matrix(0.75,0,0,0.75,0,0)"/>
<path style="fill:none;stroke-width:1;stroke-linecap:butt;stroke-linejoin:miter;stroke:rgb(0%,0%,0%);stroke-opacity:1;stroke-miterlimit:10;" d="M 45.5 555 L 784.5 555 " transform="matrix(0.75,0,0,0.75,0,0)"/>
<path style="fill:none;stroke-width:1;stroke-linecap:butt;stroke-linejoin:miter;stroke:rgb(0%,0%,0%);stroke-opacity:1;stroke-miterlimit:10;" d="M 46 555.5 L 46 40.5 " transform="matrix(0.75,0,0,0.75,0,0)"/>
<path style="fill:none;stroke-width:1;stroke-linecap:butt;stroke-linejoin:miter;stroke:rgb(0%,0%,0%);stroke-opacity:1;stroke-miterlimit:10;" d="M 45.5 41 L 784.5 41 " transform="matrix(0.75,0,0,0.75,0,0)"/>
<path style="fill:none;stroke-width:1;stroke-linecap:butt;stroke-linejoin:miter;stroke:rgb(0%,0%,0%);stroke-opacity:1;stroke-miterlimit:10;" d="M 784 555.5 L 784 40.5 " transform="matrix(0.75,0,0,0.75,0,0)"/>
</g>
</svg>
