<?xml version="1.0" encoding="UTF-8"?>
<svg xmlns="http://www.w3.org/2000/svg" xmlns:xlink="http://www.w3.org/1999/xlink" width="600pt" height="450pt" viewBox="0 0 600 450" version="1.1">
<defs>
<g>
<symbol overflow="visible" id="vdUhPT9e0-0">
<path style="stroke:none;" d="M 0.59375 2.125 L 0.59375 -8.46875 L 6.59375 -8.46875 L 6.59375 2.125 Z M 1.265625 1.453125 L 5.9375 1.453125 L 5.9375 -7.78125 L 1.265625 -7.78125 Z M 1.265625 1.453125 "/>
</symbol>
<symbol overflow="visible" id="vdUhPT9e0-1">
<path style="stroke:none;" d="M 0.59375 -3.765625 L 3.75 -3.765625 L 3.75 -2.8125 L 0.59375 -2.8125 Z M 0.59375 -3.765625 "/>
</symbol>
<symbol overflow="visible" id="vdUhPT9e0-2">
<path style="stroke:none;" d="M 2.296875 -1 L 6.4375 -1 L 6.4375 0 L 0.875 0 L 0.875 -1 C 1.320312 -1.457031 1.929688 -2.078125 2.703125 -2.859375 C 3.484375 -3.648438 3.972656 -4.160156 4.171875 -4.390625 C 4.554688 -4.804688 4.820312 -5.160156 4.96875 -5.453125 C 5.125 -5.753906 5.203125 -6.046875 5.203125 -6.328125 C 5.203125 -6.796875 5.035156 -7.175781 4.703125 -7.46875 C 4.378906 -7.757812 3.957031 -7.90625 3.4375 -7.90625 C 3.0625 -7.90625 2.664062 -7.84375 2.25 -7.71875 C 1.84375 -7.59375 1.40625 -7.394531 0.9375 -7.125 L 0.9375 -8.328125 C 1.414062 -8.515625 1.859375 -8.65625 2.265625 -8.75 C 2.679688 -8.851562 3.0625 -8.90625 3.40625 -8.90625 C 4.3125 -8.90625 5.035156 -8.675781 5.578125 -8.21875 C 6.117188 -7.769531 6.390625 -7.164062 6.390625 -6.40625 C 6.390625 -6.050781 6.320312 -5.710938 6.1875 -5.390625 C 6.050781 -5.066406 5.804688 -4.6875 5.453125 -4.25 C 5.347656 -4.132812 5.035156 -3.804688 4.515625 -3.265625 C 3.992188 -2.722656 3.253906 -1.96875 2.296875 -1 Z M 2.296875 -1 "/>
</symbol>
<symbol overflow="visible" id="vdUhPT9e1-0">
<path style="stroke:none;" d="M 0.59375 2.125 L 0.59375 -8.46875 L 6.59375 -8.46875 L 6.59375 2.125 Z M 1.265625 1.453125 L 5.9375 1.453125 L 5.9375 -7.78125 L 1.265625 -7.78125 Z M 1.265625 1.453125 "/>
</symbol>
<symbol overflow="visible" id="vdUhPT9e1-1">
<path style="stroke:none;" d="M 0.59375 -3.765625 L 3.75 -3.765625 L 3.75 -2.8125 L 0.59375 -2.8125 Z M 0.59375 -3.765625 "/>
</symbol>
<symbol overflow="visible" id="vdUhPT9e2-0">
<path style="stroke:none;" d="M 0.59375 2.125 L 0.59375 -8.46875 L 6.59375 -8.46875 L 6.59375 2.125 Z M 1.265625 1.453125 L 5.9375 1.453125 L 5.9375 -7.78125 L 1.265625 -7.78125 Z M 1.265625 1.453125 "/>
</symbol>
<symbol overflow="visible" id="vdUhPT9e2-1">
<path style="stroke:none;" d="M 1.484375 -1 L 3.421875 -1 L 3.421875 -7.671875 L 1.3125 -7.25 L 1.3125 -8.328125 L 3.40625 -8.75 L 4.59375 -8.75 L 4.59375 -1 L 6.53125 -1 L 6.53125 0 L 1.484375 0 Z M 1.484375 -1 "/>
</symbol>
<symbol overflow="visible" id="vdUhPT9e2-2">
<path style="stroke:none;" d="M 2.296875 -1 L 6.4375 -1 L 6.4375 0 L 0.875 0 L 0.875 -1 C 1.320312 -1.457031 1.929688 -2.078125 2.703125 -2.859375 C 3.484375 -3.648438 3.972656 -4.160156 4.171875 -4.390625 C 4.554688 -4.804688 4.820312 -5.160156 4.96875 -5.453125 C 5.125 -5.753906 5.203125 -6.046875 5.203125 -6.328125 C 5.203125 -6.796875 5.035156 -7.175781 4.703125 -7.46875 C 4.378906 -7.757812 3.957031 -7.90625 3.4375 -7.90625 C 3.0625 -7.90625 2.664062 -7.84375 2.25 -7.71875 C 1.84375 -7.59375 1.40625 -7.394531 0.9375 -7.125 L 0.9375 -8.328125 C 1.414062 -8.515625 1.859375 -8.65625 2.265625 -8.75 C 2.679688 -8.851562 3.0625 -8.90625 3.40625 -8.90625 C 4.3125 -8.90625 5.035156 -8.675781 5.578125 -8.21875 C 6.117188 -7.769531 6.390625 -7.164062 6.390625 -6.40625 C 6.390625 -6.050781 6.320312 -5.710938 6.1875 -5.390625 C 6.050781 -5.066406 5.804688 -4.6875 5.453125 -4.25 C 5.347656 -4.132812 5.035156 -3.804688 4.515625 -3.265625 C 3.992188 -2.722656 3.253906 -1.96875 2.296875 -1 Z M 2.296875 -1 "/>
</symbol>
<symbol overflow="visible" id="vdUhPT9e3-0">
<path style="stroke:none;" d="M 0.59375 2.125 L 0.59375 -8.46875 L 6.59375 -8.46875 L 6.59375 2.125 Z M 1.265625 1.453125 L 5.9375 1.453125 L 5.9375 -7.78125 L 1.265625 -7.78125 Z M 1.265625 1.453125 "/>
</symbol>
<symbol overflow="visible" id="vdUhPT9e3-1">
<path style="stroke:none;" d="M 3.8125 -7.96875 C 3.207031 -7.96875 2.75 -7.664062 2.4375 -7.0625 C 2.132812 -6.46875 1.984375 -5.566406 1.984375 -4.359375 C 1.984375 -3.160156 2.132812 -2.257812 2.4375 -1.65625 C 2.75 -1.0625 3.207031 -0.765625 3.8125 -0.765625 C 4.425781 -0.765625 4.882812 -1.0625 5.1875 -1.65625 C 5.5 -2.257812 5.65625 -3.160156 5.65625 -4.359375 C 5.65625 -5.566406 5.5 -6.46875 5.1875 -7.0625 C 4.882812 -7.664062 4.425781 -7.96875 3.8125 -7.96875 Z M 3.8125 -8.90625 C 4.789062 -8.90625 5.539062 -8.515625 6.0625 -7.734375 C 6.582031 -6.960938 6.84375 -5.835938 6.84375 -4.359375 C 6.84375 -2.890625 6.582031 -1.765625 6.0625 -0.984375 C 5.539062 -0.210938 4.789062 0.171875 3.8125 0.171875 C 2.832031 0.171875 2.082031 -0.210938 1.5625 -0.984375 C 1.050781 -1.765625 0.796875 -2.890625 0.796875 -4.359375 C 0.796875 -5.835938 1.050781 -6.960938 1.5625 -7.734375 C 2.082031 -8.515625 2.832031 -8.90625 3.8125 -8.90625 Z M 3.8125 -8.90625 "/>
</symbol>
<symbol overflow="visible" id="vdUhPT9e3-2">
<path style="stroke:none;" d="M 2.296875 -1 L 6.4375 -1 L 6.4375 0 L 0.875 0 L 0.875 -1 C 1.320312 -1.457031 1.929688 -2.078125 2.703125 -2.859375 C 3.484375 -3.648438 3.972656 -4.160156 4.171875 -4.390625 C 4.554688 -4.804688 4.820312 -5.160156 4.96875 -5.453125 C 5.125 -5.753906 5.203125 -6.046875 5.203125 -6.328125 C 5.203125 -6.796875 5.035156 -7.175781 4.703125 -7.46875 C 4.378906 -7.757812 3.957031 -7.90625 3.4375 -7.90625 C 3.0625 -7.90625 2.664062 -7.84375 2.25 -7.71875 C 1.84375 -7.59375 1.40625 -7.394531 0.9375 -7.125 L 0.9375 -8.328125 C 1.414062 -8.515625 1.859375 -8.65625 2.265625 -8.75 C 2.679688 -8.851562 3.0625 -8.90625 3.40625 -8.90625 C 4.3125 -8.90625 5.035156 -8.675781 5.578125 -8.21875 C 6.117188 -7.769531 6.390625 -7.164062 6.390625 -6.40625 C 6.390625 -6.050781 6.320312 -5.710938 6.1875 -5.390625 C 6.050781 -5.066406 5.804688 -4.6875 5.453125 -4.25 C 5.347656 -4.132812 5.035156 -3.804688 4.515625 -3.265625 C 3.992188 -2.722656 3.253906 -1.96875 2.296875 -1 Z M 2.296875 -1 "/>
</symbol>
<symbol overflow="visible" id="vdUhPT9e4-0">
<path style="stroke:none;" d="M 0.59375 2.125 L 0.59375 -8.46875 L 6.59375 -8.46875 L 6.59375 2.125 Z M 1.265625 1.453125 L 5.9375 1.453125 L 5.9375 -7.78125 L 1.265625 -7.78125 Z M 1.265625 1.453125 "/>
</symbol>
<symbol overflow="visible" id="vdUhPT9e4-1">
<path style="stroke:none;" d="M 1.484375 -1 L 3.421875 -1 L 3.421875 -7.671875 L 1.3125 -7.25 L 1.3125 -8.328125 L 3.40625 -8.75 L 4.59375 -8.75 L 4.59375 -1 L 6.53125 -1 L 6.53125 0 L 1.484375 0 Z M 1.484375 -1 "/>
</symbol>
<symbol overflow="visible" id="vdUhPT9e5-0">
<path style="stroke:none;" d="M 0.59375 2.125 L 0.59375 -8.46875 L 6.59375 -8.46875 L 6.59375 2.125 Z M 1.265625 1.453125 L 5.9375 1.453125 L 5.9375 -7.78125 L 1.265625 -7.78125 Z M 1.265625 1.453125 "/>
</symbol>
<symbol overflow="visible" id="vdUhPT9e5-1">
<path style="stroke:none;" d="M 3.8125 -7.96875 C 3.207031 -7.96875 2.75 -7.664062 2.4375 -7.0625 C 2.132812 -6.46875 1.984375 -5.566406 1.984375 -4.359375 C 1.984375 -3.160156 2.132812 -2.257812 2.4375 -1.65625 C 2.75 -1.0625 3.207031 -0.765625 3.8125 -0.765625 C 4.425781 -0.765625 4.882812 -1.0625 5.1875 -1.65625 C 5.5 -2.257812 5.65625 -3.160156 5.65625 -4.359375 C 5.65625 -5.566406 5.5 -6.46875 5.1875 -7.0625 C 4.882812 -7.664062 4.425781 -7.96875 3.8125 -7.96875 Z M 3.8125 -8.90625 C 4.789062 -8.90625 5.539062 -8.515625 6.0625 -7.734375 C 6.582031 -6.960938 6.84375 -5.835938 6.84375 -4.359375 C 6.84375 -2.890625 6.582031 -1.765625 6.0625 -0.984375 C 5.539062 -0.210938 4.789062 0.171875 3.8125 0.171875 C 2.832031 0.171875 2.082031 -0.210938 1.5625 -0.984375 C 1.050781 -1.765625 0.796875 -2.890625 0.796875 -4.359375 C 0.796875 -5.835938 1.050781 -6.960938 1.5625 -7.734375 C 2.082031 -8.515625 2.832031 -8.90625 3.8125 -8.90625 Z M 3.8125 -8.90625 "/>
</symbol>
<symbol overflow="visible" id="vdUhPT9e6-0">
<path style="stroke:none;" d="M 0.59375 2.125 L 0.59375 -8.46875 L 6.59375 -8.46875 L 6.59375 2.125 Z M 1.265625 1.453125 L 5.9375 1.453125 L 5.9375 -7.78125 L 1.265625 -7.78125 Z M 1.265625 1.453125 "/>
</symbol>
<symbol overflow="visible" id="vdUhPT9e6-1">
<path style="stroke:none;" d="M 2.296875 -1 L 6.4375 -1 L 6.4375 0 L 0.875 0 L 0.875 -1 C 1.320312 -1.457031 1.929688 -2.078125 2.703125 -2.859375 C 3.484375 -3.648438 3.972656 -4.160156 4.171875 -4.390625 C 4.554688 -4.804688 4.820312 -5.160156 4.96875 -5.453125 C 5.125 -5.753906 5.203125 -6.046875 5.203125 -6.328125 C 5.203125 -6.796875 5.035156 -7.175781 4.703125 -7.46875 C 4.378906 -7.757812 3.957031 -7.90625 3.4375 -7.90625 C 3.0625 -7.90625 2.664062 -7.84375 2.25 -7.71875 C 1.84375 -7.59375 1.40625 -7.394531 0.9375 -7.125 L 0.9375 -8.328125 C 1.414062 -8.515625 1.859375 -8.65625 2.265625 -8.75 C 2.679688 -8.851562 3.0625 -8.90625 3.40625 -8.90625 C 4.3125 -8.90625 5.035156 -8.675781 5.578125 -8.21875 C 6.117188 -7.769531 6.390625 -7.164062 6.390625 -6.40625 C 6.390625 -6.050781 6.320312 -5.710938 6.1875 -5.390625 C 6.050781 -5.066406 5.804688 -4.6875 5.453125 -4.25 C 5.347656 -4.132812 5.035156 -3.804688 4.515625 -3.265625 C 3.992188 -2.722656 3.253906 -1.96875 2.296875 -1 Z M 2.296875 -1 "/>
</symbol>
<symbol overflow="visible" id="vdUhPT9e7-0">
<path style="stroke:none;" d="M 0.59375 2.125 L 0.59375 -8.46875 L 6.59375 -8.46875 L 6.59375 2.125 Z M 1.265625 1.453125 L 5.9375 1.453125 L 5.9375 -7.78125 L 1.265625 -7.78125 Z M 1.265625 1.453125 "/>
</symbol>
<symbol overflow="visible" id="vdUhPT9e7-1">
<path style="stroke:none;" d="M 4.0625 1.765625 L 3.46875 1.765625 L 3.46875 0 C 3.050781 -0.0078125 2.640625 -0.0546875 2.234375 -0.140625 C 1.828125 -0.234375 1.414062 -0.367188 1 -0.546875 L 1 -1.59375 C 1.394531 -1.34375 1.796875 -1.15625 2.203125 -1.03125 C 2.609375 -0.90625 3.03125 -0.835938 3.46875 -0.828125 L 3.46875 -3.5 C 2.601562 -3.644531 1.972656 -3.882812 1.578125 -4.21875 C 1.191406 -4.550781 1 -5.015625 1 -5.609375 C 1 -6.242188 1.210938 -6.742188 1.640625 -7.109375 C 2.066406 -7.472656 2.675781 -7.679688 3.46875 -7.734375 L 3.46875 -9.125 L 4.0625 -9.125 L 4.0625 -7.765625 C 4.414062 -7.742188 4.765625 -7.703125 5.109375 -7.640625 C 5.453125 -7.578125 5.785156 -7.492188 6.109375 -7.390625 L 6.109375 -6.375 C 5.785156 -6.53125 5.453125 -6.65625 5.109375 -6.75 C 4.765625 -6.84375 4.414062 -6.894531 4.0625 -6.90625 L 4.0625 -4.40625 C 4.945312 -4.269531 5.597656 -4.023438 6.015625 -3.671875 C 6.429688 -3.316406 6.640625 -2.835938 6.640625 -2.234375 C 6.640625 -1.578125 6.414062 -1.054688 5.96875 -0.671875 C 5.53125 -0.285156 4.894531 -0.0664062 4.0625 -0.015625 Z M 3.46875 -4.515625 L 3.46875 -6.921875 C 3.019531 -6.867188 2.675781 -6.738281 2.4375 -6.53125 C 2.195312 -6.320312 2.078125 -6.046875 2.078125 -5.703125 C 2.078125 -5.367188 2.1875 -5.109375 2.40625 -4.921875 C 2.625 -4.734375 2.976562 -4.597656 3.46875 -4.515625 Z M 4.0625 -3.390625 L 4.0625 -0.84375 C 4.550781 -0.914062 4.921875 -1.054688 5.171875 -1.265625 C 5.429688 -1.484375 5.5625 -1.769531 5.5625 -2.125 C 5.5625 -2.46875 5.4375 -2.738281 5.1875 -2.9375 C 4.945312 -3.144531 4.570312 -3.296875 4.0625 -3.390625 Z M 4.0625 -3.390625 "/>
</symbol>
<symbol overflow="visible" id="vdUhPT9e7-2">
<path style="stroke:none;" d="M 4.453125 -9.125 L 4.453125 -8.21875 L 3.421875 -8.21875 C 3.035156 -8.21875 2.765625 -8.140625 2.609375 -7.984375 C 2.460938 -7.828125 2.390625 -7.546875 2.390625 -7.140625 L 2.390625 -6.5625 L 4.171875 -6.5625 L 4.171875 -5.71875 L 2.390625 -5.71875 L 2.390625 0 L 1.3125 0 L 1.3125 -5.71875 L 0.28125 -5.71875 L 0.28125 -6.5625 L 1.3125 -6.5625 L 1.3125 -7.015625 C 1.3125 -7.742188 1.476562 -8.273438 1.8125 -8.609375 C 2.15625 -8.953125 2.695312 -9.125 3.4375 -9.125 Z M 4.453125 -9.125 "/>
</symbol>
<symbol overflow="visible" id="vdUhPT9e7-3">
<path style="stroke:none;" d="M 6.59375 -6.5625 L 4.21875 -3.375 L 6.703125 0 L 5.4375 0 L 3.53125 -2.578125 L 1.625 0 L 0.34375 0 L 2.890625 -3.4375 L 0.5625 -6.5625 L 1.828125 -6.5625 L 3.578125 -4.21875 L 5.3125 -6.5625 Z M 6.59375 -6.5625 "/>
</symbol>
<symbol overflow="visible" id="vdUhPT9e7-4">
<path style="stroke:none;" d=""/>
</symbol>
<symbol overflow="visible" id="vdUhPT9e7-5">
<path style="stroke:none;" d="M 6.140625 1.109375 L 6.140625 1.953125 L 5.765625 1.953125 C 4.796875 1.953125 4.144531 1.804688 3.8125 1.515625 C 3.488281 1.234375 3.328125 0.660156 3.328125 -0.203125 L 3.328125 -1.609375 C 3.328125 -2.191406 3.21875 -2.597656 3 -2.828125 C 2.789062 -3.054688 2.410156 -3.171875 1.859375 -3.171875 L 1.5 -3.171875 L 1.5 -4.015625 L 1.859375 -4.015625 C 2.421875 -4.015625 2.804688 -4.125 3.015625 -4.34375 C 3.222656 -4.570312 3.328125 -4.976562 3.328125 -5.5625 L 3.328125 -6.96875 C 3.328125 -7.820312 3.488281 -8.394531 3.8125 -8.6875 C 4.144531 -8.976562 4.796875 -9.125 5.765625 -9.125 L 6.140625 -9.125 L 6.140625 -8.28125 L 5.734375 -8.28125 C 5.179688 -8.28125 4.820312 -8.191406 4.65625 -8.015625 C 4.488281 -7.847656 4.40625 -7.488281 4.40625 -6.9375 L 4.40625 -5.484375 C 4.40625 -4.867188 4.316406 -4.421875 4.140625 -4.140625 C 3.960938 -3.867188 3.660156 -3.6875 3.234375 -3.59375 C 3.660156 -3.476562 3.960938 -3.28125 4.140625 -3 C 4.316406 -2.726562 4.40625 -2.289062 4.40625 -1.6875 L 4.40625 -0.234375 C 4.40625 0.316406 4.488281 0.675781 4.65625 0.84375 C 4.820312 1.019531 5.179688 1.109375 5.734375 1.109375 Z M 6.140625 1.109375 "/>
</symbol>
<symbol overflow="visible" id="vdUhPT9e7-6">
<path style="stroke:none;" d="M 5.3125 -6.375 L 5.3125 -5.34375 C 5.007812 -5.5 4.691406 -5.613281 4.359375 -5.6875 C 4.035156 -5.769531 3.695312 -5.8125 3.34375 -5.8125 C 2.8125 -5.8125 2.410156 -5.726562 2.140625 -5.5625 C 1.867188 -5.40625 1.734375 -5.160156 1.734375 -4.828125 C 1.734375 -4.578125 1.828125 -4.378906 2.015625 -4.234375 C 2.210938 -4.097656 2.601562 -3.96875 3.1875 -3.84375 L 3.546875 -3.75 C 4.316406 -3.59375 4.863281 -3.363281 5.1875 -3.0625 C 5.507812 -2.757812 5.671875 -2.34375 5.671875 -1.8125 C 5.671875 -1.195312 5.425781 -0.710938 4.9375 -0.359375 C 4.457031 -0.00390625 3.796875 0.171875 2.953125 0.171875 C 2.597656 0.171875 2.226562 0.132812 1.84375 0.0625 C 1.46875 0 1.070312 -0.0976562 0.65625 -0.234375 L 0.65625 -1.359375 C 1.050781 -1.148438 1.441406 -0.992188 1.828125 -0.890625 C 2.210938 -0.785156 2.597656 -0.734375 2.984375 -0.734375 C 3.484375 -0.734375 3.867188 -0.816406 4.140625 -0.984375 C 4.421875 -1.160156 4.5625 -1.410156 4.5625 -1.734375 C 4.5625 -2.023438 4.460938 -2.25 4.265625 -2.40625 C 4.066406 -2.5625 3.632812 -2.710938 2.96875 -2.859375 L 2.59375 -2.9375 C 1.925781 -3.082031 1.441406 -3.300781 1.140625 -3.59375 C 0.847656 -3.882812 0.703125 -4.28125 0.703125 -4.78125 C 0.703125 -5.40625 0.921875 -5.882812 1.359375 -6.21875 C 1.796875 -6.550781 2.414062 -6.71875 3.21875 -6.71875 C 3.613281 -6.71875 3.988281 -6.6875 4.34375 -6.625 C 4.695312 -6.570312 5.019531 -6.488281 5.3125 -6.375 Z M 5.3125 -6.375 "/>
</symbol>
<symbol overflow="visible" id="vdUhPT9e7-7">
<path style="stroke:none;" d="M 3.71875 -9.109375 C 3.195312 -8.210938 2.804688 -7.320312 2.546875 -6.4375 C 2.296875 -5.5625 2.171875 -4.671875 2.171875 -3.765625 C 2.171875 -2.867188 2.296875 -1.976562 2.546875 -1.09375 C 2.804688 -0.207031 3.195312 0.679688 3.71875 1.578125 L 2.78125 1.578125 C 2.195312 0.660156 1.757812 -0.238281 1.46875 -1.125 C 1.175781 -2.007812 1.03125 -2.890625 1.03125 -3.765625 C 1.03125 -4.640625 1.175781 -5.515625 1.46875 -6.390625 C 1.757812 -7.273438 2.195312 -8.179688 2.78125 -9.109375 Z M 3.71875 -9.109375 "/>
</symbol>
<symbol overflow="visible" id="vdUhPT9e7-8">
<path style="stroke:none;" d="M 5.609375 -8.75 L 8.78125 -5.484375 L 7.609375 -5.484375 L 5.03125 -7.796875 L 2.453125 -5.484375 L 1.265625 -5.484375 L 4.453125 -8.75 Z M 5.609375 -8.75 "/>
</symbol>
<symbol overflow="visible" id="vdUhPT9e7-9">
<path style="stroke:none;" d="M 0.96875 -9.109375 L 1.90625 -9.109375 C 2.488281 -8.179688 2.925781 -7.273438 3.21875 -6.390625 C 3.507812 -5.515625 3.65625 -4.640625 3.65625 -3.765625 C 3.65625 -2.890625 3.507812 -2.007812 3.21875 -1.125 C 2.925781 -0.238281 2.488281 0.660156 1.90625 1.578125 L 0.96875 1.578125 C 1.476562 0.679688 1.863281 -0.207031 2.125 -1.09375 C 2.382812 -1.976562 2.515625 -2.867188 2.515625 -3.765625 C 2.515625 -4.671875 2.382812 -5.5625 2.125 -6.4375 C 1.863281 -7.320312 1.476562 -8.210938 0.96875 -9.109375 Z M 0.96875 -9.109375 "/>
</symbol>
<symbol overflow="visible" id="vdUhPT9e7-10">
<path style="stroke:none;" d="M 1.5 1.109375 L 1.90625 1.109375 C 2.457031 1.109375 2.816406 1.023438 2.984375 0.859375 C 3.148438 0.691406 3.234375 0.328125 3.234375 -0.234375 L 3.234375 -1.6875 C 3.234375 -2.289062 3.316406 -2.726562 3.484375 -3 C 3.660156 -3.28125 3.96875 -3.476562 4.40625 -3.59375 C 3.96875 -3.6875 3.660156 -3.867188 3.484375 -4.140625 C 3.316406 -4.421875 3.234375 -4.867188 3.234375 -5.484375 L 3.234375 -6.9375 C 3.234375 -7.488281 3.148438 -7.847656 2.984375 -8.015625 C 2.816406 -8.191406 2.457031 -8.28125 1.90625 -8.28125 L 1.5 -8.28125 L 1.5 -9.125 L 1.875 -9.125 C 2.84375 -9.125 3.488281 -8.976562 3.8125 -8.6875 C 4.144531 -8.394531 4.3125 -7.820312 4.3125 -6.96875 L 4.3125 -5.5625 C 4.3125 -4.976562 4.414062 -4.570312 4.625 -4.34375 C 4.832031 -4.125 5.210938 -4.015625 5.765625 -4.015625 L 6.140625 -4.015625 L 6.140625 -3.171875 L 5.765625 -3.171875 C 5.210938 -3.171875 4.832031 -3.054688 4.625 -2.828125 C 4.414062 -2.597656 4.3125 -2.191406 4.3125 -1.609375 L 4.3125 -0.203125 C 4.3125 0.660156 4.144531 1.234375 3.8125 1.515625 C 3.488281 1.804688 2.84375 1.953125 1.875 1.953125 L 1.5 1.953125 Z M 1.5 1.109375 "/>
</symbol>
<symbol overflow="visible" id="vdUhPT9e8-0">
<path style="stroke:none;" d="M 0.59375 2.125 L 0.59375 -8.46875 L 6.59375 -8.46875 L 6.59375 2.125 Z M 1.265625 1.453125 L 5.9375 1.453125 L 5.9375 -7.78125 L 1.265625 -7.78125 Z M 1.265625 1.453125 "/>
</symbol>
<symbol overflow="visible" id="vdUhPT9e8-1">
<path style="stroke:none;" d="M 1 -8.75 L 4.046875 1.109375 L 3.046875 1.109375 L 0 -8.75 Z M 1 -8.75 "/>
</symbol>
<symbol overflow="visible" id="vdUhPT9e8-2">
<path style="stroke:none;" d="M 4.109375 -3.296875 C 3.242188 -3.296875 2.640625 -3.195312 2.296875 -3 C 1.960938 -2.800781 1.796875 -2.460938 1.796875 -1.984375 C 1.796875 -1.597656 1.921875 -1.289062 2.171875 -1.0625 C 2.429688 -0.84375 2.773438 -0.734375 3.203125 -0.734375 C 3.804688 -0.734375 4.285156 -0.941406 4.640625 -1.359375 C 5.003906 -1.785156 5.1875 -2.351562 5.1875 -3.0625 L 5.1875 -3.296875 Z M 6.265625 -3.75 L 6.265625 0 L 5.1875 0 L 5.1875 -1 C 4.9375 -0.601562 4.628906 -0.304688 4.265625 -0.109375 C 3.898438 0.078125 3.453125 0.171875 2.921875 0.171875 C 2.242188 0.171875 1.707031 -0.015625 1.3125 -0.390625 C 0.914062 -0.773438 0.71875 -1.28125 0.71875 -1.90625 C 0.71875 -2.644531 0.960938 -3.203125 1.453125 -3.578125 C 1.953125 -3.953125 2.691406 -4.140625 3.671875 -4.140625 L 5.1875 -4.140625 L 5.1875 -4.25 C 5.1875 -4.75 5.019531 -5.132812 4.6875 -5.40625 C 4.363281 -5.675781 3.910156 -5.8125 3.328125 -5.8125 C 2.953125 -5.8125 2.582031 -5.765625 2.21875 -5.671875 C 1.863281 -5.578125 1.523438 -5.441406 1.203125 -5.265625 L 1.203125 -6.265625 C 1.597656 -6.421875 1.976562 -6.535156 2.34375 -6.609375 C 2.71875 -6.679688 3.082031 -6.71875 3.4375 -6.71875 C 4.382812 -6.71875 5.09375 -6.472656 5.5625 -5.984375 C 6.03125 -5.492188 6.265625 -4.75 6.265625 -3.75 Z M 6.265625 -3.75 "/>
</symbol>
<symbol overflow="visible" id="vdUhPT9e8-3">
<path style="stroke:none;" d="M 6.140625 1.109375 L 6.140625 1.953125 L 5.765625 1.953125 C 4.796875 1.953125 4.144531 1.804688 3.8125 1.515625 C 3.488281 1.234375 3.328125 0.660156 3.328125 -0.203125 L 3.328125 -1.609375 C 3.328125 -2.191406 3.21875 -2.597656 3 -2.828125 C 2.789062 -3.054688 2.410156 -3.171875 1.859375 -3.171875 L 1.5 -3.171875 L 1.5 -4.015625 L 1.859375 -4.015625 C 2.421875 -4.015625 2.804688 -4.125 3.015625 -4.34375 C 3.222656 -4.570312 3.328125 -4.976562 3.328125 -5.5625 L 3.328125 -6.96875 C 3.328125 -7.820312 3.488281 -8.394531 3.8125 -8.6875 C 4.144531 -8.976562 4.796875 -9.125 5.765625 -9.125 L 6.140625 -9.125 L 6.140625 -8.28125 L 5.734375 -8.28125 C 5.179688 -8.28125 4.820312 -8.191406 4.65625 -8.015625 C 4.488281 -7.847656 4.40625 -7.488281 4.40625 -6.9375 L 4.40625 -5.484375 C 4.40625 -4.867188 4.316406 -4.421875 4.140625 -4.140625 C 3.960938 -3.867188 3.660156 -3.6875 3.234375 -3.59375 C 3.660156 -3.476562 3.960938 -3.28125 4.140625 -3 C 4.316406 -2.726562 4.40625 -2.289062 4.40625 -1.6875 L 4.40625 -0.234375 C 4.40625 0.316406 4.488281 0.675781 4.65625 0.84375 C 4.820312 1.019531 5.179688 1.109375 5.734375 1.109375 Z M 6.140625 1.109375 "/>
</symbol>
<symbol overflow="visible" id="vdUhPT9e8-4">
<path style="stroke:none;" d="M 5.515625 -7.53125 L 5.515625 -4.265625 L 8.78125 -4.265625 L 8.78125 -3.265625 L 5.515625 -3.265625 L 5.515625 0 L 4.53125 0 L 4.53125 -3.265625 L 1.265625 -3.265625 L 1.265625 -4.265625 L 4.53125 -4.265625 L 4.53125 -7.53125 Z M 5.515625 -7.53125 "/>
</symbol>
<symbol overflow="visible" id="vdUhPT9e8-5">
<path style="stroke:none;" d="M 1.09375 -9.125 L 2.171875 -9.125 L 2.171875 -3.734375 L 5.390625 -6.5625 L 6.765625 -6.5625 L 3.28125 -3.5 L 6.921875 0 L 5.515625 0 L 2.171875 -3.203125 L 2.171875 0 L 1.09375 0 Z M 1.09375 -9.125 "/>
</symbol>
<symbol overflow="visible" id="vdUhPT9e8-6">
<path style="stroke:none;" d="M 4.0625 1.765625 L 3.46875 1.765625 L 3.46875 0 C 3.050781 -0.0078125 2.640625 -0.0546875 2.234375 -0.140625 C 1.828125 -0.234375 1.414062 -0.367188 1 -0.546875 L 1 -1.59375 C 1.394531 -1.34375 1.796875 -1.15625 2.203125 -1.03125 C 2.609375 -0.90625 3.03125 -0.835938 3.46875 -0.828125 L 3.46875 -3.5 C 2.601562 -3.644531 1.972656 -3.882812 1.578125 -4.21875 C 1.191406 -4.550781 1 -5.015625 1 -5.609375 C 1 -6.242188 1.210938 -6.742188 1.640625 -7.109375 C 2.066406 -7.472656 2.675781 -7.679688 3.46875 -7.734375 L 3.46875 -9.125 L 4.0625 -9.125 L 4.0625 -7.765625 C 4.414062 -7.742188 4.765625 -7.703125 5.109375 -7.640625 C 5.453125 -7.578125 5.785156 -7.492188 6.109375 -7.390625 L 6.109375 -6.375 C 5.785156 -6.53125 5.453125 -6.65625 5.109375 -6.75 C 4.765625 -6.84375 4.414062 -6.894531 4.0625 -6.90625 L 4.0625 -4.40625 C 4.945312 -4.269531 5.597656 -4.023438 6.015625 -3.671875 C 6.429688 -3.316406 6.640625 -2.835938 6.640625 -2.234375 C 6.640625 -1.578125 6.414062 -1.054688 5.96875 -0.671875 C 5.53125 -0.285156 4.894531 -0.0664062 4.0625 -0.015625 Z M 3.46875 -4.515625 L 3.46875 -6.921875 C 3.019531 -6.867188 2.675781 -6.738281 2.4375 -6.53125 C 2.195312 -6.320312 2.078125 -6.046875 2.078125 -5.703125 C 2.078125 -5.367188 2.1875 -5.109375 2.40625 -4.921875 C 2.625 -4.734375 2.976562 -4.597656 3.46875 -4.515625 Z M 4.0625 -3.390625 L 4.0625 -0.84375 C 4.550781 -0.914062 4.921875 -1.054688 5.171875 -1.265625 C 5.429688 -1.484375 5.5625 -1.769531 5.5625 -2.125 C 5.5625 -2.46875 5.4375 -2.738281 5.1875 -2.9375 C 4.945312 -3.144531 4.570312 -3.296875 4.0625 -3.390625 Z M 4.0625 -3.390625 "/>
</symbol>
<symbol overflow="visible" id="vdUhPT9e9-0">
<path style="stroke:none;" d="M 0.59375 2.125 L 0.59375 -8.46875 L 6.59375 -8.46875 L 6.59375 2.125 Z M 1.265625 1.453125 L 5.9375 1.453125 L 5.9375 -7.78125 L 1.265625 -7.78125 Z M 1.265625 1.453125 "/>
</symbol>
<symbol overflow="visible" id="vdUhPT9e9-1">
<path style="stroke:none;" d="M 4.9375 -5.5625 C 4.8125 -5.625 4.675781 -5.671875 4.53125 -5.703125 C 4.394531 -5.742188 4.238281 -5.765625 4.0625 -5.765625 C 3.457031 -5.765625 2.988281 -5.566406 2.65625 -5.171875 C 2.332031 -4.773438 2.171875 -4.203125 2.171875 -3.453125 L 2.171875 0 L 1.09375 0 L 1.09375 -6.5625 L 2.171875 -6.5625 L 2.171875 -5.546875 C 2.398438 -5.941406 2.695312 -6.234375 3.0625 -6.421875 C 3.425781 -6.617188 3.867188 -6.71875 4.390625 -6.71875 C 4.460938 -6.71875 4.539062 -6.710938 4.625 -6.703125 C 4.71875 -6.691406 4.816406 -6.675781 4.921875 -6.65625 Z M 4.9375 -5.5625 "/>
</symbol>
<symbol overflow="visible" id="vdUhPT9e9-2">
<path style="stroke:none;" d="M 5.859375 -6.3125 L 5.859375 -5.296875 C 5.546875 -5.472656 5.238281 -5.601562 4.9375 -5.6875 C 4.632812 -5.769531 4.328125 -5.8125 4.015625 -5.8125 C 3.304688 -5.8125 2.757812 -5.585938 2.375 -5.140625 C 1.988281 -4.703125 1.796875 -4.082031 1.796875 -3.28125 C 1.796875 -2.476562 1.988281 -1.851562 2.375 -1.40625 C 2.757812 -0.96875 3.304688 -0.75 4.015625 -0.75 C 4.328125 -0.75 4.632812 -0.789062 4.9375 -0.875 C 5.238281 -0.957031 5.546875 -1.082031 5.859375 -1.25 L 5.859375 -0.25 C 5.554688 -0.113281 5.242188 -0.0078125 4.921875 0.0625 C 4.597656 0.132812 4.253906 0.171875 3.890625 0.171875 C 2.898438 0.171875 2.113281 -0.132812 1.53125 -0.75 C 0.945312 -1.375 0.65625 -2.21875 0.65625 -3.28125 C 0.65625 -4.34375 0.945312 -5.179688 1.53125 -5.796875 C 2.125 -6.410156 2.9375 -6.71875 3.96875 -6.71875 C 4.289062 -6.71875 4.609375 -6.679688 4.921875 -6.609375 C 5.242188 -6.546875 5.554688 -6.445312 5.859375 -6.3125 Z M 5.859375 -6.3125 "/>
</symbol>
<symbol overflow="visible" id="vdUhPT9e9-3">
<path style="stroke:none;" d=""/>
</symbol>
<symbol overflow="visible" id="vdUhPT9e9-4">
<path style="stroke:none;" d="M 3.859375 0.609375 C 3.554688 1.390625 3.257812 1.898438 2.96875 2.140625 C 2.675781 2.378906 2.289062 2.5 1.8125 2.5 L 0.953125 2.5 L 0.953125 1.59375 L 1.578125 1.59375 C 1.878906 1.59375 2.109375 1.519531 2.265625 1.375 C 2.429688 1.238281 2.613281 0.910156 2.8125 0.390625 L 3.015625 -0.109375 L 0.359375 -6.5625 L 1.5 -6.5625 L 3.546875 -1.4375 L 5.609375 -6.5625 L 6.75 -6.5625 Z M 3.859375 0.609375 "/>
</symbol>
<symbol overflow="visible" id="vdUhPT9e9-5">
<path style="stroke:none;" d="M 1.5 1.109375 L 1.90625 1.109375 C 2.457031 1.109375 2.816406 1.023438 2.984375 0.859375 C 3.148438 0.691406 3.234375 0.328125 3.234375 -0.234375 L 3.234375 -1.6875 C 3.234375 -2.289062 3.316406 -2.726562 3.484375 -3 C 3.660156 -3.28125 3.96875 -3.476562 4.40625 -3.59375 C 3.96875 -3.6875 3.660156 -3.867188 3.484375 -4.140625 C 3.316406 -4.421875 3.234375 -4.867188 3.234375 -5.484375 L 3.234375 -6.9375 C 3.234375 -7.488281 3.148438 -7.847656 2.984375 -8.015625 C 2.816406 -8.191406 2.457031 -8.28125 1.90625 -8.28125 L 1.5 -8.28125 L 1.5 -9.125 L 1.875 -9.125 C 2.84375 -9.125 3.488281 -8.976562 3.8125 -8.6875 C 4.144531 -8.394531 4.3125 -7.820312 4.3125 -6.96875 L 4.3125 -5.5625 C 4.3125 -4.976562 4.414062 -4.570312 4.625 -4.34375 C 4.832031 -4.125 5.210938 -4.015625 5.765625 -4.015625 L 6.140625 -4.015625 L 6.140625 -3.171875 L 5.765625 -3.171875 C 5.210938 -3.171875 4.832031 -3.054688 4.625 -2.828125 C 4.414062 -2.597656 4.3125 -2.191406 4.3125 -1.609375 L 4.3125 -0.203125 C 4.3125 0.660156 4.144531 1.234375 3.8125 1.515625 C 3.488281 1.804688 2.84375 1.953125 1.875 1.953125 L 1.5 1.953125 Z M 1.5 1.109375 "/>
</symbol>
<symbol overflow="visible" id="vdUhPT9e9-6">
<path style="stroke:none;" d="M 1 -8.75 L 4.046875 1.109375 L 3.046875 1.109375 L 0 -8.75 Z M 1 -8.75 "/>
</symbol>
<symbol overflow="visible" id="vdUhPT9e9-7">
<path style="stroke:none;" d="M 1.125 -6.5625 L 2.203125 -6.5625 L 2.203125 0 L 1.125 0 Z M 1.125 -9.125 L 2.203125 -9.125 L 2.203125 -7.75 L 1.125 -7.75 Z M 1.125 -9.125 "/>
</symbol>
<symbol overflow="visible" id="vdUhPT9e9-8">
<path style="stroke:none;" d="M 6.59375 -3.96875 L 6.59375 0 L 5.515625 0 L 5.515625 -3.921875 C 5.515625 -4.546875 5.390625 -5.007812 5.140625 -5.3125 C 4.898438 -5.625 4.539062 -5.78125 4.0625 -5.78125 C 3.476562 -5.78125 3.015625 -5.59375 2.671875 -5.21875 C 2.335938 -4.851562 2.171875 -4.347656 2.171875 -3.703125 L 2.171875 0 L 1.09375 0 L 1.09375 -6.5625 L 2.171875 -6.5625 L 2.171875 -5.546875 C 2.429688 -5.941406 2.734375 -6.234375 3.078125 -6.421875 C 3.429688 -6.617188 3.835938 -6.71875 4.296875 -6.71875 C 5.046875 -6.71875 5.613281 -6.484375 6 -6.015625 C 6.394531 -5.554688 6.59375 -4.875 6.59375 -3.96875 Z M 6.59375 -3.96875 "/>
</symbol>
<symbol overflow="visible" id="vdUhPT9e9-9">
<path style="stroke:none;" d="M 2.296875 -1 L 6.4375 -1 L 6.4375 0 L 0.875 0 L 0.875 -1 C 1.320312 -1.457031 1.929688 -2.078125 2.703125 -2.859375 C 3.484375 -3.648438 3.972656 -4.160156 4.171875 -4.390625 C 4.554688 -4.804688 4.820312 -5.160156 4.96875 -5.453125 C 5.125 -5.753906 5.203125 -6.046875 5.203125 -6.328125 C 5.203125 -6.796875 5.035156 -7.175781 4.703125 -7.46875 C 4.378906 -7.757812 3.957031 -7.90625 3.4375 -7.90625 C 3.0625 -7.90625 2.664062 -7.84375 2.25 -7.71875 C 1.84375 -7.59375 1.40625 -7.394531 0.9375 -7.125 L 0.9375 -8.328125 C 1.414062 -8.515625 1.859375 -8.65625 2.265625 -8.75 C 2.679688 -8.851562 3.0625 -8.90625 3.40625 -8.90625 C 4.3125 -8.90625 5.035156 -8.675781 5.578125 -8.21875 C 6.117188 -7.769531 6.390625 -7.164062 6.390625 -6.40625 C 6.390625 -6.050781 6.320312 -5.710938 6.1875 -5.390625 C 6.050781 -5.066406 5.804688 -4.6875 5.453125 -4.25 C 5.347656 -4.132812 5.035156 -3.804688 4.515625 -3.265625 C 3.992188 -2.722656 3.253906 -1.96875 2.296875 -1 Z M 2.296875 -1 "/>
</symbol>
</g>
</defs>
<g id="surface1">
<rect x="0" y="0" width="600" height="450" style="fill:rgb(100%,100%,100%);fill-opacity:1;stroke:none;"/>
<path style=" stroke:none;fill-rule:nonzero;fill:rgb(100%,100%,100%);fill-opacity:1;" d="M 30 417.75 L 588 417.75 L 588 29.25 L 30 29.25 Z M 30 417.75 "/>
<path style="fill:none;stroke-width:1;stroke-linecap:butt;stroke-linejoin:miter;stroke:rgb(0%,0%,0%);stroke-opacity:0.12;stroke-miterlimit:10;" d="M 78.958333 557 L 78.958333 39 " transform="matrix(0.75,0,0,0.75,0,0)"/>
<path style="fill:none;stroke-width:1;stroke-linecap:butt;stroke-linejoin:miter;stroke:rgb(0%,0%,0%);stroke-opacity:0.12;stroke-miterlimit:10;" d="M 224.59375 557 L 224.59375 39 " transform="matrix(0.75,0,0,0.75,0,0)"/>
<path style="fill:none;stroke-width:1;stroke-linecap:butt;stroke-linejoin:miter;stroke:rgb(0%,0%,0%);stroke-opacity:0.12;stroke-miterlimit:10;" d="M 370.229167 557 L 370.229167 39 " transform="matrix(0.75,0,0,0.75,0,0)"/>
<path style="fill:none;stroke-width:1;stroke-linecap:butt;stroke-linejoin:miter;stroke:rgb(0%,0%,0%);stroke-opacity:0.12;stroke-miterlimit:10;" d="M 515.864583 557 L 515.864583 39 " transform="matrix(0.75,0,0,0.75,0,0)"/>
<path style="fill:none;stroke-width:1;stroke-linecap:butt;stroke-linejoin:miter;stroke:rgb(0%,0%,0%);stroke-opacity:0.12;stroke-miterlimit:10;" d="M 661.505208 557 L 661.505208 39 " transform="matrix(0.75,0,0,0.75,0,0)"/>
<path style="fill:none;stroke-width:1;stroke-linecap:butt;stroke-linejoin:miter;stroke:rgb(0%,0%,0%);stroke-opacity:0.12;stroke-miterlimit:10;" d="M 40 452.421875 L 784 452.421875 " transform="matrix(0.75,0,0,0.75,0,0)"/>
<path style="fill:none;stroke-width:1;stroke-linecap:butt;stroke-linejoin:miter;stroke:rgb(0%,0%,0%);stroke-opacity:0.12;stroke-miterlimit:10;" d="M 40 265.255208 L 784 265.255208 " transform="matrix(0.75,0,0,0.75,0,0)"/>
<path style="fill:none;stroke-width:1;stroke-linecap:butt;stroke-linejoin:miter;stroke:rgb(0%,0%,0%);stroke-opacity:0.12;stroke-miterlimit:10;" d="M 40 78.088542 L 784 78.088542 " transform="matrix(0.75,0,0,0.75,0,0)"/>
<g style="fill:rgb(0%,0%,0%);fill-opacity:1;">
  <use xlink:href="#vdUhPT9e0-1" x="53.980469" y="435.640625"/>
</g>
<g style="fill:rgb(0%,0%,0%);fill-opacity:1;">
  <use xlink:href="#vdUhPT9e0-2" x="58.3125" y="435.640625"/>
</g>
<g style="fill:rgb(0%,0%,0%);fill-opacity:1;">
  <use xlink:href="#vdUhPT9e1-1" x="163.382812" y="435.640625"/>
</g>
<g style="fill:rgb(0%,0%,0%);fill-opacity:1;">
  <use xlink:href="#vdUhPT9e2-1" x="167.710938" y="435.640625"/>
</g>
<g style="fill:rgb(0%,0%,0%);fill-opacity:1;">
  <use xlink:href="#vdUhPT9e3-1" x="274.253906" y="435.640625"/>
</g>
<g style="fill:rgb(0%,0%,0%);fill-opacity:1;">
  <use xlink:href="#vdUhPT9e4-1" x="383.636719" y="435.640625"/>
</g>
<g style="fill:rgb(0%,0%,0%);fill-opacity:1;">
  <use xlink:href="#vdUhPT9e3-2" x="492.910156" y="435.640625"/>
</g>
<g style="fill:rgb(0%,0%,0%);fill-opacity:1;">
  <use xlink:href="#vdUhPT9e0-1" x="11.867188" y="343.46875"/>
</g>
<g style="fill:rgb(0%,0%,0%);fill-opacity:1;">
  <use xlink:href="#vdUhPT9e2-2" x="16.195312" y="343.46875"/>
</g>
<g style="fill:rgb(0%,0%,0%);fill-opacity:1;">
  <use xlink:href="#vdUhPT9e5-1" x="15.703125" y="203.09375"/>
</g>
<g style="fill:rgb(0%,0%,0%);fill-opacity:1;">
  <use xlink:href="#vdUhPT9e6-1" x="16.195312" y="62.71875"/>
</g>
<g style="fill:rgb(0%,0%,0%);fill-opacity:1;">
  <use xlink:href="#vdUhPT9e7-1" x="229.457031" y="23.421875"/>
</g>
<g style="fill:rgb(0%,0%,0%);fill-opacity:1;">
  <use xlink:href="#vdUhPT9e8-1" x="237.089844" y="23.421875"/>
</g>
<g style="fill:rgb(0%,0%,0%);fill-opacity:1;">
  <use xlink:href="#vdUhPT9e7-2" x="241.132812" y="23.421875"/>
</g>
<g style="fill:rgb(0%,0%,0%);fill-opacity:1;">
  <use xlink:href="#vdUhPT9e9-1" x="245.359375" y="23.421875"/>
</g>
<g style="fill:rgb(0%,0%,0%);fill-opacity:1;">
  <use xlink:href="#vdUhPT9e8-2" x="250.292969" y="23.421875"/>
</g>
<g style="fill:rgb(0%,0%,0%);fill-opacity:1;">
  <use xlink:href="#vdUhPT9e9-2" x="257.644531" y="23.421875"/>
</g>
<g style="fill:rgb(0%,0%,0%);fill-opacity:1;">
  <use xlink:href="#vdUhPT9e8-3" x="264.242188" y="23.421875"/>
</g>
<g style="fill:rgb(0%,0%,0%);fill-opacity:1;">
  <use xlink:href="#vdUhPT9e7-3" x="271.878906" y="23.421875"/>
</g>
<g style="fill:rgb(0%,0%,0%);fill-opacity:1;">
  <use xlink:href="#vdUhPT9e7-4" x="278.980469" y="23.421875"/>
</g>
<g style="fill:rgb(0%,0%,0%);fill-opacity:1;">
  <use xlink:href="#vdUhPT9e8-4" x="282.792969" y="23.421875"/>
</g>
<g style="fill:rgb(0%,0%,0%);fill-opacity:1;">
  <use xlink:href="#vdUhPT9e9-3" x="292.847656" y="23.421875"/>
</g>
<g style="fill:rgb(0%,0%,0%);fill-opacity:1;">
  <use xlink:href="#vdUhPT9e9-4" x="296.664062" y="23.421875"/>
</g>
<g style="fill:rgb(0%,0%,0%);fill-opacity:1;">
  <use xlink:href="#vdUhPT9e9-5" x="303.765625" y="23.421875"/>
</g>
<g style="fill:rgb(0%,0%,0%);fill-opacity:1;">
  <use xlink:href="#vdUhPT9e7-5" x="311.398438" y="23.421875"/>
</g>
<g style="fill:rgb(0%,0%,0%);fill-opacity:1;">
  <use xlink:href="#vdUhPT9e9-6" x="319.035156" y="23.421875"/>
</g>
<g style="fill:rgb(0%,0%,0%);fill-opacity:1;">
  <use xlink:href="#vdUhPT9e7-6" x="323.078125" y="23.421875"/>
</g>
<g style="fill:rgb(0%,0%,0%);fill-opacity:1;">
  <use xlink:href="#vdUhPT9e9-7" x="329.328125" y="23.421875"/>
</g>
<g style="fill:rgb(0%,0%,0%);fill-opacity:1;">
  <use xlink:href="#vdUhPT9e9-8" x="332.664062" y="23.421875"/>
</g>
<g style="fill:rgb(0%,0%,0%);fill-opacity:1;">
  <use xlink:href="#vdUhPT9e7-7" x="340.269531" y="23.421875"/>
</g>
<g style="fill:rgb(0%,0%,0%);fill-opacity:1;">
  <use xlink:href="#vdUhPT9e8-5" x="344.949219" y="23.421875"/>
</g>
<g style="fill:rgb(0%,0%,0%);fill-opacity:1;">
  <use xlink:href="#vdUhPT9e7-8" x="351.898438" y="23.421875"/>
</g>
<g style="fill:rgb(0%,0%,0%);fill-opacity:1;">
  <use xlink:href="#vdUhPT9e9-9" x="361.953125" y="23.421875"/>
</g>
<g style="fill:rgb(0%,0%,0%);fill-opacity:1;">
  <use xlink:href="#vdUhPT9e7-9" x="369.589844" y="23.421875"/>
</g>
<g style="fill:rgb(0%,0%,0%);fill-opacity:1;">
  <use xlink:href="#vdUhPT9e7-10" x="374.269531" y="23.421875"/>
</g>
<g style="fill:rgb(0%,0%,0%);fill-opacity:1;">
  <use xlink:href="#vdUhPT9e8-6" x="381.90625" y="23.421875"/>
</g>
<path style=" stroke:none;fill-rule:nonzero;fill:rgb(0%,44.705883%,69.803923%);fill-opacity:1;" d="M 337.105469 233.101562 C 337.105469 237.601562 330.355469 237.601562 330.355469 233.101562 C 330.355469 228.601562 337.105469 228.601562 337.105469 233.101562 "/>
<path style=" stroke:none;fill-rule:nonzero;fill:rgb(0%,44.705883%,69.803923%);fill-opacity:1;" d="M 220.855469 240.628906 C 220.855469 245.128906 214.105469 245.128906 214.105469 240.628906 C 214.105469 236.128906 220.855469 236.128906 220.855469 240.628906 "/>
<path style=" stroke:none;fill-rule:nonzero;fill:rgb(0%,44.705883%,69.803923%);fill-opacity:1;" d="M 321.050781 347.679688 C 321.050781 352.179688 314.300781 352.179688 314.300781 347.679688 C 314.300781 343.179688 321.050781 343.179688 321.050781 347.679688 "/>
<path style=" stroke:none;fill-rule:nonzero;fill:rgb(0%,44.705883%,69.803923%);fill-opacity:1;" d="M 283.902344 213 C 283.902344 217.5 277.152344 217.5 277.152344 213 C 277.152344 208.5 283.902344 208.5 283.902344 213 "/>
<path style=" stroke:none;fill-rule:nonzero;fill:rgb(0%,44.705883%,69.803923%);fill-opacity:1;" d="M 256.429688 258.675781 C 256.429688 263.175781 249.679688 263.175781 249.679688 258.675781 C 249.679688 254.175781 256.429688 254.175781 256.429688 258.675781 "/>
<path style=" stroke:none;fill-rule:nonzero;fill:rgb(0%,44.705883%,69.803923%);fill-opacity:1;" d="M 288.085938 316.867188 C 288.085938 321.367188 281.335938 321.367188 281.335938 316.867188 C 281.335938 312.367188 288.085938 312.367188 288.085938 316.867188 "/>
<path style=" stroke:none;fill-rule:nonzero;fill:rgb(0%,44.705883%,69.803923%);fill-opacity:1;" d="M 264.394531 254.019531 C 264.394531 258.519531 257.644531 258.519531 257.644531 254.019531 C 257.644531 249.519531 264.394531 249.519531 264.394531 254.019531 "/>
<path style=" stroke:none;fill-rule:nonzero;fill:rgb(0%,44.705883%,69.803923%);fill-opacity:1;" d="M 145.253906 160.023438 C 145.253906 164.523438 138.503906 164.523438 138.503906 160.023438 C 138.503906 155.523438 145.253906 155.523438 145.253906 160.023438 "/>
<path style=" stroke:none;fill-rule:nonzero;fill:rgb(0%,44.705883%,69.803923%);fill-opacity:1;" d="M 336.726562 301.523438 C 336.726562 306.023438 329.976562 306.023438 329.976562 301.523438 C 329.976562 297.023438 336.726562 297.023438 336.726562 301.523438 "/>
<path style=" stroke:none;fill-rule:nonzero;fill:rgb(0%,44.705883%,69.803923%);fill-opacity:1;" d="M 248.226562 250.402344 C 248.226562 254.902344 241.476562 254.902344 241.476562 250.402344 C 241.476562 245.902344 248.226562 245.902344 248.226562 250.402344 "/>
<path style=" stroke:none;fill-rule:nonzero;fill:rgb(0%,44.705883%,69.803923%);fill-opacity:1;" d="M 239.179688 196.898438 C 239.179688 201.398438 232.429688 201.398438 232.429688 196.898438 C 232.429688 192.398438 239.179688 192.398438 239.179688 196.898438 "/>
<path style=" stroke:none;fill-rule:nonzero;fill:rgb(0%,44.705883%,69.803923%);fill-opacity:1;" d="M 271.910156 283.371094 C 271.910156 287.871094 265.160156 287.871094 265.160156 283.371094 C 265.160156 278.871094 271.910156 278.871094 271.910156 283.371094 "/>
<path style=" stroke:none;fill-rule:nonzero;fill:rgb(0%,44.705883%,69.803923%);fill-opacity:1;" d="M 398.445312 144.980469 C 398.445312 149.480469 391.695312 149.480469 391.695312 144.980469 C 391.695312 140.480469 398.445312 140.480469 398.445312 144.980469 "/>
<path style=" stroke:none;fill-rule:nonzero;fill:rgb(0%,44.705883%,69.803923%);fill-opacity:1;" d="M 275.097656 253.277344 C 275.097656 257.777344 268.347656 257.777344 268.347656 253.277344 C 268.347656 248.777344 275.097656 248.777344 275.097656 253.277344 "/>
<path style=" stroke:none;fill-rule:nonzero;fill:rgb(0%,44.705883%,69.803923%);fill-opacity:1;" d="M 319.785156 272.925781 C 319.785156 277.425781 313.035156 277.425781 313.035156 272.925781 C 313.035156 268.425781 319.785156 268.425781 319.785156 272.925781 "/>
<path style=" stroke:none;fill-rule:nonzero;fill:rgb(0%,44.705883%,69.803923%);fill-opacity:1;" d="M 253.980469 316.625 C 253.980469 321.125 247.230469 321.125 247.230469 316.625 C 247.230469 312.125 253.980469 312.125 253.980469 316.625 "/>
<path style=" stroke:none;fill-rule:nonzero;fill:rgb(0%,44.705883%,69.803923%);fill-opacity:1;" d="M 285.585938 173.269531 C 285.585938 177.769531 278.835938 177.769531 278.835938 173.269531 C 278.835938 168.769531 285.585938 168.769531 285.585938 173.269531 "/>
<path style=" stroke:none;fill-rule:nonzero;fill:rgb(0%,44.705883%,69.803923%);fill-opacity:1;" d="M 376.101562 54.210938 C 376.101562 58.710938 369.351562 58.710938 369.351562 54.210938 C 369.351562 49.710938 376.101562 49.710938 376.101562 54.210938 "/>
<path style=" stroke:none;fill-rule:nonzero;fill:rgb(0%,44.705883%,69.803923%);fill-opacity:1;" d="M 188.171875 258.589844 C 188.171875 263.089844 181.421875 263.089844 181.421875 258.589844 C 181.421875 254.089844 188.171875 254.089844 188.171875 258.589844 "/>
<path style=" stroke:none;fill-rule:nonzero;fill:rgb(0%,44.705883%,69.803923%);fill-opacity:1;" d="M 457.117188 191.464844 C 457.117188 195.964844 450.367188 195.964844 450.367188 191.464844 C 450.367188 186.964844 457.117188 186.964844 457.117188 191.464844 "/>
<path style=" stroke:none;fill-rule:nonzero;fill:rgb(0%,44.705883%,69.803923%);fill-opacity:1;" d="M 58.738281 192.707031 C 58.738281 197.207031 51.988281 197.207031 51.988281 192.707031 C 51.988281 188.207031 58.738281 188.207031 58.738281 192.707031 "/>
<path style=" stroke:none;fill-rule:nonzero;fill:rgb(0%,44.705883%,69.803923%);fill-opacity:1;" d="M 329.226562 155.132812 C 329.226562 159.632812 322.476562 159.632812 322.476562 155.132812 C 322.476562 150.632812 329.226562 150.632812 329.226562 155.132812 "/>
<path style=" stroke:none;fill-rule:nonzero;fill:rgb(0%,44.705883%,69.803923%);fill-opacity:1;" d="M 162.328125 168.972656 C 162.328125 173.472656 155.578125 173.472656 155.578125 168.972656 C 155.578125 164.472656 162.328125 164.472656 162.328125 168.972656 "/>
<path style=" stroke:none;fill-rule:nonzero;fill:rgb(0%,44.705883%,69.803923%);fill-opacity:1;" d="M 566.011719 166.449219 C 566.011719 170.949219 559.261719 170.949219 559.261719 166.449219 C 559.261719 161.949219 566.011719 161.949219 566.011719 166.449219 "/>
<path style=" stroke:none;fill-rule:nonzero;fill:rgb(0%,44.705883%,69.803923%);fill-opacity:1;" d="M 346.855469 217.351562 C 346.855469 221.851562 340.105469 221.851562 340.105469 217.351562 C 340.105469 212.851562 346.855469 212.851562 346.855469 217.351562 "/>
<path style=" stroke:none;fill-rule:nonzero;fill:rgb(0%,44.705883%,69.803923%);fill-opacity:1;" d="M 156.972656 248.347656 C 156.972656 252.847656 150.222656 252.847656 150.222656 248.347656 C 150.222656 243.847656 156.972656 243.847656 156.972656 248.347656 "/>
<path style=" stroke:none;fill-rule:nonzero;fill:rgb(0%,44.705883%,69.803923%);fill-opacity:1;" d="M 216.351562 189.40625 C 216.351562 193.90625 209.601562 193.90625 209.601562 189.40625 C 209.601562 184.90625 216.351562 184.90625 216.351562 189.40625 "/>
<path style=" stroke:none;fill-rule:nonzero;fill:rgb(0%,44.705883%,69.803923%);fill-opacity:1;" d="M 304.03125 236.015625 C 304.03125 240.515625 297.28125 240.515625 297.28125 236.015625 C 297.28125 231.515625 304.03125 231.515625 304.03125 236.015625 "/>
<path style=" stroke:none;fill-rule:nonzero;fill:rgb(0%,44.705883%,69.803923%);fill-opacity:1;" d="M 436.796875 93.152344 C 436.796875 97.652344 430.046875 97.652344 430.046875 93.152344 C 430.046875 88.652344 436.796875 88.652344 436.796875 93.152344 "/>
<path style=" stroke:none;fill-rule:nonzero;fill:rgb(0%,44.705883%,69.803923%);fill-opacity:1;" d="M 426.933594 124.722656 C 426.933594 129.222656 420.183594 129.222656 420.183594 124.722656 C 420.183594 120.222656 426.933594 120.222656 426.933594 124.722656 "/>
<path style=" stroke:none;fill-rule:nonzero;fill:rgb(0%,44.705883%,69.803923%);fill-opacity:1;" d="M 370.003906 240.4375 C 370.003906 244.9375 363.253906 244.9375 363.253906 240.4375 C 363.253906 235.9375 370.003906 235.9375 370.003906 240.4375 "/>
<path style=" stroke:none;fill-rule:nonzero;fill:rgb(0%,44.705883%,69.803923%);fill-opacity:1;" d="M 406.964844 400.089844 C 406.964844 404.589844 400.214844 404.589844 400.214844 400.089844 C 400.214844 395.589844 406.964844 395.589844 406.964844 400.089844 "/>
<path style=" stroke:none;fill-rule:nonzero;fill:rgb(0%,44.705883%,69.803923%);fill-opacity:1;" d="M 247.996094 87.792969 C 247.996094 92.292969 241.246094 92.292969 241.246094 87.792969 C 241.246094 83.292969 247.996094 83.292969 247.996094 87.792969 "/>
<path style=" stroke:none;fill-rule:nonzero;fill:rgb(0%,44.705883%,69.803923%);fill-opacity:1;" d="M 286.476562 280.945312 C 286.476562 285.445312 279.726562 285.445312 279.726562 280.945312 C 279.726562 276.445312 286.476562 276.445312 286.476562 280.945312 "/>
<path style=" stroke:none;fill-rule:nonzero;fill:rgb(0%,44.705883%,69.803923%);fill-opacity:1;" d="M 362.789062 193.605469 C 362.789062 198.105469 356.039062 198.105469 356.039062 193.605469 C 356.039062 189.105469 362.789062 189.105469 362.789062 193.605469 "/>
<path style=" stroke:none;fill-rule:nonzero;fill:rgb(0%,44.705883%,69.803923%);fill-opacity:1;" d="M 154.085938 119.671875 C 154.085938 124.171875 147.335938 124.171875 147.335938 119.671875 C 147.335938 115.171875 154.085938 115.171875 154.085938 119.671875 "/>
<path style=" stroke:none;fill-rule:nonzero;fill:rgb(0%,44.705883%,69.803923%);fill-opacity:1;" d="M 72.078125 259.121094 C 72.078125 263.621094 65.328125 263.621094 65.328125 259.121094 C 65.328125 254.621094 72.078125 254.621094 72.078125 259.121094 "/>
<path style=" stroke:none;fill-rule:nonzero;fill:rgb(0%,44.705883%,69.803923%);fill-opacity:1;" d="M 167.710938 205.5625 C 167.710938 210.0625 160.960938 210.0625 160.960938 205.5625 C 160.960938 201.0625 167.710938 201.0625 167.710938 205.5625 "/>
<path style=" stroke:none;fill-rule:nonzero;fill:rgb(0%,44.705883%,69.803923%);fill-opacity:1;" d="M 322.109375 284.347656 C 322.109375 288.847656 315.359375 288.847656 315.359375 284.347656 C 315.359375 279.847656 322.109375 279.847656 322.109375 284.347656 "/>
<path style=" stroke:none;fill-rule:nonzero;fill:rgb(0%,44.705883%,69.803923%);fill-opacity:1;" d="M 347.332031 46.910156 C 347.332031 51.410156 340.582031 51.410156 340.582031 46.910156 C 340.582031 42.410156 347.332031 42.410156 347.332031 46.910156 "/>
<path style=" stroke:none;fill-rule:nonzero;fill:rgb(0%,44.705883%,69.803923%);fill-opacity:1;" d="M 130.957031 197.726562 C 130.957031 202.226562 124.207031 202.226562 124.207031 197.726562 C 124.207031 193.226562 130.957031 193.226562 130.957031 197.726562 "/>
<path style=" stroke:none;fill-rule:nonzero;fill:rgb(0%,44.705883%,69.803923%);fill-opacity:1;" d="M 256.550781 288.363281 C 256.550781 292.863281 249.800781 292.863281 249.800781 288.363281 C 249.800781 283.863281 256.550781 283.863281 256.550781 288.363281 "/>
<path style=" stroke:none;fill-rule:nonzero;fill:rgb(0%,44.705883%,69.803923%);fill-opacity:1;" d="M 231.5625 209.945312 C 231.5625 214.445312 224.8125 214.445312 224.8125 209.945312 C 224.8125 205.445312 231.5625 205.445312 231.5625 209.945312 "/>
<path style=" stroke:none;fill-rule:nonzero;fill:rgb(0%,44.705883%,69.803923%);fill-opacity:1;" d="M 196.3125 203.589844 C 196.3125 208.089844 189.5625 208.089844 189.5625 203.589844 C 189.5625 199.089844 196.3125 199.089844 196.3125 203.589844 "/>
<path style=" stroke:none;fill-rule:nonzero;fill:rgb(0%,44.705883%,69.803923%);fill-opacity:1;" d="M 344.746094 180.765625 C 344.746094 185.265625 337.996094 185.265625 337.996094 180.765625 C 337.996094 176.265625 344.746094 176.265625 344.746094 180.765625 "/>
<path style=" stroke:none;fill-rule:nonzero;fill:rgb(0%,44.705883%,69.803923%);fill-opacity:1;" d="M 296.457031 225.0625 C 296.457031 229.5625 289.707031 229.5625 289.707031 225.0625 C 289.707031 220.5625 296.457031 220.5625 296.457031 225.0625 "/>
<path style=" stroke:none;fill-rule:nonzero;fill:rgb(0%,44.705883%,69.803923%);fill-opacity:1;" d="M 389.789062 215.371094 C 389.789062 219.871094 383.039062 219.871094 383.039062 215.371094 C 383.039062 210.871094 389.789062 210.871094 389.789062 215.371094 "/>
<path style=" stroke:none;fill-rule:nonzero;fill:rgb(0%,44.705883%,69.803923%);fill-opacity:1;" d="M 330.484375 204.117188 C 330.484375 208.617188 323.734375 208.617188 323.734375 204.117188 C 323.734375 199.617188 330.484375 199.617188 330.484375 204.117188 "/>
<path style=" stroke:none;fill-rule:nonzero;fill:rgb(0%,44.705883%,69.803923%);fill-opacity:1;" d="M 270.238281 214.632812 C 270.238281 219.132812 263.488281 219.132812 263.488281 214.632812 C 263.488281 210.132812 270.238281 210.132812 270.238281 214.632812 "/>
<path style=" stroke:none;fill-rule:nonzero;fill:rgb(0%,44.705883%,69.803923%);fill-opacity:1;" d="M 336.65625 187.855469 C 336.65625 192.355469 329.90625 192.355469 329.90625 187.855469 C 329.90625 183.355469 336.65625 183.355469 336.65625 187.855469 "/>
<path style="fill:none;stroke-width:1;stroke-linecap:butt;stroke-linejoin:miter;stroke:rgb(0%,0%,0%);stroke-opacity:1;stroke-miterlimit:10;" d="M 78.958333 557.5 L 78.958333 563.5 " transform="matrix(0.75,0,0,0.75,0,0)"/>
<path style="fill:none;stroke-width:1;stroke-linecap:butt;stroke-linejoin:miter;stroke:rgb(0%,0%,0%);stroke-opacity:1;stroke-miterlimit:10;" d="M 224.59375 557.5 L 224.59375 563.5 " transform="matrix(0.75,0,0,0.75,0,0)"/>
<path style="fill:none;stroke-width:1;stroke-linecap:butt;stroke-linejoin:miter;stroke:rgb(0%,0%,0%);stroke-opacity:1;stroke-miterlimit:10;" d="M 370.229167 557.5 L 370.229167 563.5 " transform="matrix(0.75,0,0,0.75,0,0)"/>
<path style="fill:none;stroke-width:1;stroke-linecap:butt;stroke-linejoin:miter;stroke:rgb(0%,0%,0%);stroke-opacity:1;stroke-miterlimit:10;" d="M 515.864583 557.5 L 515.864583 563.5 " transform="matrix(0.75,0,0,0.75,0,0)"/>
<path style="fill:none;stroke-width:1;stroke-linecap:butt;stroke-linejoin:miter;stroke:rgb(0%,0%,0%);stroke-opacity:1;stroke-miterlimit:10;" d="M 661.505208 557.5 L 661.505208 563.5 " transform="matrix(0.75,0,0,0.75,0,0)"/>
<path style="fill:none;stroke-width:1;stroke-linecap:butt;stroke-linejoin:miter;stroke:rgb(0%,0%,0%);stroke-opacity:1;stroke-miterlimit:10;" d="M 39.5 452.421875 L 33.5 452.421875 " transform="matrix(0.75,0,0,0.75,0,0)"/>
<path style="fill:none;stroke-width:1;stroke-linecap:butt;stroke-linejoin:miter;stroke:rgb(0%,0%,0%);stroke-opacity:1;stroke-miterlimit:10;" d="M 39.5 265.255208 L 33.5 265.255208 " transform="matrix(0.75,0,0,0.75,0,0)"/>
<path style="fill:none;stroke-width:1;stroke-linecap:butt;stroke-linejoin:miter;stroke:rgb(0%,0%,0%);stroke-opacity:1;stroke-miterlimit:10;" d="M 39.5 78.088542 L 33.5 78.088542 " transform="matrix(0.75,0,0,0.75,0,0)"/>
<path style="fill:none;stroke-width:1;stroke-linecap:butt;stroke-linejoin:miter;stroke:rgb(0%,0%,0%);stroke-opacity:1;stroke-miterlimit:10;" d="M 39.5 557 L 784.5 557 " transform="matrix(0.75,0,0,0.75,0,0)"/>
<path style="fill:none;stroke-width:1;stroke-linecap:butt;stroke-linejoin:miter;stroke:rgb(0%,0%,0%);stroke-opacity:1;stroke-miterlimit:10;" d="M 40 557.5 L 40 38.5 " transform="matrix(0.75,0,0,0.75,0,0)"/>
<path style="fill:none;stroke-width:1;stroke-linecap:butt;stroke-linejoin:miter;stroke:rgb(0%,0%,0%);stroke-opacity:1;stroke-miterlimit:10;" d="M 39.5 39 L 784.5 39 " transform="matrix(0.75,0,0,0.75,0,0)"/>
<path style="fill:none;stroke-width:1;stroke-linecap:butt;stroke-linejoin:miter;stroke:rgb(0%,0%,0%);stroke-opacity:1;stroke-miterlimit:10;" d="M 784 557.5 L 784 38.5 " transform="matrix(0.75,0,0,0.75,0,0)"/>
</g>
</svg>
