<?xml version="1.0" encoding="UTF-8"?>
<svg xmlns="http://www.w3.org/2000/svg" xmlns:xlink="http://www.w3.org/1999/xlink" width="600pt" height="450pt" viewBox="0 0 600 450" version="1.1">
<defs>
<g>
<symbol overflow="visible" id="hPAFJozi0-0">
<path style="stroke:none;" d="M 0.671875 2.390625 L 0.671875 -9.515625 L 7.421875 -9.515625 L 7.421875 2.390625 Z M 1.4375 1.640625 L 6.671875 1.640625 L 6.671875 -8.765625 L 1.4375 -8.765625 Z M 1.4375 1.640625 "/>
</symbol>
<symbol overflow="visible" id="hPAFJozi0-1">
<path style="stroke:none;" d="M 4.5625 1.984375 L 3.90625 1.984375 L 3.890625 0 C 3.429688 -0.0078125 2.96875 -0.0625 2.5 -0.15625 C 2.039062 -0.257812 1.582031 -0.410156 1.125 -0.609375 L 1.125 -1.796875 C 1.570312 -1.515625 2.023438 -1.300781 2.484375 -1.15625 C 2.941406 -1.007812 3.414062 -0.9375 3.90625 -0.9375 L 3.90625 -3.9375 C 2.9375 -4.09375 2.226562 -4.359375 1.78125 -4.734375 C 1.34375 -5.117188 1.125 -5.640625 1.125 -6.296875 C 1.125 -7.015625 1.363281 -7.578125 1.84375 -7.984375 C 2.320312 -8.398438 3.007812 -8.640625 3.90625 -8.703125 L 3.90625 -10.25 L 4.5625 -10.25 L 4.5625 -8.734375 C 4.96875 -8.710938 5.363281 -8.664062 5.75 -8.59375 C 6.132812 -8.53125 6.507812 -8.4375 6.875 -8.3125 L 6.875 -7.171875 C 6.507812 -7.347656 6.132812 -7.488281 5.75 -7.59375 C 5.363281 -7.695312 4.96875 -7.753906 4.5625 -7.765625 L 4.5625 -4.953125 C 5.5625 -4.796875 6.296875 -4.519531 6.765625 -4.125 C 7.234375 -3.738281 7.46875 -3.203125 7.46875 -2.515625 C 7.46875 -1.765625 7.21875 -1.175781 6.71875 -0.75 C 6.21875 -0.320312 5.5 -0.078125 4.5625 -0.015625 Z M 3.90625 -5.078125 L 3.90625 -7.78125 C 3.394531 -7.71875 3.003906 -7.570312 2.734375 -7.34375 C 2.460938 -7.113281 2.328125 -6.800781 2.328125 -6.40625 C 2.328125 -6.03125 2.453125 -5.738281 2.703125 -5.53125 C 2.953125 -5.320312 3.351562 -5.171875 3.90625 -5.078125 Z M 4.5625 -3.8125 L 4.5625 -0.953125 C 5.125 -1.023438 5.546875 -1.179688 5.828125 -1.421875 C 6.109375 -1.671875 6.25 -1.992188 6.25 -2.390625 C 6.25 -2.773438 6.113281 -3.082031 5.84375 -3.3125 C 5.570312 -3.539062 5.144531 -3.707031 4.5625 -3.8125 Z M 4.5625 -3.8125 "/>
</symbol>
<symbol overflow="visible" id="hPAFJozi0-2">
<path style="stroke:none;" d="M 1.125 -9.84375 L 4.546875 1.25 L 3.421875 1.25 L 0 -9.84375 Z M 1.125 -9.84375 "/>
</symbol>
<symbol overflow="visible" id="hPAFJozi0-3">
<path style="stroke:none;" d="M 6.875 2.234375 L 6.875 3.1875 L -0.125 3.1875 L -0.125 2.234375 Z M 6.875 2.234375 "/>
</symbol>
<symbol overflow="visible" id="hPAFJozi0-4">
<path style="stroke:none;" d="M 4.34375 0.6875 C 4 1.5625 3.664062 2.132812 3.34375 2.40625 C 3.019531 2.675781 2.582031 2.8125 2.03125 2.8125 L 1.0625 2.8125 L 1.0625 1.796875 L 1.78125 1.796875 C 2.113281 1.796875 2.367188 1.710938 2.546875 1.546875 C 2.734375 1.390625 2.941406 1.019531 3.171875 0.4375 L 3.390625 -0.125 L 0.40625 -7.390625 L 1.6875 -7.390625 L 4 -1.609375 L 6.296875 -7.390625 L 7.59375 -7.390625 Z M 4.34375 0.6875 "/>
</symbol>
<symbol overflow="visible" id="hPAFJozi0-5">
<path style="stroke:none;" d="M 1.6875 1.25 L 2.15625 1.25 C 2.769531 1.25 3.164062 1.15625 3.34375 0.96875 C 3.53125 0.78125 3.625 0.375 3.625 -0.25 L 3.625 -1.890625 C 3.625 -2.578125 3.722656 -3.078125 3.921875 -3.390625 C 4.117188 -3.703125 4.460938 -3.914062 4.953125 -4.03125 C 4.460938 -4.144531 4.117188 -4.359375 3.921875 -4.671875 C 3.722656 -4.984375 3.625 -5.484375 3.625 -6.171875 L 3.625 -7.8125 C 3.625 -8.425781 3.53125 -8.828125 3.34375 -9.015625 C 3.164062 -9.210938 2.769531 -9.3125 2.15625 -9.3125 L 1.6875 -9.3125 L 1.6875 -10.25 L 2.109375 -10.25 C 3.203125 -10.25 3.929688 -10.085938 4.296875 -9.765625 C 4.660156 -9.441406 4.84375 -8.796875 4.84375 -7.828125 L 4.84375 -6.25 C 4.84375 -5.59375 4.960938 -5.140625 5.203125 -4.890625 C 5.441406 -4.640625 5.875 -4.515625 6.5 -4.515625 L 6.90625 -4.515625 L 6.90625 -3.5625 L 6.5 -3.5625 C 5.875 -3.5625 5.441406 -3.429688 5.203125 -3.171875 C 4.960938 -2.921875 4.84375 -2.46875 4.84375 -1.8125 L 4.84375 -0.234375 C 4.84375 0.734375 4.660156 1.378906 4.296875 1.703125 C 3.929688 2.035156 3.203125 2.203125 2.109375 2.203125 L 1.6875 2.203125 Z M 1.6875 1.25 "/>
</symbol>
<symbol overflow="visible" id="hPAFJozi0-6">
<path style="stroke:none;" d="M 1.453125 -9.84375 L 6.6875 -9.84375 L 6.6875 -8.71875 L 2.671875 -8.71875 L 2.671875 -6.3125 C 2.867188 -6.375 3.0625 -6.421875 3.25 -6.453125 C 3.445312 -6.484375 3.644531 -6.5 3.84375 -6.5 C 4.9375 -6.5 5.800781 -6.195312 6.4375 -5.59375 C 7.082031 -5 7.40625 -4.1875 7.40625 -3.15625 C 7.40625 -2.09375 7.078125 -1.269531 6.421875 -0.6875 C 5.765625 -0.101562 4.832031 0.1875 3.625 0.1875 C 3.21875 0.1875 2.800781 0.148438 2.375 0.078125 C 1.945312 0.015625 1.503906 -0.0859375 1.046875 -0.234375 L 1.046875 -1.5625 C 1.441406 -1.351562 1.847656 -1.191406 2.265625 -1.078125 C 2.691406 -0.972656 3.140625 -0.921875 3.609375 -0.921875 C 4.367188 -0.921875 4.96875 -1.117188 5.40625 -1.515625 C 5.851562 -1.921875 6.078125 -2.46875 6.078125 -3.15625 C 6.078125 -3.84375 5.851562 -4.382812 5.40625 -4.78125 C 4.96875 -5.1875 4.367188 -5.390625 3.609375 -5.390625 C 3.253906 -5.390625 2.898438 -5.347656 2.546875 -5.265625 C 2.191406 -5.179688 1.828125 -5.054688 1.453125 -4.890625 Z M 1.453125 -9.84375 "/>
</symbol>
<symbol overflow="visible" id="hPAFJozi0-7">
<path style="stroke:none;" d="M 1.671875 -1.125 L 3.84375 -1.125 L 3.84375 -8.625 L 1.484375 -8.15625 L 1.484375 -9.359375 L 3.84375 -9.84375 L 5.171875 -9.84375 L 5.171875 -1.125 L 7.34375 -1.125 L 7.34375 0 L 1.671875 0 Z M 1.671875 -1.125 "/>
</symbol>
<symbol overflow="visible" id="hPAFJozi0-8">
<path style="stroke:none;" d="M 4.296875 -8.96875 C 3.609375 -8.96875 3.09375 -8.628906 2.75 -7.953125 C 2.40625 -7.273438 2.234375 -6.257812 2.234375 -4.90625 C 2.234375 -3.5625 2.40625 -2.550781 2.75 -1.875 C 3.09375 -1.195312 3.609375 -0.859375 4.296875 -0.859375 C 4.984375 -0.859375 5.5 -1.195312 5.84375 -1.875 C 6.1875 -2.550781 6.359375 -3.5625 6.359375 -4.90625 C 6.359375 -6.257812 6.1875 -7.273438 5.84375 -7.953125 C 5.5 -8.628906 4.984375 -8.96875 4.296875 -8.96875 Z M 4.296875 -10.015625 C 5.398438 -10.015625 6.238281 -9.578125 6.8125 -8.703125 C 7.394531 -7.835938 7.6875 -6.570312 7.6875 -4.90625 C 7.6875 -3.25 7.394531 -1.984375 6.8125 -1.109375 C 6.238281 -0.242188 5.398438 0.1875 4.296875 0.1875 C 3.191406 0.1875 2.347656 -0.242188 1.765625 -1.109375 C 1.179688 -1.984375 0.890625 -3.25 0.890625 -4.90625 C 0.890625 -6.570312 1.179688 -7.835938 1.765625 -8.703125 C 2.347656 -9.578125 3.191406 -10.015625 4.296875 -10.015625 Z M 4.296875 -10.015625 "/>
</symbol>
<symbol overflow="visible" id="hPAFJozi1-0">
<path style="stroke:none;" d="M 0.671875 2.390625 L 0.671875 -9.515625 L 7.421875 -9.515625 L 7.421875 2.390625 Z M 1.4375 1.640625 L 6.671875 1.640625 L 6.671875 -8.765625 L 1.4375 -8.765625 Z M 1.4375 1.640625 "/>
</symbol>
<symbol overflow="visible" id="hPAFJozi1-1">
<path style="stroke:none;" d="M 5.984375 -7.171875 L 5.984375 -6.015625 C 5.640625 -6.191406 5.28125 -6.320312 4.90625 -6.40625 C 4.539062 -6.5 4.160156 -6.546875 3.765625 -6.546875 C 3.160156 -6.546875 2.707031 -6.453125 2.40625 -6.265625 C 2.101562 -6.078125 1.953125 -5.800781 1.953125 -5.4375 C 1.953125 -5.15625 2.0625 -4.929688 2.28125 -4.765625 C 2.5 -4.609375 2.929688 -4.457031 3.578125 -4.3125 L 4 -4.21875 C 4.851562 -4.039062 5.460938 -3.78125 5.828125 -3.4375 C 6.191406 -3.101562 6.375 -2.632812 6.375 -2.03125 C 6.375 -1.351562 6.101562 -0.8125 5.5625 -0.40625 C 5.019531 -0.0078125 4.273438 0.1875 3.328125 0.1875 C 2.929688 0.1875 2.515625 0.144531 2.078125 0.0625 C 1.648438 -0.0078125 1.203125 -0.117188 0.734375 -0.265625 L 0.734375 -1.515625 C 1.179688 -1.285156 1.617188 -1.113281 2.046875 -1 C 2.484375 -0.882812 2.914062 -0.828125 3.34375 -0.828125 C 3.914062 -0.828125 4.351562 -0.921875 4.65625 -1.109375 C 4.96875 -1.304688 5.125 -1.582031 5.125 -1.9375 C 5.125 -2.269531 5.015625 -2.523438 4.796875 -2.703125 C 4.578125 -2.878906 4.085938 -3.046875 3.328125 -3.203125 L 2.90625 -3.3125 C 2.15625 -3.46875 1.613281 -3.707031 1.28125 -4.03125 C 0.945312 -4.363281 0.78125 -4.816406 0.78125 -5.390625 C 0.78125 -6.078125 1.023438 -6.609375 1.515625 -6.984375 C 2.015625 -7.367188 2.71875 -7.5625 3.625 -7.5625 C 4.070312 -7.5625 4.492188 -7.523438 4.890625 -7.453125 C 5.285156 -7.390625 5.648438 -7.296875 5.984375 -7.171875 Z M 5.984375 -7.171875 "/>
</symbol>
<symbol overflow="visible" id="hPAFJozi1-2">
<path style="stroke:none;" d="M 1.140625 -2.90625 L 1.140625 -7.390625 L 2.359375 -7.390625 L 2.359375 -2.953125 C 2.359375 -2.253906 2.492188 -1.726562 2.765625 -1.375 C 3.035156 -1.03125 3.445312 -0.859375 4 -0.859375 C 4.65625 -0.859375 5.171875 -1.066406 5.546875 -1.484375 C 5.929688 -1.898438 6.125 -2.472656 6.125 -3.203125 L 6.125 -7.390625 L 7.328125 -7.390625 L 7.328125 0 L 6.125 0 L 6.125 -1.140625 C 5.820312 -0.691406 5.476562 -0.359375 5.09375 -0.140625 C 4.707031 0.078125 4.253906 0.1875 3.734375 0.1875 C 2.890625 0.1875 2.242188 -0.0703125 1.796875 -0.59375 C 1.359375 -1.125 1.140625 -1.894531 1.140625 -2.90625 Z M 4.203125 -7.5625 Z M 4.203125 -7.5625 "/>
</symbol>
<symbol overflow="visible" id="hPAFJozi1-3">
<path style="stroke:none;" d="M 6.296875 -9.84375 L 9.875 -6.171875 L 8.5625 -6.171875 L 5.65625 -8.78125 L 2.75 -6.171875 L 1.4375 -6.171875 L 5.015625 -9.84375 Z M 6.296875 -9.84375 "/>
</symbol>
<symbol overflow="visible" id="hPAFJozi1-4">
<path style="stroke:none;" d="M 6.578125 -3.6875 C 6.578125 -4.570312 6.390625 -5.269531 6.015625 -5.78125 C 5.648438 -6.289062 5.148438 -6.546875 4.515625 -6.546875 C 3.867188 -6.546875 3.363281 -6.289062 3 -5.78125 C 2.632812 -5.269531 2.453125 -4.570312 2.453125 -3.6875 C 2.453125 -2.789062 2.632812 -2.085938 3 -1.578125 C 3.363281 -1.078125 3.867188 -0.828125 4.515625 -0.828125 C 5.148438 -0.828125 5.648438 -1.078125 6.015625 -1.578125 C 6.390625 -2.085938 6.578125 -2.789062 6.578125 -3.6875 Z M 2.453125 -6.265625 C 2.703125 -6.703125 3.019531 -7.023438 3.40625 -7.234375 C 3.800781 -7.453125 4.269531 -7.5625 4.8125 -7.5625 C 5.707031 -7.5625 6.429688 -7.203125 6.984375 -6.484375 C 7.546875 -5.773438 7.828125 -4.84375 7.828125 -3.6875 C 7.828125 -2.519531 7.546875 -1.582031 6.984375 -0.875 C 6.429688 -0.164062 5.707031 0.1875 4.8125 0.1875 C 4.269531 0.1875 3.800781 0.0820312 3.40625 -0.125 C 3.019531 -0.34375 2.703125 -0.671875 2.453125 -1.109375 L 2.453125 0 L 1.21875 0 L 1.21875 -10.25 L 2.453125 -10.25 Z M 2.453125 -6.265625 "/>
</symbol>
<symbol overflow="visible" id="hPAFJozi1-5">
<path style="stroke:none;" d="M 6.90625 1.25 L 6.90625 2.203125 L 6.5 2.203125 C 5.40625 2.203125 4.671875 2.035156 4.296875 1.703125 C 3.921875 1.378906 3.734375 0.734375 3.734375 -0.234375 L 3.734375 -1.8125 C 3.734375 -2.46875 3.613281 -2.921875 3.375 -3.171875 C 3.144531 -3.429688 2.71875 -3.5625 2.09375 -3.5625 L 1.6875 -3.5625 L 1.6875 -4.515625 L 2.09375 -4.515625 C 2.71875 -4.515625 3.144531 -4.640625 3.375 -4.890625 C 3.613281 -5.140625 3.734375 -5.59375 3.734375 -6.25 L 3.734375 -7.828125 C 3.734375 -8.796875 3.921875 -9.441406 4.296875 -9.765625 C 4.671875 -10.085938 5.40625 -10.25 6.5 -10.25 L 6.90625 -10.25 L 6.90625 -9.3125 L 6.453125 -9.3125 C 5.835938 -9.3125 5.429688 -9.210938 5.234375 -9.015625 C 5.046875 -8.828125 4.953125 -8.425781 4.953125 -7.8125 L 4.953125 -6.171875 C 4.953125 -5.484375 4.851562 -4.984375 4.65625 -4.671875 C 4.457031 -4.359375 4.113281 -4.144531 3.625 -4.03125 C 4.113281 -3.914062 4.457031 -3.703125 4.65625 -3.390625 C 4.851562 -3.078125 4.953125 -2.578125 4.953125 -1.890625 L 4.953125 -0.25 C 4.953125 0.363281 5.046875 0.765625 5.234375 0.953125 C 5.429688 1.148438 5.835938 1.25 6.453125 1.25 Z M 6.90625 1.25 "/>
</symbol>
<symbol overflow="visible" id="hPAFJozi1-6">
<path style="stroke:none;" d="M 7.40625 -7.390625 L 4.734375 -3.796875 L 7.546875 0 L 6.125 0 L 3.96875 -2.90625 L 1.8125 0 L 0.390625 0 L 3.25 -3.859375 L 0.640625 -7.390625 L 2.0625 -7.390625 L 4.015625 -4.75 L 5.984375 -7.390625 Z M 7.40625 -7.390625 "/>
</symbol>
<symbol overflow="visible" id="hPAFJozi2-0">
<path style="stroke:none;" d="M 0.671875 2.390625 L 0.671875 -9.515625 L 7.421875 -9.515625 L 7.421875 2.390625 Z M 1.4375 1.640625 L 6.671875 1.640625 L 6.671875 -8.765625 L 1.4375 -8.765625 Z M 1.4375 1.640625 "/>
</symbol>
<symbol overflow="visible" id="hPAFJozi2-1">
<path style="stroke:none;" d="M 7.015625 -5.96875 C 7.316406 -6.507812 7.675781 -6.910156 8.09375 -7.171875 C 8.519531 -7.429688 9.019531 -7.5625 9.59375 -7.5625 C 10.363281 -7.5625 10.957031 -7.289062 11.375 -6.75 C 11.789062 -6.21875 12 -5.453125 12 -4.453125 L 12 0 L 10.78125 0 L 10.78125 -4.421875 C 10.78125 -5.128906 10.65625 -5.648438 10.40625 -5.984375 C 10.15625 -6.328125 9.773438 -6.5 9.265625 -6.5 C 8.628906 -6.5 8.128906 -6.289062 7.765625 -5.875 C 7.398438 -5.457031 7.21875 -4.890625 7.21875 -4.171875 L 7.21875 0 L 6 0 L 6 -4.421875 C 6 -5.128906 5.875 -5.648438 5.625 -5.984375 C 5.375 -6.328125 4.988281 -6.5 4.46875 -6.5 C 3.851562 -6.5 3.363281 -6.289062 3 -5.875 C 2.632812 -5.457031 2.453125 -4.890625 2.453125 -4.171875 L 2.453125 0 L 1.21875 0 L 1.21875 -7.390625 L 2.453125 -7.390625 L 2.453125 -6.234375 C 2.722656 -6.691406 3.050781 -7.023438 3.4375 -7.234375 C 3.820312 -7.453125 4.28125 -7.5625 4.8125 -7.5625 C 5.351562 -7.5625 5.8125 -7.425781 6.1875 -7.15625 C 6.5625 -6.882812 6.835938 -6.488281 7.015625 -5.96875 Z M 7.015625 -5.96875 "/>
</symbol>
<symbol overflow="visible" id="hPAFJozi2-2">
<path style="stroke:none;" d="M 4.625 -3.71875 C 3.644531 -3.71875 2.96875 -3.601562 2.59375 -3.375 C 2.21875 -3.144531 2.03125 -2.765625 2.03125 -2.234375 C 2.03125 -1.796875 2.171875 -1.453125 2.453125 -1.203125 C 2.734375 -0.953125 3.117188 -0.828125 3.609375 -0.828125 C 4.273438 -0.828125 4.8125 -1.0625 5.21875 -1.53125 C 5.625 -2.007812 5.828125 -2.644531 5.828125 -3.4375 L 5.828125 -3.71875 Z M 7.046875 -4.21875 L 7.046875 0 L 5.828125 0 L 5.828125 -1.125 C 5.554688 -0.675781 5.210938 -0.34375 4.796875 -0.125 C 4.378906 0.0820312 3.875 0.1875 3.28125 0.1875 C 2.53125 0.1875 1.929688 -0.0195312 1.484375 -0.4375 C 1.035156 -0.863281 0.8125 -1.4375 0.8125 -2.15625 C 0.8125 -2.976562 1.085938 -3.597656 1.640625 -4.015625 C 2.203125 -4.441406 3.035156 -4.65625 4.140625 -4.65625 L 5.828125 -4.65625 L 5.828125 -4.78125 C 5.828125 -5.332031 5.644531 -5.757812 5.28125 -6.0625 C 4.914062 -6.375 4.398438 -6.53125 3.734375 -6.53125 C 3.316406 -6.53125 2.90625 -6.476562 2.5 -6.375 C 2.101562 -6.28125 1.71875 -6.128906 1.34375 -5.921875 L 1.34375 -7.046875 C 1.789062 -7.210938 2.222656 -7.335938 2.640625 -7.421875 C 3.054688 -7.515625 3.460938 -7.5625 3.859375 -7.5625 C 4.929688 -7.5625 5.726562 -7.285156 6.25 -6.734375 C 6.78125 -6.179688 7.046875 -5.34375 7.046875 -4.21875 Z M 7.046875 -4.21875 "/>
</symbol>
<symbol overflow="visible" id="hPAFJozi3-0">
<path style="stroke:none;" d="M 0.671875 2.390625 L 0.671875 -9.515625 L 7.421875 -9.515625 L 7.421875 2.390625 Z M 1.4375 1.640625 L 6.671875 1.640625 L 6.671875 -8.765625 L 1.4375 -8.765625 Z M 1.4375 1.640625 "/>
</symbol>
<symbol overflow="visible" id="hPAFJozi3-1">
<path style="stroke:none;" d="M 4.296875 -8.96875 C 3.609375 -8.96875 3.09375 -8.628906 2.75 -7.953125 C 2.40625 -7.273438 2.234375 -6.257812 2.234375 -4.90625 C 2.234375 -3.5625 2.40625 -2.550781 2.75 -1.875 C 3.09375 -1.195312 3.609375 -0.859375 4.296875 -0.859375 C 4.984375 -0.859375 5.5 -1.195312 5.84375 -1.875 C 6.1875 -2.550781 6.359375 -3.5625 6.359375 -4.90625 C 6.359375 -6.257812 6.1875 -7.273438 5.84375 -7.953125 C 5.5 -8.628906 4.984375 -8.96875 4.296875 -8.96875 Z M 4.296875 -10.015625 C 5.398438 -10.015625 6.238281 -9.578125 6.8125 -8.703125 C 7.394531 -7.835938 7.6875 -6.570312 7.6875 -4.90625 C 7.6875 -3.25 7.394531 -1.984375 6.8125 -1.109375 C 6.238281 -0.242188 5.398438 0.1875 4.296875 0.1875 C 3.191406 0.1875 2.347656 -0.242188 1.765625 -1.109375 C 1.179688 -1.984375 0.890625 -3.25 0.890625 -4.90625 C 0.890625 -6.570312 1.179688 -7.835938 1.765625 -8.703125 C 2.347656 -9.578125 3.191406 -10.015625 4.296875 -10.015625 Z M 4.296875 -10.015625 "/>
</symbol>
<symbol overflow="visible" id="hPAFJozi4-0">
<path style="stroke:none;" d="M 2.390625 -0.671875 L -9.515625 -0.671875 L -9.515625 -7.421875 L 2.390625 -7.421875 Z M 1.640625 -1.4375 L 1.640625 -6.671875 L -8.765625 -6.671875 L -8.765625 -1.4375 Z M 1.640625 -1.4375 "/>
</symbol>
<symbol overflow="visible" id="hPAFJozi4-1">
<path style="stroke:none;" d="M 1.984375 -4.5625 L 1.984375 -3.90625 L 0 -3.890625 C -0.0078125 -3.429688 -0.0625 -2.96875 -0.15625 -2.5 C -0.257812 -2.039062 -0.410156 -1.582031 -0.609375 -1.125 L -1.796875 -1.125 C -1.515625 -1.570312 -1.300781 -2.023438 -1.15625 -2.484375 C -1.007812 -2.941406 -0.9375 -3.414062 -0.9375 -3.90625 L -3.9375 -3.90625 C -4.09375 -2.9375 -4.359375 -2.226562 -4.734375 -1.78125 C -5.117188 -1.34375 -5.640625 -1.125 -6.296875 -1.125 C -7.015625 -1.125 -7.578125 -1.363281 -7.984375 -1.84375 C -8.398438 -2.320312 -8.640625 -3.007812 -8.703125 -3.90625 L -10.25 -3.90625 L -10.25 -4.5625 L -8.734375 -4.5625 C -8.710938 -4.96875 -8.664062 -5.363281 -8.59375 -5.75 C -8.53125 -6.132812 -8.4375 -6.507812 -8.3125 -6.875 L -7.171875 -6.875 C -7.347656 -6.507812 -7.488281 -6.132812 -7.59375 -5.75 C -7.695312 -5.363281 -7.753906 -4.96875 -7.765625 -4.5625 L -4.953125 -4.5625 C -4.796875 -5.5625 -4.519531 -6.296875 -4.125 -6.765625 C -3.738281 -7.234375 -3.203125 -7.46875 -2.515625 -7.46875 C -1.765625 -7.46875 -1.175781 -7.21875 -0.75 -6.71875 C -0.320312 -6.21875 -0.078125 -5.5 -0.015625 -4.5625 Z M -5.078125 -3.90625 L -7.78125 -3.90625 C -7.71875 -3.394531 -7.570312 -3.003906 -7.34375 -2.734375 C -7.113281 -2.460938 -6.800781 -2.328125 -6.40625 -2.328125 C -6.03125 -2.328125 -5.738281 -2.453125 -5.53125 -2.703125 C -5.320312 -2.953125 -5.171875 -3.351562 -5.078125 -3.90625 Z M -3.8125 -4.5625 L -0.953125 -4.5625 C -1.023438 -5.125 -1.179688 -5.546875 -1.421875 -5.828125 C -1.671875 -6.109375 -1.992188 -6.25 -2.390625 -6.25 C -2.773438 -6.25 -3.082031 -6.113281 -3.3125 -5.84375 C -3.539062 -5.570312 -3.707031 -5.144531 -3.8125 -4.5625 Z M -3.8125 -4.5625 "/>
</symbol>
<symbol overflow="visible" id="hPAFJozi5-0">
<path style="stroke:none;" d="M 2.390625 -0.671875 L -9.515625 -0.671875 L -9.515625 -7.421875 L 2.390625 -7.421875 Z M 1.640625 -1.4375 L 1.640625 -6.671875 L -8.765625 -6.671875 L -8.765625 -1.4375 Z M 1.640625 -1.4375 "/>
</symbol>
<symbol overflow="visible" id="hPAFJozi5-1">
<path style="stroke:none;" d="M -9.84375 -1.125 L 1.25 -4.546875 L 1.25 -3.421875 L -9.84375 0 Z M -9.84375 -1.125 "/>
</symbol>
<symbol overflow="visible" id="hPAFJozi6-0">
<path style="stroke:none;" d="M 2.390625 -0.671875 L -9.515625 -0.671875 L -9.515625 -7.421875 L 2.390625 -7.421875 Z M 1.640625 -1.4375 L 1.640625 -6.671875 L -8.765625 -6.671875 L -8.765625 -1.4375 Z M 1.640625 -1.4375 "/>
</symbol>
<symbol overflow="visible" id="hPAFJozi6-1">
<path style="stroke:none;" d="M -7.171875 -5.984375 L -6.015625 -5.984375 C -6.191406 -5.640625 -6.320312 -5.28125 -6.40625 -4.90625 C -6.5 -4.539062 -6.546875 -4.160156 -6.546875 -3.765625 C -6.546875 -3.160156 -6.453125 -2.707031 -6.265625 -2.40625 C -6.078125 -2.101562 -5.800781 -1.953125 -5.4375 -1.953125 C -5.15625 -1.953125 -4.929688 -2.0625 -4.765625 -2.28125 C -4.609375 -2.5 -4.457031 -2.929688 -4.3125 -3.578125 L -4.21875 -4 C -4.039062 -4.851562 -3.78125 -5.460938 -3.4375 -5.828125 C -3.101562 -6.191406 -2.632812 -6.375 -2.03125 -6.375 C -1.351562 -6.375 -0.8125 -6.101562 -0.40625 -5.5625 C -0.0078125 -5.019531 0.1875 -4.273438 0.1875 -3.328125 C 0.1875 -2.929688 0.144531 -2.515625 0.0625 -2.078125 C -0.0078125 -1.648438 -0.117188 -1.203125 -0.265625 -0.734375 L -1.515625 -0.734375 C -1.285156 -1.179688 -1.113281 -1.617188 -1 -2.046875 C -0.882812 -2.484375 -0.828125 -2.914062 -0.828125 -3.34375 C -0.828125 -3.914062 -0.921875 -4.351562 -1.109375 -4.65625 C -1.304688 -4.96875 -1.582031 -5.125 -1.9375 -5.125 C -2.269531 -5.125 -2.523438 -5.015625 -2.703125 -4.796875 C -2.878906 -4.578125 -3.046875 -4.085938 -3.203125 -3.328125 L -3.3125 -2.90625 C -3.46875 -2.15625 -3.707031 -1.613281 -4.03125 -1.28125 C -4.363281 -0.945312 -4.816406 -0.78125 -5.390625 -0.78125 C -6.078125 -0.78125 -6.609375 -1.023438 -6.984375 -1.515625 C -7.367188 -2.015625 -7.5625 -2.71875 -7.5625 -3.625 C -7.5625 -4.070312 -7.523438 -4.492188 -7.453125 -4.890625 C -7.390625 -5.285156 -7.296875 -5.648438 -7.171875 -5.984375 Z M -7.171875 -5.984375 "/>
</symbol>
<symbol overflow="visible" id="hPAFJozi7-0">
<path style="stroke:none;" d="M 2.390625 -0.671875 L -9.515625 -0.671875 L -9.515625 -7.421875 L 2.390625 -7.421875 Z M 1.640625 -1.4375 L 1.640625 -6.671875 L -8.765625 -6.671875 L -8.765625 -1.4375 Z M 1.640625 -1.4375 "/>
</symbol>
<symbol overflow="visible" id="hPAFJozi7-1">
<path style="stroke:none;" d="M -3.6875 -2 C -2.789062 -2 -2.085938 -2.179688 -1.578125 -2.546875 C -1.078125 -2.910156 -0.828125 -3.414062 -0.828125 -4.0625 C -0.828125 -4.695312 -1.078125 -5.195312 -1.578125 -5.5625 C -2.085938 -5.9375 -2.789062 -6.125 -3.6875 -6.125 C -4.570312 -6.125 -5.269531 -5.9375 -5.78125 -5.5625 C -6.289062 -5.195312 -6.546875 -4.695312 -6.546875 -4.0625 C -6.546875 -3.414062 -6.289062 -2.910156 -5.78125 -2.546875 C -5.269531 -2.179688 -4.570312 -2 -3.6875 -2 Z M -1.109375 -6.125 C -0.671875 -5.875 -0.34375 -5.550781 -0.125 -5.15625 C 0.0820312 -4.769531 0.1875 -4.304688 0.1875 -3.765625 C 0.1875 -2.867188 -0.164062 -2.140625 -0.875 -1.578125 C -1.582031 -1.023438 -2.519531 -0.75 -3.6875 -0.75 C -4.84375 -0.75 -5.773438 -1.023438 -6.484375 -1.578125 C -7.203125 -2.140625 -7.5625 -2.867188 -7.5625 -3.765625 C -7.5625 -4.304688 -7.453125 -4.769531 -7.234375 -5.15625 C -7.023438 -5.550781 -6.703125 -5.875 -6.265625 -6.125 L -7.390625 -6.125 L -7.390625 -7.34375 L 2.8125 -7.34375 L 2.8125 -6.125 Z M -1.109375 -6.125 "/>
</symbol>
<symbol overflow="visible" id="hPAFJozi7-2">
<path style="stroke:none;" d="M -6.25 -5.546875 C -6.332031 -5.410156 -6.390625 -5.257812 -6.421875 -5.09375 C -6.460938 -4.9375 -6.484375 -4.765625 -6.484375 -4.578125 C -6.484375 -3.890625 -6.257812 -3.363281 -5.8125 -3 C -5.363281 -2.632812 -4.722656 -2.453125 -3.890625 -2.453125 L 0 -2.453125 L 0 -1.21875 L -7.390625 -1.21875 L -7.390625 -2.453125 L -6.234375 -2.453125 C -6.679688 -2.703125 -7.015625 -3.03125 -7.234375 -3.4375 C -7.453125 -3.84375 -7.5625 -4.34375 -7.5625 -4.9375 C -7.5625 -5.019531 -7.554688 -5.109375 -7.546875 -5.203125 C -7.535156 -5.304688 -7.519531 -5.421875 -7.5 -5.546875 Z M -6.25 -5.546875 "/>
</symbol>
<symbol overflow="visible" id="hPAFJozi8-0">
<path style="stroke:none;" d="M 2.390625 -0.671875 L -9.515625 -0.671875 L -9.515625 -7.421875 L 2.390625 -7.421875 Z M 1.640625 -1.4375 L 1.640625 -6.671875 L -8.765625 -6.671875 L -8.765625 -1.4375 Z M 1.640625 -1.4375 "/>
</symbol>
<symbol overflow="visible" id="hPAFJozi8-1">
<path style="stroke:none;" d="M -9.484375 -2.46875 L -7.390625 -2.46875 L -7.390625 -4.96875 L -6.4375 -4.96875 L -6.4375 -2.46875 L -2.4375 -2.46875 C -1.832031 -2.46875 -1.441406 -2.550781 -1.265625 -2.71875 C -1.097656 -2.882812 -1.015625 -3.21875 -1.015625 -3.71875 L -1.015625 -4.96875 L 0 -4.96875 L 0 -3.71875 C 0 -2.789062 -0.171875 -2.144531 -0.515625 -1.78125 C -0.867188 -1.425781 -1.507812 -1.25 -2.4375 -1.25 L -6.4375 -1.25 L -6.4375 -0.359375 L -7.390625 -0.359375 L -7.390625 -1.25 L -9.484375 -1.25 Z M -9.484375 -2.46875 "/>
</symbol>
<symbol overflow="visible" id="hPAFJozi8-2">
<path style="stroke:none;" d="M 1.25 -6.90625 L 2.203125 -6.90625 L 2.203125 -6.5 C 2.203125 -5.40625 2.035156 -4.671875 1.703125 -4.296875 C 1.378906 -3.921875 0.734375 -3.734375 -0.234375 -3.734375 L -1.8125 -3.734375 C -2.46875 -3.734375 -2.921875 -3.613281 -3.171875 -3.375 C -3.429688 -3.144531 -3.5625 -2.71875 -3.5625 -2.09375 L -3.5625 -1.6875 L -4.515625 -1.6875 L -4.515625 -2.09375 C -4.515625 -2.71875 -4.640625 -3.144531 -4.890625 -3.375 C -5.140625 -3.613281 -5.59375 -3.734375 -6.25 -3.734375 L -7.828125 -3.734375 C -8.796875 -3.734375 -9.441406 -3.921875 -9.765625 -4.296875 C -10.085938 -4.671875 -10.25 -5.40625 -10.25 -6.5 L -10.25 -6.90625 L -9.3125 -6.90625 L -9.3125 -6.453125 C -9.3125 -5.835938 -9.210938 -5.429688 -9.015625 -5.234375 C -8.828125 -5.046875 -8.425781 -4.953125 -7.8125 -4.953125 L -6.171875 -4.953125 C -5.484375 -4.953125 -4.984375 -4.851562 -4.671875 -4.65625 C -4.359375 -4.457031 -4.144531 -4.113281 -4.03125 -3.625 C -3.914062 -4.113281 -3.703125 -4.457031 -3.390625 -4.65625 C -3.078125 -4.851562 -2.578125 -4.953125 -1.890625 -4.953125 L -0.25 -4.953125 C 0.363281 -4.953125 0.765625 -5.046875 0.953125 -5.234375 C 1.148438 -5.429688 1.25 -5.835938 1.25 -6.453125 Z M 1.25 -6.90625 "/>
</symbol>
<symbol overflow="visible" id="hPAFJozi8-3">
<path style="stroke:none;" d="M -6.25 -5.546875 C -6.332031 -5.410156 -6.390625 -5.257812 -6.421875 -5.09375 C -6.460938 -4.9375 -6.484375 -4.765625 -6.484375 -4.578125 C -6.484375 -3.890625 -6.257812 -3.363281 -5.8125 -3 C -5.363281 -2.632812 -4.722656 -2.453125 -3.890625 -2.453125 L 0 -2.453125 L 0 -1.21875 L -7.390625 -1.21875 L -7.390625 -2.453125 L -6.234375 -2.453125 C -6.679688 -2.703125 -7.015625 -3.03125 -7.234375 -3.4375 C -7.453125 -3.84375 -7.5625 -4.34375 -7.5625 -4.9375 C -7.5625 -5.019531 -7.554688 -5.109375 -7.546875 -5.203125 C -7.535156 -5.304688 -7.519531 -5.421875 -7.5 -5.546875 Z M -6.25 -5.546875 "/>
</symbol>
<symbol overflow="visible" id="hPAFJozi8-4">
<path style="stroke:none;" d="M -3.71875 -4.625 C -3.71875 -3.644531 -3.601562 -2.96875 -3.375 -2.59375 C -3.144531 -2.21875 -2.765625 -2.03125 -2.234375 -2.03125 C -1.796875 -2.03125 -1.453125 -2.171875 -1.203125 -2.453125 C -0.953125 -2.734375 -0.828125 -3.117188 -0.828125 -3.609375 C -0.828125 -4.273438 -1.0625 -4.8125 -1.53125 -5.21875 C -2.007812 -5.625 -2.644531 -5.828125 -3.4375 -5.828125 L -3.71875 -5.828125 Z M -4.21875 -7.046875 L 0 -7.046875 L 0 -5.828125 L -1.125 -5.828125 C -0.675781 -5.554688 -0.34375 -5.210938 -0.125 -4.796875 C 0.0820312 -4.378906 0.1875 -3.875 0.1875 -3.28125 C 0.1875 -2.53125 -0.0195312 -1.929688 -0.4375 -1.484375 C -0.863281 -1.035156 -1.4375 -0.8125 -2.15625 -0.8125 C -2.976562 -0.8125 -3.597656 -1.085938 -4.015625 -1.640625 C -4.441406 -2.203125 -4.65625 -3.035156 -4.65625 -4.140625 L -4.65625 -5.828125 L -4.78125 -5.828125 C -5.332031 -5.828125 -5.757812 -5.644531 -6.0625 -5.28125 C -6.375 -4.914062 -6.53125 -4.398438 -6.53125 -3.734375 C -6.53125 -3.316406 -6.476562 -2.90625 -6.375 -2.5 C -6.28125 -2.101562 -6.128906 -1.71875 -5.921875 -1.34375 L -7.046875 -1.34375 C -7.210938 -1.789062 -7.335938 -2.222656 -7.421875 -2.640625 C -7.515625 -3.054688 -7.5625 -3.460938 -7.5625 -3.859375 C -7.5625 -4.929688 -7.285156 -5.726562 -6.734375 -6.25 C -6.179688 -6.78125 -5.34375 -7.046875 -4.21875 -7.046875 Z M -4.21875 -7.046875 "/>
</symbol>
<symbol overflow="visible" id="hPAFJozi9-0">
<path style="stroke:none;" d="M 2.390625 -0.671875 L -9.515625 -0.671875 L -9.515625 -7.421875 L 2.390625 -7.421875 Z M 1.640625 -1.4375 L 1.640625 -6.671875 L -8.765625 -6.671875 L -8.765625 -1.4375 Z M 1.640625 -1.4375 "/>
</symbol>
<symbol overflow="visible" id="hPAFJozi9-1">
<path style="stroke:none;" d="M -9.84375 -1.125 L 1.25 -4.546875 L 1.25 -3.421875 L -9.84375 0 Z M -9.84375 -1.125 "/>
</symbol>
<symbol overflow="visible" id="hPAFJozi9-2">
<path style="stroke:none;" d="M -7.09375 -6.578125 L -5.96875 -6.578125 C -6.15625 -6.242188 -6.296875 -5.898438 -6.390625 -5.546875 C -6.484375 -5.203125 -6.53125 -4.859375 -6.53125 -4.515625 C -6.53125 -3.722656 -6.28125 -3.109375 -5.78125 -2.671875 C -5.28125 -2.242188 -4.582031 -2.03125 -3.6875 -2.03125 C -2.78125 -2.03125 -2.078125 -2.242188 -1.578125 -2.671875 C -1.085938 -3.109375 -0.84375 -3.722656 -0.84375 -4.515625 C -0.84375 -4.859375 -0.890625 -5.203125 -0.984375 -5.546875 C -1.078125 -5.898438 -1.21875 -6.242188 -1.40625 -6.578125 L -0.28125 -6.578125 C -0.125 -6.242188 -0.0078125 -5.894531 0.0625 -5.53125 C 0.144531 -5.164062 0.1875 -4.78125 0.1875 -4.375 C 0.1875 -3.257812 -0.160156 -2.375 -0.859375 -1.71875 C -1.554688 -1.070312 -2.5 -0.75 -3.6875 -0.75 C -4.882812 -0.75 -5.828125 -1.078125 -6.515625 -1.734375 C -7.210938 -2.398438 -7.5625 -3.304688 -7.5625 -4.453125 C -7.5625 -4.828125 -7.519531 -5.191406 -7.4375 -5.546875 C -7.363281 -5.898438 -7.25 -6.242188 -7.09375 -6.578125 Z M -7.09375 -6.578125 "/>
</symbol>
<symbol overflow="visible" id="hPAFJozi10-0">
<path style="stroke:none;" d="M 2.390625 -0.671875 L -9.515625 -0.671875 L -9.515625 -7.421875 L 2.390625 -7.421875 Z M 1.640625 -1.4375 L 1.640625 -6.671875 L -8.765625 -6.671875 L -8.765625 -1.4375 Z M 1.640625 -1.4375 "/>
</symbol>
<symbol overflow="visible" id="hPAFJozi10-1">
<path style="stroke:none;" d="M -10.25 -5.015625 L -9.25 -5.015625 L -9.25 -3.84375 C -9.25 -3.414062 -9.160156 -3.113281 -8.984375 -2.9375 C -8.804688 -2.769531 -8.488281 -2.6875 -8.03125 -2.6875 L -7.390625 -2.6875 L -7.390625 -4.6875 L -6.4375 -4.6875 L -6.4375 -2.6875 L 0 -2.6875 L 0 -1.46875 L -6.4375 -1.46875 L -6.4375 -0.3125 L -7.390625 -0.3125 L -7.390625 -1.46875 L -7.890625 -1.46875 C -8.710938 -1.46875 -9.3125 -1.65625 -9.6875 -2.03125 C -10.0625 -2.414062 -10.25 -3.023438 -10.25 -3.859375 Z M -10.25 -5.015625 "/>
</symbol>
<symbol overflow="visible" id="hPAFJozi10-2">
<path style="stroke:none;" d="M 1.25 -1.6875 L 1.25 -2.15625 C 1.25 -2.769531 1.15625 -3.164062 0.96875 -3.34375 C 0.78125 -3.53125 0.375 -3.625 -0.25 -3.625 L -1.890625 -3.625 C -2.578125 -3.625 -3.078125 -3.722656 -3.390625 -3.921875 C -3.703125 -4.117188 -3.914062 -4.460938 -4.03125 -4.953125 C -4.144531 -4.460938 -4.359375 -4.117188 -4.671875 -3.921875 C -4.984375 -3.722656 -5.484375 -3.625 -6.171875 -3.625 L -7.8125 -3.625 C -8.425781 -3.625 -8.828125 -3.53125 -9.015625 -3.34375 C -9.210938 -3.164062 -9.3125 -2.769531 -9.3125 -2.15625 L -9.3125 -1.6875 L -10.25 -1.6875 L -10.25 -2.109375 C -10.25 -3.203125 -10.085938 -3.929688 -9.765625 -4.296875 C -9.441406 -4.660156 -8.796875 -4.84375 -7.828125 -4.84375 L -6.25 -4.84375 C -5.59375 -4.84375 -5.140625 -4.960938 -4.890625 -5.203125 C -4.640625 -5.441406 -4.515625 -5.875 -4.515625 -6.5 L -4.515625 -6.90625 L -3.5625 -6.90625 L -3.5625 -6.5 C -3.5625 -5.875 -3.429688 -5.441406 -3.171875 -5.203125 C -2.921875 -4.960938 -2.46875 -4.84375 -1.8125 -4.84375 L -0.234375 -4.84375 C 0.734375 -4.84375 1.378906 -4.660156 1.703125 -4.296875 C 2.035156 -3.929688 2.203125 -3.203125 2.203125 -2.109375 L 2.203125 -1.6875 Z M 1.25 -1.6875 "/>
</symbol>
<symbol overflow="visible" id="hPAFJozi10-3">
<path style="stroke:none;" d="M -3.6875 -6.578125 C -4.570312 -6.578125 -5.269531 -6.390625 -5.78125 -6.015625 C -6.289062 -5.648438 -6.546875 -5.148438 -6.546875 -4.515625 C -6.546875 -3.867188 -6.289062 -3.363281 -5.78125 -3 C -5.269531 -2.632812 -4.570312 -2.453125 -3.6875 -2.453125 C -2.789062 -2.453125 -2.085938 -2.632812 -1.578125 -3 C -1.078125 -3.363281 -0.828125 -3.867188 -0.828125 -4.515625 C -0.828125 -5.148438 -1.078125 -5.648438 -1.578125 -6.015625 C -2.085938 -6.390625 -2.789062 -6.578125 -3.6875 -6.578125 Z M -6.265625 -2.453125 C -6.703125 -2.703125 -7.023438 -3.019531 -7.234375 -3.40625 C -7.453125 -3.800781 -7.5625 -4.269531 -7.5625 -4.8125 C -7.5625 -5.707031 -7.203125 -6.429688 -6.484375 -6.984375 C -5.773438 -7.546875 -4.84375 -7.828125 -3.6875 -7.828125 C -2.519531 -7.828125 -1.582031 -7.546875 -0.875 -6.984375 C -0.164062 -6.429688 0.1875 -5.707031 0.1875 -4.8125 C 0.1875 -4.269531 0.0820312 -3.800781 -0.125 -3.40625 C -0.34375 -3.019531 -0.671875 -2.703125 -1.109375 -2.453125 L 0 -2.453125 L 0 -1.21875 L -10.25 -1.21875 L -10.25 -2.453125 Z M -6.265625 -2.453125 "/>
</symbol>
<symbol overflow="visible" id="hPAFJozi11-0">
<path style="stroke:none;" d="M 2.390625 -0.671875 L -9.515625 -0.671875 L -9.515625 -7.421875 L 2.390625 -7.421875 Z M 1.640625 -1.4375 L 1.640625 -6.671875 L -8.765625 -6.671875 L -8.765625 -1.4375 Z M 1.640625 -1.4375 "/>
</symbol>
<symbol overflow="visible" id="hPAFJozi11-1">
<path style="stroke:none;" d="M -3.71875 -4.625 C -3.71875 -3.644531 -3.601562 -2.96875 -3.375 -2.59375 C -3.144531 -2.21875 -2.765625 -2.03125 -2.234375 -2.03125 C -1.796875 -2.03125 -1.453125 -2.171875 -1.203125 -2.453125 C -0.953125 -2.734375 -0.828125 -3.117188 -0.828125 -3.609375 C -0.828125 -4.273438 -1.0625 -4.8125 -1.53125 -5.21875 C -2.007812 -5.625 -2.644531 -5.828125 -3.4375 -5.828125 L -3.71875 -5.828125 Z M -4.21875 -7.046875 L 0 -7.046875 L 0 -5.828125 L -1.125 -5.828125 C -0.675781 -5.554688 -0.34375 -5.210938 -0.125 -4.796875 C 0.0820312 -4.378906 0.1875 -3.875 0.1875 -3.28125 C 0.1875 -2.53125 -0.0195312 -1.929688 -0.4375 -1.484375 C -0.863281 -1.035156 -1.4375 -0.8125 -2.15625 -0.8125 C -2.976562 -0.8125 -3.597656 -1.085938 -4.015625 -1.640625 C -4.441406 -2.203125 -4.65625 -3.035156 -4.65625 -4.140625 L -4.65625 -5.828125 L -4.78125 -5.828125 C -5.332031 -5.828125 -5.757812 -5.644531 -6.0625 -5.28125 C -6.375 -4.914062 -6.53125 -4.398438 -6.53125 -3.734375 C -6.53125 -3.316406 -6.476562 -2.90625 -6.375 -2.5 C -6.28125 -2.101562 -6.128906 -1.71875 -5.921875 -1.34375 L -7.046875 -1.34375 C -7.210938 -1.789062 -7.335938 -2.222656 -7.421875 -2.640625 C -7.515625 -3.054688 -7.5625 -3.460938 -7.5625 -3.859375 C -7.5625 -4.929688 -7.285156 -5.726562 -6.734375 -6.25 C -6.179688 -6.78125 -5.34375 -7.046875 -4.21875 -7.046875 Z M -4.21875 -7.046875 "/>
</symbol>
<symbol overflow="visible" id="hPAFJozi11-2">
<path style="stroke:none;" d="M 1.25 -6.90625 L 2.203125 -6.90625 L 2.203125 -6.5 C 2.203125 -5.40625 2.035156 -4.671875 1.703125 -4.296875 C 1.378906 -3.921875 0.734375 -3.734375 -0.234375 -3.734375 L -1.8125 -3.734375 C -2.46875 -3.734375 -2.921875 -3.613281 -3.171875 -3.375 C -3.429688 -3.144531 -3.5625 -2.71875 -3.5625 -2.09375 L -3.5625 -1.6875 L -4.515625 -1.6875 L -4.515625 -2.09375 C -4.515625 -2.71875 -4.640625 -3.144531 -4.890625 -3.375 C -5.140625 -3.613281 -5.59375 -3.734375 -6.25 -3.734375 L -7.828125 -3.734375 C -8.796875 -3.734375 -9.441406 -3.921875 -9.765625 -4.296875 C -10.085938 -4.671875 -10.25 -5.40625 -10.25 -6.5 L -10.25 -6.90625 L -9.3125 -6.90625 L -9.3125 -6.453125 C -9.3125 -5.835938 -9.210938 -5.429688 -9.015625 -5.234375 C -8.828125 -5.046875 -8.425781 -4.953125 -7.8125 -4.953125 L -6.171875 -4.953125 C -5.484375 -4.953125 -4.984375 -4.851562 -4.671875 -4.65625 C -4.359375 -4.457031 -4.144531 -4.113281 -4.03125 -3.625 C -3.914062 -4.113281 -3.703125 -4.457031 -3.390625 -4.65625 C -3.078125 -4.851562 -2.578125 -4.953125 -1.890625 -4.953125 L -0.25 -4.953125 C 0.363281 -4.953125 0.765625 -5.046875 0.953125 -5.234375 C 1.148438 -5.429688 1.25 -5.835938 1.25 -6.453125 Z M 1.25 -6.90625 "/>
</symbol>
<symbol overflow="visible" id="hPAFJozi11-3">
<path style="stroke:none;" d="M 1.984375 -4.5625 L 1.984375 -3.90625 L 0 -3.890625 C -0.0078125 -3.429688 -0.0625 -2.96875 -0.15625 -2.5 C -0.257812 -2.039062 -0.410156 -1.582031 -0.609375 -1.125 L -1.796875 -1.125 C -1.515625 -1.570312 -1.300781 -2.023438 -1.15625 -2.484375 C -1.007812 -2.941406 -0.9375 -3.414062 -0.9375 -3.90625 L -3.9375 -3.90625 C -4.09375 -2.9375 -4.359375 -2.226562 -4.734375 -1.78125 C -5.117188 -1.34375 -5.640625 -1.125 -6.296875 -1.125 C -7.015625 -1.125 -7.578125 -1.363281 -7.984375 -1.84375 C -8.398438 -2.320312 -8.640625 -3.007812 -8.703125 -3.90625 L -10.25 -3.90625 L -10.25 -4.5625 L -8.734375 -4.5625 C -8.710938 -4.96875 -8.664062 -5.363281 -8.59375 -5.75 C -8.53125 -6.132812 -8.4375 -6.507812 -8.3125 -6.875 L -7.171875 -6.875 C -7.347656 -6.507812 -7.488281 -6.132812 -7.59375 -5.75 C -7.695312 -5.363281 -7.753906 -4.96875 -7.765625 -4.5625 L -4.953125 -4.5625 C -4.796875 -5.5625 -4.519531 -6.296875 -4.125 -6.765625 C -3.738281 -7.234375 -3.203125 -7.46875 -2.515625 -7.46875 C -1.765625 -7.46875 -1.175781 -7.21875 -0.75 -6.71875 C -0.320312 -6.21875 -0.078125 -5.5 -0.015625 -4.5625 Z M -5.078125 -3.90625 L -7.78125 -3.90625 C -7.71875 -3.394531 -7.570312 -3.003906 -7.34375 -2.734375 C -7.113281 -2.460938 -6.800781 -2.328125 -6.40625 -2.328125 C -6.03125 -2.328125 -5.738281 -2.453125 -5.53125 -2.703125 C -5.320312 -2.953125 -5.171875 -3.351562 -5.078125 -3.90625 Z M -3.8125 -4.5625 L -0.953125 -4.5625 C -1.023438 -5.125 -1.179688 -5.546875 -1.421875 -5.828125 C -1.671875 -6.109375 -1.992188 -6.25 -2.390625 -6.25 C -2.773438 -6.25 -3.082031 -6.113281 -3.3125 -5.84375 C -3.539062 -5.570312 -3.707031 -5.144531 -3.8125 -4.5625 Z M -3.8125 -4.5625 "/>
</symbol>
<symbol overflow="visible" id="hPAFJozi12-0">
<path style="stroke:none;" d="M 2.390625 -0.671875 L -9.515625 -0.671875 L -9.515625 -7.421875 L 2.390625 -7.421875 Z M 1.640625 -1.4375 L 1.640625 -6.671875 L -8.765625 -6.671875 L -8.765625 -1.4375 Z M 1.640625 -1.4375 "/>
</symbol>
<symbol overflow="visible" id="hPAFJozi12-1">
<path style="stroke:none;" d="M 1.25 -1.6875 L 1.25 -2.15625 C 1.25 -2.769531 1.15625 -3.164062 0.96875 -3.34375 C 0.78125 -3.53125 0.375 -3.625 -0.25 -3.625 L -1.890625 -3.625 C -2.578125 -3.625 -3.078125 -3.722656 -3.390625 -3.921875 C -3.703125 -4.117188 -3.914062 -4.460938 -4.03125 -4.953125 C -4.144531 -4.460938 -4.359375 -4.117188 -4.671875 -3.921875 C -4.984375 -3.722656 -5.484375 -3.625 -6.171875 -3.625 L -7.8125 -3.625 C -8.425781 -3.625 -8.828125 -3.53125 -9.015625 -3.34375 C -9.210938 -3.164062 -9.3125 -2.769531 -9.3125 -2.15625 L -9.3125 -1.6875 L -10.25 -1.6875 L -10.25 -2.109375 C -10.25 -3.203125 -10.085938 -3.929688 -9.765625 -4.296875 C -9.441406 -4.660156 -8.796875 -4.84375 -7.828125 -4.84375 L -6.25 -4.84375 C -5.59375 -4.84375 -5.140625 -4.960938 -4.890625 -5.203125 C -4.640625 -5.441406 -4.515625 -5.875 -4.515625 -6.5 L -4.515625 -6.90625 L -3.5625 -6.90625 L -3.5625 -6.5 C -3.5625 -5.875 -3.429688 -5.441406 -3.171875 -5.203125 C -2.921875 -4.960938 -2.46875 -4.84375 -1.8125 -4.84375 L -0.234375 -4.84375 C 0.734375 -4.84375 1.378906 -4.660156 1.703125 -4.296875 C 2.035156 -3.929688 2.203125 -3.203125 2.203125 -2.109375 L 2.203125 -1.6875 Z M 1.25 -1.6875 "/>
</symbol>
<symbol overflow="visible" id="hPAFJozi13-0">
<path style="stroke:none;" d="M 0.671875 2.390625 L 0.671875 -9.515625 L 7.421875 -9.515625 L 7.421875 2.390625 Z M 1.4375 1.640625 L 6.671875 1.640625 L 6.671875 -8.765625 L 1.4375 -8.765625 Z M 1.4375 1.640625 "/>
</symbol>
<symbol overflow="visible" id="hPAFJozi13-1">
<path style="stroke:none;" d="M 4.296875 -8.96875 C 3.609375 -8.96875 3.09375 -8.628906 2.75 -7.953125 C 2.40625 -7.273438 2.234375 -6.257812 2.234375 -4.90625 C 2.234375 -3.5625 2.40625 -2.550781 2.75 -1.875 C 3.09375 -1.195312 3.609375 -0.859375 4.296875 -0.859375 C 4.984375 -0.859375 5.5 -1.195312 5.84375 -1.875 C 6.1875 -2.550781 6.359375 -3.5625 6.359375 -4.90625 C 6.359375 -6.257812 6.1875 -7.273438 5.84375 -7.953125 C 5.5 -8.628906 4.984375 -8.96875 4.296875 -8.96875 Z M 4.296875 -10.015625 C 5.398438 -10.015625 6.238281 -9.578125 6.8125 -8.703125 C 7.394531 -7.835938 7.6875 -6.570312 7.6875 -4.90625 C 7.6875 -3.25 7.394531 -1.984375 6.8125 -1.109375 C 6.238281 -0.242188 5.398438 0.1875 4.296875 0.1875 C 3.191406 0.1875 2.347656 -0.242188 1.765625 -1.109375 C 1.179688 -1.984375 0.890625 -3.25 0.890625 -4.90625 C 0.890625 -6.570312 1.179688 -7.835938 1.765625 -8.703125 C 2.347656 -9.578125 3.191406 -10.015625 4.296875 -10.015625 Z M 4.296875 -10.015625 "/>
</symbol>
<symbol overflow="visible" id="hPAFJozi14-0">
<path style="stroke:none;" d="M 0.671875 2.390625 L 0.671875 -9.515625 L 7.421875 -9.515625 L 7.421875 2.390625 Z M 1.4375 1.640625 L 6.671875 1.640625 L 6.671875 -8.765625 L 1.4375 -8.765625 Z M 1.4375 1.640625 "/>
</symbol>
<symbol overflow="visible" id="hPAFJozi14-1">
<path style="stroke:none;" d="M 1.453125 -9.84375 L 6.6875 -9.84375 L 6.6875 -8.71875 L 2.671875 -8.71875 L 2.671875 -6.3125 C 2.867188 -6.375 3.0625 -6.421875 3.25 -6.453125 C 3.445312 -6.484375 3.644531 -6.5 3.84375 -6.5 C 4.9375 -6.5 5.800781 -6.195312 6.4375 -5.59375 C 7.082031 -5 7.40625 -4.1875 7.40625 -3.15625 C 7.40625 -2.09375 7.078125 -1.269531 6.421875 -0.6875 C 5.765625 -0.101562 4.832031 0.1875 3.625 0.1875 C 3.21875 0.1875 2.800781 0.148438 2.375 0.078125 C 1.945312 0.015625 1.503906 -0.0859375 1.046875 -0.234375 L 1.046875 -1.5625 C 1.441406 -1.351562 1.847656 -1.191406 2.265625 -1.078125 C 2.691406 -0.972656 3.140625 -0.921875 3.609375 -0.921875 C 4.367188 -0.921875 4.96875 -1.117188 5.40625 -1.515625 C 5.851562 -1.921875 6.078125 -2.46875 6.078125 -3.15625 C 6.078125 -3.84375 5.851562 -4.382812 5.40625 -4.78125 C 4.96875 -5.1875 4.367188 -5.390625 3.609375 -5.390625 C 3.253906 -5.390625 2.898438 -5.347656 2.546875 -5.265625 C 2.191406 -5.179688 1.828125 -5.054688 1.453125 -4.890625 Z M 1.453125 -9.84375 "/>
</symbol>
<symbol overflow="visible" id="hPAFJozi15-0">
<path style="stroke:none;" d="M 0.671875 2.390625 L 0.671875 -9.515625 L 7.421875 -9.515625 L 7.421875 2.390625 Z M 1.4375 1.640625 L 6.671875 1.640625 L 6.671875 -8.765625 L 1.4375 -8.765625 Z M 1.4375 1.640625 "/>
</symbol>
<symbol overflow="visible" id="hPAFJozi15-1">
<path style="stroke:none;" d="M 1.671875 -1.125 L 3.84375 -1.125 L 3.84375 -8.625 L 1.484375 -8.15625 L 1.484375 -9.359375 L 3.84375 -9.84375 L 5.171875 -9.84375 L 5.171875 -1.125 L 7.34375 -1.125 L 7.34375 0 L 1.671875 0 Z M 1.671875 -1.125 "/>
</symbol>
<symbol overflow="visible" id="hPAFJozi15-2">
<path style="stroke:none;" d="M 4.296875 -8.96875 C 3.609375 -8.96875 3.09375 -8.628906 2.75 -7.953125 C 2.40625 -7.273438 2.234375 -6.257812 2.234375 -4.90625 C 2.234375 -3.5625 2.40625 -2.550781 2.75 -1.875 C 3.09375 -1.195312 3.609375 -0.859375 4.296875 -0.859375 C 4.984375 -0.859375 5.5 -1.195312 5.84375 -1.875 C 6.1875 -2.550781 6.359375 -3.5625 6.359375 -4.90625 C 6.359375 -6.257812 6.1875 -7.273438 5.84375 -7.953125 C 5.5 -8.628906 4.984375 -8.96875 4.296875 -8.96875 Z M 4.296875 -10.015625 C 5.398438 -10.015625 6.238281 -9.578125 6.8125 -8.703125 C 7.394531 -7.835938 7.6875 -6.570312 7.6875 -4.90625 C 7.6875 -3.25 7.394531 -1.984375 6.8125 -1.109375 C 6.238281 -0.242188 5.398438 0.1875 4.296875 0.1875 C 3.191406 0.1875 2.347656 -0.242188 1.765625 -1.109375 C 1.179688 -1.984375 0.890625 -3.25 0.890625 -4.90625 C 0.890625 -6.570312 1.179688 -7.835938 1.765625 -8.703125 C 2.347656 -9.578125 3.191406 -10.015625 4.296875 -10.015625 Z M 4.296875 -10.015625 "/>
</symbol>
<symbol overflow="visible" id="hPAFJozi16-0">
<path style="stroke:none;" d="M 0.671875 2.390625 L 0.671875 -9.515625 L 7.421875 -9.515625 L 7.421875 2.390625 Z M 1.4375 1.640625 L 6.671875 1.640625 L 6.671875 -8.765625 L 1.4375 -8.765625 Z M 1.4375 1.640625 "/>
</symbol>
<symbol overflow="visible" id="hPAFJozi16-1">
<path style="stroke:none;" d="M 4.5625 1.984375 L 3.90625 1.984375 L 3.890625 0 C 3.429688 -0.0078125 2.96875 -0.0625 2.5 -0.15625 C 2.039062 -0.257812 1.582031 -0.410156 1.125 -0.609375 L 1.125 -1.796875 C 1.570312 -1.515625 2.023438 -1.300781 2.484375 -1.15625 C 2.941406 -1.007812 3.414062 -0.9375 3.90625 -0.9375 L 3.90625 -3.9375 C 2.9375 -4.09375 2.226562 -4.359375 1.78125 -4.734375 C 1.34375 -5.117188 1.125 -5.640625 1.125 -6.296875 C 1.125 -7.015625 1.363281 -7.578125 1.84375 -7.984375 C 2.320312 -8.398438 3.007812 -8.640625 3.90625 -8.703125 L 3.90625 -10.25 L 4.5625 -10.25 L 4.5625 -8.734375 C 4.96875 -8.710938 5.363281 -8.664062 5.75 -8.59375 C 6.132812 -8.53125 6.507812 -8.4375 6.875 -8.3125 L 6.875 -7.171875 C 6.507812 -7.347656 6.132812 -7.488281 5.75 -7.59375 C 5.363281 -7.695312 4.96875 -7.753906 4.5625 -7.765625 L 4.5625 -4.953125 C 5.5625 -4.796875 6.296875 -4.519531 6.765625 -4.125 C 7.234375 -3.738281 7.46875 -3.203125 7.46875 -2.515625 C 7.46875 -1.765625 7.21875 -1.175781 6.71875 -0.75 C 6.21875 -0.320312 5.5 -0.078125 4.5625 -0.015625 Z M 3.90625 -5.078125 L 3.90625 -7.78125 C 3.394531 -7.71875 3.003906 -7.570312 2.734375 -7.34375 C 2.460938 -7.113281 2.328125 -6.800781 2.328125 -6.40625 C 2.328125 -6.03125 2.453125 -5.738281 2.703125 -5.53125 C 2.953125 -5.320312 3.351562 -5.171875 3.90625 -5.078125 Z M 4.5625 -3.8125 L 4.5625 -0.953125 C 5.125 -1.023438 5.546875 -1.179688 5.828125 -1.421875 C 6.109375 -1.671875 6.25 -1.992188 6.25 -2.390625 C 6.25 -2.773438 6.113281 -3.082031 5.84375 -3.3125 C 5.570312 -3.539062 5.144531 -3.707031 4.5625 -3.8125 Z M 4.5625 -3.8125 "/>
</symbol>
<symbol overflow="visible" id="hPAFJozi16-2">
<path style="stroke:none;" d="M 5.015625 -10.25 L 5.015625 -9.25 L 3.84375 -9.25 C 3.414062 -9.25 3.113281 -9.160156 2.9375 -8.984375 C 2.769531 -8.804688 2.6875 -8.488281 2.6875 -8.03125 L 2.6875 -7.390625 L 4.6875 -7.390625 L 4.6875 -6.4375 L 2.6875 -6.4375 L 2.6875 0 L 1.46875 0 L 1.46875 -6.4375 L 0.3125 -6.4375 L 0.3125 -7.390625 L 1.46875 -7.390625 L 1.46875 -7.890625 C 1.46875 -8.710938 1.65625 -9.3125 2.03125 -9.6875 C 2.414062 -10.0625 3.023438 -10.25 3.859375 -10.25 Z M 5.015625 -10.25 "/>
</symbol>
<symbol overflow="visible" id="hPAFJozi16-3">
<path style="stroke:none;" d="M 4.625 -3.71875 C 3.644531 -3.71875 2.96875 -3.601562 2.59375 -3.375 C 2.21875 -3.144531 2.03125 -2.765625 2.03125 -2.234375 C 2.03125 -1.796875 2.171875 -1.453125 2.453125 -1.203125 C 2.734375 -0.953125 3.117188 -0.828125 3.609375 -0.828125 C 4.273438 -0.828125 4.8125 -1.0625 5.21875 -1.53125 C 5.625 -2.007812 5.828125 -2.644531 5.828125 -3.4375 L 5.828125 -3.71875 Z M 7.046875 -4.21875 L 7.046875 0 L 5.828125 0 L 5.828125 -1.125 C 5.554688 -0.675781 5.210938 -0.34375 4.796875 -0.125 C 4.378906 0.0820312 3.875 0.1875 3.28125 0.1875 C 2.53125 0.1875 1.929688 -0.0195312 1.484375 -0.4375 C 1.035156 -0.863281 0.8125 -1.4375 0.8125 -2.15625 C 0.8125 -2.976562 1.085938 -3.597656 1.640625 -4.015625 C 2.203125 -4.441406 3.035156 -4.65625 4.140625 -4.65625 L 5.828125 -4.65625 L 5.828125 -4.78125 C 5.828125 -5.332031 5.644531 -5.757812 5.28125 -6.0625 C 4.914062 -6.375 4.398438 -6.53125 3.734375 -6.53125 C 3.316406 -6.53125 2.90625 -6.476562 2.5 -6.375 C 2.101562 -6.28125 1.71875 -6.128906 1.34375 -5.921875 L 1.34375 -7.046875 C 1.789062 -7.210938 2.222656 -7.335938 2.640625 -7.421875 C 3.054688 -7.515625 3.460938 -7.5625 3.859375 -7.5625 C 4.929688 -7.5625 5.726562 -7.285156 6.25 -6.734375 C 6.78125 -6.179688 7.046875 -5.34375 7.046875 -4.21875 Z M 7.046875 -4.21875 "/>
</symbol>
<symbol overflow="visible" id="hPAFJozi16-4">
<path style="stroke:none;" d="M 6.578125 -7.09375 L 6.578125 -5.96875 C 6.242188 -6.15625 5.898438 -6.296875 5.546875 -6.390625 C 5.203125 -6.484375 4.859375 -6.53125 4.515625 -6.53125 C 3.722656 -6.53125 3.109375 -6.28125 2.671875 -5.78125 C 2.242188 -5.28125 2.03125 -4.582031 2.03125 -3.6875 C 2.03125 -2.78125 2.242188 -2.078125 2.671875 -1.578125 C 3.109375 -1.085938 3.722656 -0.84375 4.515625 -0.84375 C 4.859375 -0.84375 5.203125 -0.890625 5.546875 -0.984375 C 5.898438 -1.078125 6.242188 -1.21875 6.578125 -1.40625 L 6.578125 -0.28125 C 6.242188 -0.125 5.894531 -0.0078125 5.53125 0.0625 C 5.164062 0.144531 4.78125 0.1875 4.375 0.1875 C 3.257812 0.1875 2.375 -0.160156 1.71875 -0.859375 C 1.070312 -1.554688 0.75 -2.5 0.75 -3.6875 C 0.75 -4.882812 1.078125 -5.828125 1.734375 -6.515625 C 2.398438 -7.210938 3.304688 -7.5625 4.453125 -7.5625 C 4.828125 -7.5625 5.191406 -7.519531 5.546875 -7.4375 C 5.898438 -7.363281 6.242188 -7.25 6.578125 -7.09375 Z M 6.578125 -7.09375 "/>
</symbol>
<symbol overflow="visible" id="hPAFJozi16-5">
<path style="stroke:none;" d="M 6.90625 1.25 L 6.90625 2.203125 L 6.5 2.203125 C 5.40625 2.203125 4.671875 2.035156 4.296875 1.703125 C 3.921875 1.378906 3.734375 0.734375 3.734375 -0.234375 L 3.734375 -1.8125 C 3.734375 -2.46875 3.613281 -2.921875 3.375 -3.171875 C 3.144531 -3.429688 2.71875 -3.5625 2.09375 -3.5625 L 1.6875 -3.5625 L 1.6875 -4.515625 L 2.09375 -4.515625 C 2.71875 -4.515625 3.144531 -4.640625 3.375 -4.890625 C 3.613281 -5.140625 3.734375 -5.59375 3.734375 -6.25 L 3.734375 -7.828125 C 3.734375 -8.796875 3.921875 -9.441406 4.296875 -9.765625 C 4.671875 -10.085938 5.40625 -10.25 6.5 -10.25 L 6.90625 -10.25 L 6.90625 -9.3125 L 6.453125 -9.3125 C 5.835938 -9.3125 5.429688 -9.210938 5.234375 -9.015625 C 5.046875 -8.828125 4.953125 -8.425781 4.953125 -7.8125 L 4.953125 -6.171875 C 4.953125 -5.484375 4.851562 -4.984375 4.65625 -4.671875 C 4.457031 -4.359375 4.113281 -4.144531 3.625 -4.03125 C 4.113281 -3.914062 4.457031 -3.703125 4.65625 -3.390625 C 4.851562 -3.078125 4.953125 -2.578125 4.953125 -1.890625 L 4.953125 -0.25 C 4.953125 0.363281 5.046875 0.765625 5.234375 0.953125 C 5.429688 1.148438 5.835938 1.25 6.453125 1.25 Z M 6.90625 1.25 "/>
</symbol>
<symbol overflow="visible" id="hPAFJozi16-6">
<path style="stroke:none;" d="M 7.40625 -7.390625 L 4.734375 -3.796875 L 7.546875 0 L 6.125 0 L 3.96875 -2.90625 L 1.8125 0 L 0.390625 0 L 3.25 -3.859375 L 0.640625 -7.390625 L 2.0625 -7.390625 L 4.015625 -4.75 L 5.984375 -7.390625 Z M 7.40625 -7.390625 "/>
</symbol>
<symbol overflow="visible" id="hPAFJozi16-7">
<path style="stroke:none;" d="M 4.34375 0.6875 C 4 1.5625 3.664062 2.132812 3.34375 2.40625 C 3.019531 2.675781 2.582031 2.8125 2.03125 2.8125 L 1.0625 2.8125 L 1.0625 1.796875 L 1.78125 1.796875 C 2.113281 1.796875 2.367188 1.710938 2.546875 1.546875 C 2.734375 1.390625 2.941406 1.019531 3.171875 0.4375 L 3.390625 -0.125 L 0.40625 -7.390625 L 1.6875 -7.390625 L 4 -1.609375 L 6.296875 -7.390625 L 7.59375 -7.390625 Z M 4.34375 0.6875 "/>
</symbol>
<symbol overflow="visible" id="hPAFJozi16-8">
<path style="stroke:none;" d="M 1.265625 -7.390625 L 2.484375 -7.390625 L 2.484375 0 L 1.265625 0 Z M 1.265625 -10.25 L 2.484375 -10.25 L 2.484375 -8.71875 L 1.265625 -8.71875 Z M 1.265625 -10.25 "/>
</symbol>
<symbol overflow="visible" id="hPAFJozi16-9">
<path style="stroke:none;" d="M 7.40625 -4.453125 L 7.40625 0 L 6.203125 0 L 6.203125 -4.421875 C 6.203125 -5.117188 6.0625 -5.640625 5.78125 -5.984375 C 5.507812 -6.328125 5.101562 -6.5 4.5625 -6.5 C 3.90625 -6.5 3.390625 -6.289062 3.015625 -5.875 C 2.640625 -5.457031 2.453125 -4.890625 2.453125 -4.171875 L 2.453125 0 L 1.21875 0 L 1.21875 -7.390625 L 2.453125 -7.390625 L 2.453125 -6.234375 C 2.734375 -6.679688 3.070312 -7.015625 3.46875 -7.234375 C 3.863281 -7.453125 4.316406 -7.5625 4.828125 -7.5625 C 5.679688 -7.5625 6.320312 -7.296875 6.75 -6.765625 C 7.1875 -6.242188 7.40625 -5.472656 7.40625 -4.453125 Z M 7.40625 -4.453125 "/>
</symbol>
<symbol overflow="visible" id="hPAFJozi16-10">
<path style="stroke:none;" d="M 1.21875 -10.25 L 2.453125 -10.25 L 2.453125 -4.203125 L 6.0625 -7.390625 L 7.609375 -7.390625 L 3.703125 -3.921875 L 7.78125 0 L 6.203125 0 L 2.453125 -3.609375 L 2.453125 0 L 1.21875 0 Z M 1.21875 -10.25 "/>
</symbol>
<symbol overflow="visible" id="hPAFJozi16-11">
<path style="stroke:none;" d="M 1.078125 -10.25 L 2.140625 -10.25 C 2.796875 -9.207031 3.285156 -8.1875 3.609375 -7.1875 C 3.941406 -6.195312 4.109375 -5.210938 4.109375 -4.234375 C 4.109375 -3.253906 3.941406 -2.265625 3.609375 -1.265625 C 3.285156 -0.265625 2.796875 0.75 2.140625 1.78125 L 1.078125 1.78125 C 1.660156 0.769531 2.097656 -0.226562 2.390625 -1.21875 C 2.679688 -2.21875 2.828125 -3.222656 2.828125 -4.234375 C 2.828125 -5.253906 2.679688 -6.257812 2.390625 -7.25 C 2.097656 -8.238281 1.660156 -9.238281 1.078125 -10.25 Z M 1.078125 -10.25 "/>
</symbol>
<symbol overflow="visible" id="hPAFJozi16-12">
<path style="stroke:none;" d="M 1.6875 1.25 L 2.15625 1.25 C 2.769531 1.25 3.164062 1.15625 3.34375 0.96875 C 3.53125 0.78125 3.625 0.375 3.625 -0.25 L 3.625 -1.890625 C 3.625 -2.578125 3.722656 -3.078125 3.921875 -3.390625 C 4.117188 -3.703125 4.460938 -3.914062 4.953125 -4.03125 C 4.460938 -4.144531 4.117188 -4.359375 3.921875 -4.671875 C 3.722656 -4.984375 3.625 -5.484375 3.625 -6.171875 L 3.625 -7.8125 C 3.625 -8.425781 3.53125 -8.828125 3.34375 -9.015625 C 3.164062 -9.210938 2.769531 -9.3125 2.15625 -9.3125 L 1.6875 -9.3125 L 1.6875 -10.25 L 2.109375 -10.25 C 3.203125 -10.25 3.929688 -10.085938 4.296875 -9.765625 C 4.660156 -9.441406 4.84375 -8.796875 4.84375 -7.828125 L 4.84375 -6.25 C 4.84375 -5.59375 4.960938 -5.140625 5.203125 -4.890625 C 5.441406 -4.640625 5.875 -4.515625 6.5 -4.515625 L 6.90625 -4.515625 L 6.90625 -3.5625 L 6.5 -3.5625 C 5.875 -3.5625 5.441406 -3.429688 5.203125 -3.171875 C 4.960938 -2.921875 4.84375 -2.46875 4.84375 -1.8125 L 4.84375 -0.234375 C 4.84375 0.734375 4.660156 1.378906 4.296875 1.703125 C 3.929688 2.035156 3.203125 2.203125 2.109375 2.203125 L 1.6875 2.203125 Z M 1.6875 1.25 "/>
</symbol>
<symbol overflow="visible" id="hPAFJozi17-0">
<path style="stroke:none;" d="M 0.671875 2.390625 L 0.671875 -9.515625 L 7.421875 -9.515625 L 7.421875 2.390625 Z M 1.4375 1.640625 L 6.671875 1.640625 L 6.671875 -8.765625 L 1.4375 -8.765625 Z M 1.4375 1.640625 "/>
</symbol>
<symbol overflow="visible" id="hPAFJozi17-1">
<path style="stroke:none;" d="M 1.125 -9.84375 L 4.546875 1.25 L 3.421875 1.25 L 0 -9.84375 Z M 1.125 -9.84375 "/>
</symbol>
<symbol overflow="visible" id="hPAFJozi17-2">
<path style="stroke:none;" d="M 5.546875 -6.25 C 5.410156 -6.332031 5.257812 -6.390625 5.09375 -6.421875 C 4.9375 -6.460938 4.765625 -6.484375 4.578125 -6.484375 C 3.890625 -6.484375 3.363281 -6.257812 3 -5.8125 C 2.632812 -5.363281 2.453125 -4.722656 2.453125 -3.890625 L 2.453125 0 L 1.21875 0 L 1.21875 -7.390625 L 2.453125 -7.390625 L 2.453125 -6.234375 C 2.703125 -6.679688 3.03125 -7.015625 3.4375 -7.234375 C 3.84375 -7.453125 4.34375 -7.5625 4.9375 -7.5625 C 5.019531 -7.5625 5.109375 -7.554688 5.203125 -7.546875 C 5.304688 -7.535156 5.421875 -7.519531 5.546875 -7.5 Z M 5.546875 -6.25 "/>
</symbol>
<symbol overflow="visible" id="hPAFJozi17-3">
<path style="stroke:none;" d="M 6.203125 -8.46875 L 6.203125 -4.796875 L 9.875 -4.796875 L 9.875 -3.671875 L 6.203125 -3.671875 L 6.203125 0 L 5.109375 0 L 5.109375 -3.671875 L 1.4375 -3.671875 L 1.4375 -4.796875 L 5.109375 -4.796875 L 5.109375 -8.46875 Z M 6.203125 -8.46875 "/>
</symbol>
<symbol overflow="visible" id="hPAFJozi17-4">
<path style="stroke:none;" d=""/>
</symbol>
<symbol overflow="visible" id="hPAFJozi17-5">
<path style="stroke:none;" d="M 1.6875 1.25 L 2.15625 1.25 C 2.769531 1.25 3.164062 1.15625 3.34375 0.96875 C 3.53125 0.78125 3.625 0.375 3.625 -0.25 L 3.625 -1.890625 C 3.625 -2.578125 3.722656 -3.078125 3.921875 -3.390625 C 4.117188 -3.703125 4.460938 -3.914062 4.953125 -4.03125 C 4.460938 -4.144531 4.117188 -4.359375 3.921875 -4.671875 C 3.722656 -4.984375 3.625 -5.484375 3.625 -6.171875 L 3.625 -7.8125 C 3.625 -8.425781 3.53125 -8.828125 3.34375 -9.015625 C 3.164062 -9.210938 2.769531 -9.3125 2.15625 -9.3125 L 1.6875 -9.3125 L 1.6875 -10.25 L 2.109375 -10.25 C 3.203125 -10.25 3.929688 -10.085938 4.296875 -9.765625 C 4.660156 -9.441406 4.84375 -8.796875 4.84375 -7.828125 L 4.84375 -6.25 C 4.84375 -5.59375 4.960938 -5.140625 5.203125 -4.890625 C 5.441406 -4.640625 5.875 -4.515625 6.5 -4.515625 L 6.90625 -4.515625 L 6.90625 -3.5625 L 6.5 -3.5625 C 5.875 -3.5625 5.441406 -3.429688 5.203125 -3.171875 C 4.960938 -2.921875 4.84375 -2.46875 4.84375 -1.8125 L 4.84375 -0.234375 C 4.84375 0.734375 4.660156 1.378906 4.296875 1.703125 C 3.929688 2.035156 3.203125 2.203125 2.109375 2.203125 L 1.6875 2.203125 Z M 1.6875 1.25 "/>
</symbol>
<symbol overflow="visible" id="hPAFJozi17-6">
<path style="stroke:none;" d="M 6.90625 1.25 L 6.90625 2.203125 L 6.5 2.203125 C 5.40625 2.203125 4.671875 2.035156 4.296875 1.703125 C 3.921875 1.378906 3.734375 0.734375 3.734375 -0.234375 L 3.734375 -1.8125 C 3.734375 -2.46875 3.613281 -2.921875 3.375 -3.171875 C 3.144531 -3.429688 2.71875 -3.5625 2.09375 -3.5625 L 1.6875 -3.5625 L 1.6875 -4.515625 L 2.09375 -4.515625 C 2.71875 -4.515625 3.144531 -4.640625 3.375 -4.890625 C 3.613281 -5.140625 3.734375 -5.59375 3.734375 -6.25 L 3.734375 -7.828125 C 3.734375 -8.796875 3.921875 -9.441406 4.296875 -9.765625 C 4.671875 -10.085938 5.40625 -10.25 6.5 -10.25 L 6.90625 -10.25 L 6.90625 -9.3125 L 6.453125 -9.3125 C 5.835938 -9.3125 5.429688 -9.210938 5.234375 -9.015625 C 5.046875 -8.828125 4.953125 -8.425781 4.953125 -7.8125 L 4.953125 -6.171875 C 4.953125 -5.484375 4.851562 -4.984375 4.65625 -4.671875 C 4.457031 -4.359375 4.113281 -4.144531 3.625 -4.03125 C 4.113281 -3.914062 4.457031 -3.703125 4.65625 -3.390625 C 4.851562 -3.078125 4.953125 -2.578125 4.953125 -1.890625 L 4.953125 -0.25 C 4.953125 0.363281 5.046875 0.765625 5.234375 0.953125 C 5.429688 1.148438 5.835938 1.25 6.453125 1.25 Z M 6.90625 1.25 "/>
</symbol>
<symbol overflow="visible" id="hPAFJozi17-7">
<path style="stroke:none;" d="M 5.984375 -7.171875 L 5.984375 -6.015625 C 5.640625 -6.191406 5.28125 -6.320312 4.90625 -6.40625 C 4.539062 -6.5 4.160156 -6.546875 3.765625 -6.546875 C 3.160156 -6.546875 2.707031 -6.453125 2.40625 -6.265625 C 2.101562 -6.078125 1.953125 -5.800781 1.953125 -5.4375 C 1.953125 -5.15625 2.0625 -4.929688 2.28125 -4.765625 C 2.5 -4.609375 2.929688 -4.457031 3.578125 -4.3125 L 4 -4.21875 C 4.851562 -4.039062 5.460938 -3.78125 5.828125 -3.4375 C 6.191406 -3.101562 6.375 -2.632812 6.375 -2.03125 C 6.375 -1.351562 6.101562 -0.8125 5.5625 -0.40625 C 5.019531 -0.0078125 4.273438 0.1875 3.328125 0.1875 C 2.929688 0.1875 2.515625 0.144531 2.078125 0.0625 C 1.648438 -0.0078125 1.203125 -0.117188 0.734375 -0.265625 L 0.734375 -1.515625 C 1.179688 -1.285156 1.617188 -1.113281 2.046875 -1 C 2.484375 -0.882812 2.914062 -0.828125 3.34375 -0.828125 C 3.914062 -0.828125 4.351562 -0.921875 4.65625 -1.109375 C 4.96875 -1.304688 5.125 -1.582031 5.125 -1.9375 C 5.125 -2.269531 5.015625 -2.523438 4.796875 -2.703125 C 4.578125 -2.878906 4.085938 -3.046875 3.328125 -3.203125 L 2.90625 -3.3125 C 2.15625 -3.46875 1.613281 -3.707031 1.28125 -4.03125 C 0.945312 -4.363281 0.78125 -4.816406 0.78125 -5.390625 C 0.78125 -6.078125 1.023438 -6.609375 1.515625 -6.984375 C 2.015625 -7.367188 2.71875 -7.5625 3.625 -7.5625 C 4.070312 -7.5625 4.492188 -7.523438 4.890625 -7.453125 C 5.285156 -7.390625 5.648438 -7.296875 5.984375 -7.171875 Z M 5.984375 -7.171875 "/>
</symbol>
<symbol overflow="visible" id="hPAFJozi17-8">
<path style="stroke:none;" d="M 6.296875 -9.84375 L 9.875 -6.171875 L 8.5625 -6.171875 L 5.65625 -8.78125 L 2.75 -6.171875 L 1.4375 -6.171875 L 5.015625 -9.84375 Z M 6.296875 -9.84375 "/>
</symbol>
<symbol overflow="visible" id="hPAFJozi17-9">
<path style="stroke:none;" d="M 2.59375 -1.125 L 7.234375 -1.125 L 7.234375 0 L 0.984375 0 L 0.984375 -1.125 C 1.492188 -1.644531 2.179688 -2.34375 3.046875 -3.21875 C 3.921875 -4.101562 4.472656 -4.675781 4.703125 -4.9375 C 5.128906 -5.414062 5.425781 -5.816406 5.59375 -6.140625 C 5.757812 -6.472656 5.84375 -6.800781 5.84375 -7.125 C 5.84375 -7.644531 5.660156 -8.070312 5.296875 -8.40625 C 4.929688 -8.738281 4.453125 -8.90625 3.859375 -8.90625 C 3.441406 -8.90625 3 -8.832031 2.53125 -8.6875 C 2.070312 -8.539062 1.582031 -8.316406 1.0625 -8.015625 L 1.0625 -9.359375 C 1.59375 -9.578125 2.085938 -9.738281 2.546875 -9.84375 C 3.015625 -9.957031 3.445312 -10.015625 3.84375 -10.015625 C 4.851562 -10.015625 5.660156 -9.757812 6.265625 -9.25 C 6.878906 -8.738281 7.1875 -8.0625 7.1875 -7.21875 C 7.1875 -6.8125 7.109375 -6.425781 6.953125 -6.0625 C 6.804688 -5.695312 6.53125 -5.269531 6.125 -4.78125 C 6.019531 -4.65625 5.671875 -4.285156 5.078125 -3.671875 C 4.492188 -3.066406 3.664062 -2.21875 2.59375 -1.125 Z M 2.59375 -1.125 "/>
</symbol>
<symbol overflow="visible" id="hPAFJozi18-0">
<path style="stroke:none;" d="M 0.671875 2.390625 L 0.671875 -9.515625 L 7.421875 -9.515625 L 7.421875 2.390625 Z M 1.4375 1.640625 L 6.671875 1.640625 L 6.671875 -8.765625 L 1.4375 -8.765625 Z M 1.4375 1.640625 "/>
</symbol>
<symbol overflow="visible" id="hPAFJozi18-1">
<path style="stroke:none;" d=""/>
</symbol>
<symbol overflow="visible" id="hPAFJozi18-2">
<path style="stroke:none;" d="M 4.1875 -10.25 C 3.59375 -9.238281 3.15625 -8.238281 2.875 -7.25 C 2.59375 -6.257812 2.453125 -5.253906 2.453125 -4.234375 C 2.453125 -3.222656 2.59375 -2.21875 2.875 -1.21875 C 3.164062 -0.226562 3.601562 0.769531 4.1875 1.78125 L 3.125 1.78125 C 2.46875 0.75 1.972656 -0.265625 1.640625 -1.265625 C 1.316406 -2.265625 1.15625 -3.253906 1.15625 -4.234375 C 1.15625 -5.210938 1.316406 -6.195312 1.640625 -7.1875 C 1.972656 -8.1875 2.46875 -9.207031 3.125 -10.25 Z M 4.1875 -10.25 "/>
</symbol>
</g>
</defs>
<g id="surface1">
<rect x="0" y="0" width="600" height="450" style="fill:rgb(100%,100%,100%);fill-opacity:1;stroke:none;"/>
<path style=" stroke:none;fill-rule:nonzero;fill:rgb(100%,100%,100%);fill-opacity:1;" d="M 54 398.25 L 588 398.25 L 588 30.75 L 54 30.75 Z M 54 398.25 "/>
<path style="fill:none;stroke-width:1;stroke-linecap:butt;stroke-linejoin:miter;stroke:rgb(0%,0%,0%);stroke-opacity:0.12;stroke-miterlimit:10;" d="M 72 531 L 72 41 " transform="matrix(0.75,0,0,0.75,0,0)"/>
<path style="fill:none;stroke-width:1;stroke-linecap:butt;stroke-linejoin:miter;stroke:rgb(0%,0%,0%);stroke-opacity:0.12;stroke-miterlimit:10;" d="M 428 531 L 428 41 " transform="matrix(0.75,0,0,0.75,0,0)"/>
<path style="fill:none;stroke-width:1;stroke-linecap:butt;stroke-linejoin:miter;stroke:rgb(0%,0%,0%);stroke-opacity:0.12;stroke-miterlimit:10;" d="M 784 531 L 784 41 " transform="matrix(0.75,0,0,0.75,0,0)"/>
<path style="fill:none;stroke-width:1;stroke-linecap:butt;stroke-linejoin:miter;stroke:rgb(0%,0%,0%);stroke-opacity:0.12;stroke-miterlimit:10;" d="M 72 531 L 784 531 " transform="matrix(0.75,0,0,0.75,0,0)"/>
<path style="fill:none;stroke-width:1;stroke-linecap:butt;stroke-linejoin:miter;stroke:rgb(0%,0%,0%);stroke-opacity:0.12;stroke-miterlimit:10;" d="M 72 286 L 784 286 " transform="matrix(0.75,0,0,0.75,0,0)"/>
<path style="fill:none;stroke-width:1;stroke-linecap:butt;stroke-linejoin:miter;stroke:rgb(0%,0%,0%);stroke-opacity:0.12;stroke-miterlimit:10;" d="M 72 41 L 784 41 " transform="matrix(0.75,0,0,0.75,0,0)"/>
<g style="fill:rgb(0%,0%,0%);fill-opacity:1;">
  <use xlink:href="#hPAFJozi0-1" x="262.296875" y="435.496094"/>
</g>
<g style="fill:rgb(0%,0%,0%);fill-opacity:1;">
  <use xlink:href="#hPAFJozi0-2" x="270.886719" y="435.496094"/>
</g>
<g style="fill:rgb(0%,0%,0%);fill-opacity:1;">
  <use xlink:href="#hPAFJozi1-1" x="275.433594" y="435.496094"/>
</g>
<g style="fill:rgb(0%,0%,0%);fill-opacity:1;">
  <use xlink:href="#hPAFJozi1-2" x="282.46875" y="435.496094"/>
</g>
<g style="fill:rgb(0%,0%,0%);fill-opacity:1;">
  <use xlink:href="#hPAFJozi2-1" x="291.023438" y="435.496094"/>
</g>
<g style="fill:rgb(0%,0%,0%);fill-opacity:1;">
  <use xlink:href="#hPAFJozi0-3" x="304.175781" y="435.496094"/>
</g>
<g style="fill:rgb(0%,0%,0%);fill-opacity:1;">
  <use xlink:href="#hPAFJozi2-2" x="310.925781" y="435.496094"/>
</g>
<g style="fill:rgb(0%,0%,0%);fill-opacity:1;">
  <use xlink:href="#hPAFJozi1-3" x="319.195312" y="435.496094"/>
</g>
<g style="fill:rgb(0%,0%,0%);fill-opacity:1;">
  <use xlink:href="#hPAFJozi1-4" x="330.507812" y="435.496094"/>
</g>
<g style="fill:rgb(0%,0%,0%);fill-opacity:1;">
  <use xlink:href="#hPAFJozi1-5" x="339.078125" y="435.496094"/>
</g>
<g style="fill:rgb(0%,0%,0%);fill-opacity:1;">
  <use xlink:href="#hPAFJozi1-6" x="347.667969" y="435.496094"/>
</g>
<g style="fill:rgb(0%,0%,0%);fill-opacity:1;">
  <use xlink:href="#hPAFJozi0-4" x="355.65625" y="435.496094"/>
</g>
<g style="fill:rgb(0%,0%,0%);fill-opacity:1;">
  <use xlink:href="#hPAFJozi0-5" x="363.644531" y="435.496094"/>
</g>
<g style="fill:rgb(0%,0%,0%);fill-opacity:1;">
  <use xlink:href="#hPAFJozi0-1" x="372.234375" y="435.496094"/>
</g>
<g style="fill:rgb(0%,0%,0%);fill-opacity:1;">
  <use xlink:href="#hPAFJozi3-1" x="50.152344" y="417.53125"/>
</g>
<g style="fill:rgb(0%,0%,0%);fill-opacity:1;">
  <use xlink:href="#hPAFJozi0-6" x="317.296875" y="417.53125"/>
</g>
<g style="fill:rgb(0%,0%,0%);fill-opacity:1;">
  <use xlink:href="#hPAFJozi0-7" x="579.5625" y="417.53125"/>
</g>
<g style="fill:rgb(0%,0%,0%);fill-opacity:1;">
  <use xlink:href="#hPAFJozi0-8" x="588.152344" y="417.53125"/>
</g>
<g style="fill:rgb(0%,0%,0%);fill-opacity:1;">
  <use xlink:href="#hPAFJozi4-1" x="23.867188" y="287.488281"/>
</g>
<g style="fill:rgb(0%,0%,0%);fill-opacity:1;">
  <use xlink:href="#hPAFJozi5-1" x="23.867188" y="278.898438"/>
</g>
<g style="fill:rgb(0%,0%,0%);fill-opacity:1;">
  <use xlink:href="#hPAFJozi6-1" x="23.867188" y="274.351562"/>
</g>
<g style="fill:rgb(0%,0%,0%);fill-opacity:1;">
  <use xlink:href="#hPAFJozi7-1" x="23.867188" y="267.316406"/>
</g>
<g style="fill:rgb(0%,0%,0%);fill-opacity:1;">
  <use xlink:href="#hPAFJozi7-2" x="23.867188" y="258.746094"/>
</g>
<g style="fill:rgb(0%,0%,0%);fill-opacity:1;">
  <use xlink:href="#hPAFJozi8-1" x="23.867188" y="253.195312"/>
</g>
<g style="fill:rgb(0%,0%,0%);fill-opacity:1;">
  <use xlink:href="#hPAFJozi8-2" x="23.867188" y="247.902344"/>
</g>
<g style="fill:rgb(0%,0%,0%);fill-opacity:1;">
  <use xlink:href="#hPAFJozi9-1" x="23.867188" y="239.316406"/>
</g>
<g style="fill:rgb(0%,0%,0%);fill-opacity:1;">
  <use xlink:href="#hPAFJozi10-1" x="23.867188" y="234.765625"/>
</g>
<g style="fill:rgb(0%,0%,0%);fill-opacity:1;">
  <use xlink:href="#hPAFJozi8-3" x="23.867188" y="230.015625"/>
</g>
<g style="fill:rgb(0%,0%,0%);fill-opacity:1;">
  <use xlink:href="#hPAFJozi8-4" x="23.867188" y="224.464844"/>
</g>
<g style="fill:rgb(0%,0%,0%);fill-opacity:1;">
  <use xlink:href="#hPAFJozi9-2" x="23.867188" y="216.191406"/>
</g>
<g style="fill:rgb(0%,0%,0%);fill-opacity:1;">
  <use xlink:href="#hPAFJozi8-2" x="23.867188" y="208.769531"/>
</g>
<g style="fill:rgb(0%,0%,0%);fill-opacity:1;">
  <use xlink:href="#hPAFJozi11-1" x="23.867188" y="200.179688"/>
</g>
<g style="fill:rgb(0%,0%,0%);fill-opacity:1;">
  <use xlink:href="#hPAFJozi10-2" x="23.867188" y="191.90625"/>
</g>
<g style="fill:rgb(0%,0%,0%);fill-opacity:1;">
  <use xlink:href="#hPAFJozi11-2" x="23.867188" y="183.316406"/>
</g>
<g style="fill:rgb(0%,0%,0%);fill-opacity:1;">
  <use xlink:href="#hPAFJozi10-3" x="23.867188" y="174.726562"/>
</g>
<g style="fill:rgb(0%,0%,0%);fill-opacity:1;">
  <use xlink:href="#hPAFJozi10-2" x="23.867188" y="166.160156"/>
</g>
<g style="fill:rgb(0%,0%,0%);fill-opacity:1;">
  <use xlink:href="#hPAFJozi12-1" x="23.867188" y="157.570312"/>
</g>
<g style="fill:rgb(0%,0%,0%);fill-opacity:1;">
  <use xlink:href="#hPAFJozi11-3" x="23.867188" y="148.980469"/>
</g>
<g style="fill:rgb(0%,0%,0%);fill-opacity:1;">
  <use xlink:href="#hPAFJozi13-1" x="38.945312" y="402.921875"/>
</g>
<g style="fill:rgb(0%,0%,0%);fill-opacity:1;">
  <use xlink:href="#hPAFJozi14-1" x="39.382812" y="219.171875"/>
</g>
<g style="fill:rgb(0%,0%,0%);fill-opacity:1;">
  <use xlink:href="#hPAFJozi15-1" x="30.359375" y="35.421875"/>
</g>
<g style="fill:rgb(0%,0%,0%);fill-opacity:1;">
  <use xlink:href="#hPAFJozi15-2" x="38.945312" y="35.421875"/>
</g>
<g style="fill:rgb(0%,0%,0%);fill-opacity:1;">
  <use xlink:href="#hPAFJozi16-1" x="231.511719" y="24.566406"/>
</g>
<g style="fill:rgb(0%,0%,0%);fill-opacity:1;">
  <use xlink:href="#hPAFJozi17-1" x="240.101562" y="24.566406"/>
</g>
<g style="fill:rgb(0%,0%,0%);fill-opacity:1;">
  <use xlink:href="#hPAFJozi16-2" x="244.652344" y="24.566406"/>
</g>
<g style="fill:rgb(0%,0%,0%);fill-opacity:1;">
  <use xlink:href="#hPAFJozi17-2" x="249.402344" y="24.566406"/>
</g>
<g style="fill:rgb(0%,0%,0%);fill-opacity:1;">
  <use xlink:href="#hPAFJozi16-3" x="254.953125" y="24.566406"/>
</g>
<g style="fill:rgb(0%,0%,0%);fill-opacity:1;">
  <use xlink:href="#hPAFJozi16-4" x="263.226562" y="24.566406"/>
</g>
<g style="fill:rgb(0%,0%,0%);fill-opacity:1;">
  <use xlink:href="#hPAFJozi16-5" x="270.648438" y="24.566406"/>
</g>
<g style="fill:rgb(0%,0%,0%);fill-opacity:1;">
  <use xlink:href="#hPAFJozi16-6" x="279.238281" y="24.566406"/>
</g>
<g style="fill:rgb(0%,0%,0%);fill-opacity:1;">
  <use xlink:href="#hPAFJozi18-1" x="287.226562" y="24.566406"/>
</g>
<g style="fill:rgb(0%,0%,0%);fill-opacity:1;">
  <use xlink:href="#hPAFJozi17-3" x="291.519531" y="24.566406"/>
</g>
<g style="fill:rgb(0%,0%,0%);fill-opacity:1;">
  <use xlink:href="#hPAFJozi17-4" x="302.828125" y="24.566406"/>
</g>
<g style="fill:rgb(0%,0%,0%);fill-opacity:1;">
  <use xlink:href="#hPAFJozi16-7" x="307.121094" y="24.566406"/>
</g>
<g style="fill:rgb(0%,0%,0%);fill-opacity:1;">
  <use xlink:href="#hPAFJozi17-5" x="315.109375" y="24.566406"/>
</g>
<g style="fill:rgb(0%,0%,0%);fill-opacity:1;">
  <use xlink:href="#hPAFJozi17-6" x="323.699219" y="24.566406"/>
</g>
<g style="fill:rgb(0%,0%,0%);fill-opacity:1;">
  <use xlink:href="#hPAFJozi17-1" x="332.289062" y="24.566406"/>
</g>
<g style="fill:rgb(0%,0%,0%);fill-opacity:1;">
  <use xlink:href="#hPAFJozi17-7" x="336.835938" y="24.566406"/>
</g>
<g style="fill:rgb(0%,0%,0%);fill-opacity:1;">
  <use xlink:href="#hPAFJozi16-8" x="343.871094" y="24.566406"/>
</g>
<g style="fill:rgb(0%,0%,0%);fill-opacity:1;">
  <use xlink:href="#hPAFJozi16-9" x="347.621094" y="24.566406"/>
</g>
<g style="fill:rgb(0%,0%,0%);fill-opacity:1;">
  <use xlink:href="#hPAFJozi18-2" x="356.175781" y="24.566406"/>
</g>
<g style="fill:rgb(0%,0%,0%);fill-opacity:1;">
  <use xlink:href="#hPAFJozi16-10" x="361.445312" y="24.566406"/>
</g>
<g style="fill:rgb(0%,0%,0%);fill-opacity:1;">
  <use xlink:href="#hPAFJozi17-8" x="369.261719" y="24.566406"/>
</g>
<g style="fill:rgb(0%,0%,0%);fill-opacity:1;">
  <use xlink:href="#hPAFJozi17-9" x="380.574219" y="24.566406"/>
</g>
<g style="fill:rgb(0%,0%,0%);fill-opacity:1;">
  <use xlink:href="#hPAFJozi16-11" x="389.164062" y="24.566406"/>
</g>
<g style="fill:rgb(0%,0%,0%);fill-opacity:1;">
  <use xlink:href="#hPAFJozi16-12" x="394.429688" y="24.566406"/>
</g>
<g style="fill:rgb(0%,0%,0%);fill-opacity:1;">
  <use xlink:href="#hPAFJozi16-1" x="403.019531" y="24.566406"/>
</g>
<path style="fill:none;stroke-width:1;stroke-linecap:butt;stroke-linejoin:miter;stroke:rgb(0%,0%,0%);stroke-opacity:1;stroke-miterlimit:10;" d="M 72 531.5 L 72 537.5 " transform="matrix(0.75,0,0,0.75,0,0)"/>
<path style="fill:none;stroke-width:1;stroke-linecap:butt;stroke-linejoin:miter;stroke:rgb(0%,0%,0%);stroke-opacity:1;stroke-miterlimit:10;" d="M 428 531.5 L 428 537.5 " transform="matrix(0.75,0,0,0.75,0,0)"/>
<path style="fill:none;stroke-width:1;stroke-linecap:butt;stroke-linejoin:miter;stroke:rgb(0%,0%,0%);stroke-opacity:1;stroke-miterlimit:10;" d="M 784 531.5 L 784 537.5 " transform="matrix(0.75,0,0,0.75,0,0)"/>
<path style="fill:none;stroke-width:1;stroke-linecap:butt;stroke-linejoin:miter;stroke:rgb(0%,0%,0%);stroke-opacity:1;stroke-miterlimit:10;" d="M 71.5 531 L 65.5 531 " transform="matrix(0.75,0,0,0.75,0,0)"/>
<path style="fill:none;stroke-width:1;stroke-linecap:butt;stroke-linejoin:miter;stroke:rgb(0%,0%,0%);stroke-opacity:1;stroke-miterlimit:10;" d="M 71.5 286 L 65.5 286 " transform="matrix(0.75,0,0,0.75,0,0)"/>
<path style="fill:none;stroke-width:1;stroke-linecap:butt;stroke-linejoin:miter;stroke:rgb(0%,0%,0%);stroke-opacity:1;stroke-miterlimit:10;" d="M 71.5 41 L 65.5 41 " transform="matrix(0.75,0,0,0.75,0,0)"/>
<path style="fill:none;stroke-width:1;stroke-linecap:butt;stroke-linejoin:miter;stroke:rgb(0%,0%,0%);stroke-opacity:1;stroke-miterlimit:10;" d="M 71.5 531 L 784.5 531 " transform="matrix(0.75,0,0,0.75,0,0)"/>
<path style="fill:none;stroke-width:1;stroke-linecap:butt;stroke-linejoin:miter;stroke:rgb(0%,0%,0%);stroke-opacity:1;stroke-miterlimit:10;" d="M 72 531.5 L 72 40.5 " transform="matrix(0.75,0,0,0.75,0,0)"/>
<path style="fill:none;stroke-width:1;stroke-linecap:butt;stroke-linejoin:miter;stroke:rgb(0%,0%,0%);stroke-opacity:1;stroke-miterlimit:10;" d="M 71.5 41 L 784.5 41 " transform="matrix(0.75,0,0,0.75,0,0)"/>
<path style="fill:none;stroke-width:1;stroke-linecap:butt;stroke-linejoin:miter;stroke:rgb(0%,0%,0%);stroke-opacity:1;stroke-miterlimit:10;" d="M 784 531.5 L 784 40.5 " transform="matrix(0.75,0,0,0.75,0,0)"/>
</g>
</svg>
