<?xml version="1.0" encoding="UTF-8"?>
<svg xmlns="http://www.w3.org/2000/svg" xmlns:xlink="http://www.w3.org/1999/xlink" width="600pt" height="450pt" viewBox="0 0 600 450" version="1.1">
<defs>
<g>
<symbol overflow="visible" id="LUZ8oOJy0-0">
<path style="stroke:none;" d="M 0.59375 2.125 L 0.59375 -8.46875 L 6.59375 -8.46875 L 6.59375 2.125 Z M 1.265625 1.453125 L 5.9375 1.453125 L 5.9375 -7.78125 L 1.265625 -7.78125 Z M 1.265625 1.453125 "/>
</symbol>
<symbol overflow="visible" id="LUZ8oOJy0-1">
<path style="stroke:none;" d="M 0.59375 -3.765625 L 3.75 -3.765625 L 3.75 -2.8125 L 0.59375 -2.8125 Z M 0.59375 -3.765625 "/>
</symbol>
<symbol overflow="visible" id="LUZ8oOJy1-0">
<path style="stroke:none;" d="M 0.59375 2.125 L 0.59375 -8.46875 L 6.59375 -8.46875 L 6.59375 2.125 Z M 1.265625 1.453125 L 5.9375 1.453125 L 5.9375 -7.78125 L 1.265625 -7.78125 Z M 1.265625 1.453125 "/>
</symbol>
<symbol overflow="visible" id="LUZ8oOJy1-1">
<path style="stroke:none;" d="M 2.296875 -1 L 6.4375 -1 L 6.4375 0 L 0.875 0 L 0.875 -1 C 1.320312 -1.457031 1.929688 -2.078125 2.703125 -2.859375 C 3.484375 -3.648438 3.972656 -4.160156 4.171875 -4.390625 C 4.554688 -4.804688 4.820312 -5.160156 4.96875 -5.453125 C 5.125 -5.753906 5.203125 -6.046875 5.203125 -6.328125 C 5.203125 -6.796875 5.035156 -7.175781 4.703125 -7.46875 C 4.378906 -7.757812 3.957031 -7.90625 3.4375 -7.90625 C 3.0625 -7.90625 2.664062 -7.84375 2.25 -7.71875 C 1.84375 -7.59375 1.40625 -7.394531 0.9375 -7.125 L 0.9375 -8.328125 C 1.414062 -8.515625 1.859375 -8.65625 2.265625 -8.75 C 2.679688 -8.851562 3.0625 -8.90625 3.40625 -8.90625 C 4.3125 -8.90625 5.035156 -8.675781 5.578125 -8.21875 C 6.117188 -7.769531 6.390625 -7.164062 6.390625 -6.40625 C 6.390625 -6.050781 6.320312 -5.710938 6.1875 -5.390625 C 6.050781 -5.066406 5.804688 -4.6875 5.453125 -4.25 C 5.347656 -4.132812 5.035156 -3.804688 4.515625 -3.265625 C 3.992188 -2.722656 3.253906 -1.96875 2.296875 -1 Z M 2.296875 -1 "/>
</symbol>
<symbol overflow="visible" id="LUZ8oOJy2-0">
<path style="stroke:none;" d="M 0.59375 2.125 L 0.59375 -8.46875 L 6.59375 -8.46875 L 6.59375 2.125 Z M 1.265625 1.453125 L 5.9375 1.453125 L 5.9375 -7.78125 L 1.265625 -7.78125 Z M 1.265625 1.453125 "/>
</symbol>
<symbol overflow="visible" id="LUZ8oOJy2-1">
<path style="stroke:none;" d="M 3.8125 -7.96875 C 3.207031 -7.96875 2.75 -7.664062 2.4375 -7.0625 C 2.132812 -6.46875 1.984375 -5.566406 1.984375 -4.359375 C 1.984375 -3.160156 2.132812 -2.257812 2.4375 -1.65625 C 2.75 -1.0625 3.207031 -0.765625 3.8125 -0.765625 C 4.425781 -0.765625 4.882812 -1.0625 5.1875 -1.65625 C 5.5 -2.257812 5.65625 -3.160156 5.65625 -4.359375 C 5.65625 -5.566406 5.5 -6.46875 5.1875 -7.0625 C 4.882812 -7.664062 4.425781 -7.96875 3.8125 -7.96875 Z M 3.8125 -8.90625 C 4.789062 -8.90625 5.539062 -8.515625 6.0625 -7.734375 C 6.582031 -6.960938 6.84375 -5.835938 6.84375 -4.359375 C 6.84375 -2.890625 6.582031 -1.765625 6.0625 -0.984375 C 5.539062 -0.210938 4.789062 0.171875 3.8125 0.171875 C 2.832031 0.171875 2.082031 -0.210938 1.5625 -0.984375 C 1.050781 -1.765625 0.796875 -2.890625 0.796875 -4.359375 C 0.796875 -5.835938 1.050781 -6.960938 1.5625 -7.734375 C 2.082031 -8.515625 2.832031 -8.90625 3.8125 -8.90625 Z M 3.8125 -8.90625 "/>
</symbol>
<symbol overflow="visible" id="LUZ8oOJy2-2">
<path style="stroke:none;" d="M 2.296875 -1 L 6.4375 -1 L 6.4375 0 L 0.875 0 L 0.875 -1 C 1.320312 -1.457031 1.929688 -2.078125 2.703125 -2.859375 C 3.484375 -3.648438 3.972656 -4.160156 4.171875 -4.390625 C 4.554688 -4.804688 4.820312 -5.160156 4.96875 -5.453125 C 5.125 -5.753906 5.203125 -6.046875 5.203125 -6.328125 C 5.203125 -6.796875 5.035156 -7.175781 4.703125 -7.46875 C 4.378906 -7.757812 3.957031 -7.90625 3.4375 -7.90625 C 3.0625 -7.90625 2.664062 -7.84375 2.25 -7.71875 C 1.84375 -7.59375 1.40625 -7.394531 0.9375 -7.125 L 0.9375 -8.328125 C 1.414062 -8.515625 1.859375 -8.65625 2.265625 -8.75 C 2.679688 -8.851562 3.0625 -8.90625 3.40625 -8.90625 C 4.3125 -8.90625 5.035156 -8.675781 5.578125 -8.21875 C 6.117188 -7.769531 6.390625 -7.164062 6.390625 -6.40625 C 6.390625 -6.050781 6.320312 -5.710938 6.1875 -5.390625 C 6.050781 -5.066406 5.804688 -4.6875 5.453125 -4.25 C 5.347656 -4.132812 5.035156 -3.804688 4.515625 -3.265625 C 3.992188 -2.722656 3.253906 -1.96875 2.296875 -1 Z M 2.296875 -1 "/>
</symbol>
<symbol overflow="visible" id="LUZ8oOJy3-0">
<path style="stroke:none;" d="M 0.59375 2.125 L 0.59375 -8.46875 L 6.59375 -8.46875 L 6.59375 2.125 Z M 1.265625 1.453125 L 5.9375 1.453125 L 5.9375 -7.78125 L 1.265625 -7.78125 Z M 1.265625 1.453125 "/>
</symbol>
<symbol overflow="visible" id="LUZ8oOJy3-1">
<path style="stroke:none;" d="M 0.59375 -3.765625 L 3.75 -3.765625 L 3.75 -2.8125 L 0.59375 -2.8125 Z M 0.59375 -3.765625 "/>
</symbol>
<symbol overflow="visible" id="LUZ8oOJy4-0">
<path style="stroke:none;" d="M 0.59375 2.125 L 0.59375 -8.46875 L 6.59375 -8.46875 L 6.59375 2.125 Z M 1.265625 1.453125 L 5.9375 1.453125 L 5.9375 -7.78125 L 1.265625 -7.78125 Z M 1.265625 1.453125 "/>
</symbol>
<symbol overflow="visible" id="LUZ8oOJy4-1">
<path style="stroke:none;" d="M 0.59375 -3.765625 L 3.75 -3.765625 L 3.75 -2.8125 L 0.59375 -2.8125 Z M 0.59375 -3.765625 "/>
</symbol>
<symbol overflow="visible" id="LUZ8oOJy5-0">
<path style="stroke:none;" d="M 0.59375 2.125 L 0.59375 -8.46875 L 6.59375 -8.46875 L 6.59375 2.125 Z M 1.265625 1.453125 L 5.9375 1.453125 L 5.9375 -7.78125 L 1.265625 -7.78125 Z M 1.265625 1.453125 "/>
</symbol>
<symbol overflow="visible" id="LUZ8oOJy5-1">
<path style="stroke:none;" d="M 1.484375 -1 L 3.421875 -1 L 3.421875 -7.671875 L 1.3125 -7.25 L 1.3125 -8.328125 L 3.40625 -8.75 L 4.59375 -8.75 L 4.59375 -1 L 6.53125 -1 L 6.53125 0 L 1.484375 0 Z M 1.484375 -1 "/>
</symbol>
<symbol overflow="visible" id="LUZ8oOJy6-0">
<path style="stroke:none;" d="M 0.59375 2.125 L 0.59375 -8.46875 L 6.59375 -8.46875 L 6.59375 2.125 Z M 1.265625 1.453125 L 5.9375 1.453125 L 5.9375 -7.78125 L 1.265625 -7.78125 Z M 1.265625 1.453125 "/>
</symbol>
<symbol overflow="visible" id="LUZ8oOJy6-1">
<path style="stroke:none;" d="M 3.8125 -7.96875 C 3.207031 -7.96875 2.75 -7.664062 2.4375 -7.0625 C 2.132812 -6.46875 1.984375 -5.566406 1.984375 -4.359375 C 1.984375 -3.160156 2.132812 -2.257812 2.4375 -1.65625 C 2.75 -1.0625 3.207031 -0.765625 3.8125 -0.765625 C 4.425781 -0.765625 4.882812 -1.0625 5.1875 -1.65625 C 5.5 -2.257812 5.65625 -3.160156 5.65625 -4.359375 C 5.65625 -5.566406 5.5 -6.46875 5.1875 -7.0625 C 4.882812 -7.664062 4.425781 -7.96875 3.8125 -7.96875 Z M 3.8125 -8.90625 C 4.789062 -8.90625 5.539062 -8.515625 6.0625 -7.734375 C 6.582031 -6.960938 6.84375 -5.835938 6.84375 -4.359375 C 6.84375 -2.890625 6.582031 -1.765625 6.0625 -0.984375 C 5.539062 -0.210938 4.789062 0.171875 3.8125 0.171875 C 2.832031 0.171875 2.082031 -0.210938 1.5625 -0.984375 C 1.050781 -1.765625 0.796875 -2.890625 0.796875 -4.359375 C 0.796875 -5.835938 1.050781 -6.960938 1.5625 -7.734375 C 2.082031 -8.515625 2.832031 -8.90625 3.8125 -8.90625 Z M 3.8125 -8.90625 "/>
</symbol>
<symbol overflow="visible" id="LUZ8oOJy7-0">
<path style="stroke:none;" d="M 0.59375 2.125 L 0.59375 -8.46875 L 6.59375 -8.46875 L 6.59375 2.125 Z M 1.265625 1.453125 L 5.9375 1.453125 L 5.9375 -7.78125 L 1.265625 -7.78125 Z M 1.265625 1.453125 "/>
</symbol>
<symbol overflow="visible" id="LUZ8oOJy7-1">
<path style="stroke:none;" d="M 1.484375 -1 L 3.421875 -1 L 3.421875 -7.671875 L 1.3125 -7.25 L 1.3125 -8.328125 L 3.40625 -8.75 L 4.59375 -8.75 L 4.59375 -1 L 6.53125 -1 L 6.53125 0 L 1.484375 0 Z M 1.484375 -1 "/>
</symbol>
<symbol overflow="visible" id="LUZ8oOJy7-2">
<path style="stroke:none;" d="M 2.296875 -1 L 6.4375 -1 L 6.4375 0 L 0.875 0 L 0.875 -1 C 1.320312 -1.457031 1.929688 -2.078125 2.703125 -2.859375 C 3.484375 -3.648438 3.972656 -4.160156 4.171875 -4.390625 C 4.554688 -4.804688 4.820312 -5.160156 4.96875 -5.453125 C 5.125 -5.753906 5.203125 -6.046875 5.203125 -6.328125 C 5.203125 -6.796875 5.035156 -7.175781 4.703125 -7.46875 C 4.378906 -7.757812 3.957031 -7.90625 3.4375 -7.90625 C 3.0625 -7.90625 2.664062 -7.84375 2.25 -7.71875 C 1.84375 -7.59375 1.40625 -7.394531 0.9375 -7.125 L 0.9375 -8.328125 C 1.414062 -8.515625 1.859375 -8.65625 2.265625 -8.75 C 2.679688 -8.851562 3.0625 -8.90625 3.40625 -8.90625 C 4.3125 -8.90625 5.035156 -8.675781 5.578125 -8.21875 C 6.117188 -7.769531 6.390625 -7.164062 6.390625 -6.40625 C 6.390625 -6.050781 6.320312 -5.710938 6.1875 -5.390625 C 6.050781 -5.066406 5.804688 -4.6875 5.453125 -4.25 C 5.347656 -4.132812 5.035156 -3.804688 4.515625 -3.265625 C 3.992188 -2.722656 3.253906 -1.96875 2.296875 -1 Z M 2.296875 -1 "/>
</symbol>
<symbol overflow="visible" id="LUZ8oOJy8-0">
<path style="stroke:none;" d=""/>
</symbol>
<symbol overflow="visible" id="LUZ8oOJy8-1">
<path style="stroke:none;" d="M 5.859375 -1.71875 C 5.859375 -1.84375 5.765625 -1.84375 5.671875 -1.84375 C 5.53125 -1.84375 5.515625 -1.828125 5.453125 -1.625 C 5.140625 -0.59375 4.53125 -0.125 4.03125 -0.125 C 3.796875 -0.125 3.46875 -0.28125 3.46875 -0.90625 C 3.46875 -1.1875 3.59375 -1.703125 3.703125 -2.109375 L 4.109375 -3.75 C 4.265625 -4.375 4.59375 -5.046875 5.15625 -5.046875 C 5.203125 -5.046875 5.5 -5.046875 5.6875 -4.875 C 5.203125 -4.75 5.203125 -4.296875 5.203125 -4.296875 C 5.203125 -4.140625 5.3125 -3.90625 5.625 -3.90625 C 5.84375 -3.90625 6.21875 -4.078125 6.21875 -4.546875 C 6.21875 -5.15625 5.515625 -5.296875 5.171875 -5.296875 C 4.515625 -5.296875 4.109375 -4.71875 4 -4.484375 C 3.734375 -5.203125 3.140625 -5.296875 2.84375 -5.296875 C 1.640625 -5.296875 1 -3.734375 1 -3.453125 C 1 -3.34375 1.109375 -3.34375 1.171875 -3.34375 C 1.328125 -3.34375 1.328125 -3.34375 1.390625 -3.546875 C 1.71875 -4.578125 2.34375 -5.046875 2.8125 -5.046875 C 3.171875 -5.046875 3.390625 -4.765625 3.390625 -4.28125 C 3.390625 -4 3.25 -3.40625 3.140625 -2.96875 L 2.875 -1.875 C 2.671875 -1.09375 2.421875 -0.125 1.703125 -0.125 C 1.671875 -0.125 1.375 -0.125 1.171875 -0.296875 C 1.53125 -0.390625 1.640625 -0.703125 1.640625 -0.875 C 1.640625 -1.1875 1.390625 -1.265625 1.234375 -1.265625 C 0.9375 -1.265625 0.640625 -1.015625 0.640625 -0.609375 C 0.640625 -0.140625 1.140625 0.125 1.6875 0.125 C 2.265625 0.125 2.65625 -0.328125 2.875 -0.6875 C 3.109375 0 3.703125 0.125 4.015625 0.125 C 5.25 0.125 5.859375 -1.46875 5.859375 -1.71875 Z M 5.859375 -1.71875 "/>
</symbol>
<symbol overflow="visible" id="LUZ8oOJy9-0">
<path style="stroke:none;" d=""/>
</symbol>
<symbol overflow="visible" id="LUZ8oOJy9-1">
<path style="stroke:none;" d="M 8.65625 -3 C 8.65625 -3.125 8.5625 -3.234375 8.421875 -3.234375 L 4.90625 -3.234375 L 4.90625 -6.75 C 4.90625 -6.890625 4.796875 -7 4.671875 -7 C 4.53125 -7 4.421875 -6.890625 4.421875 -6.75 L 4.421875 -3.234375 L 0.90625 -3.234375 C 0.78125 -3.234375 0.671875 -3.125 0.671875 -3 C 0.671875 -2.875 0.78125 -2.765625 0.90625 -2.765625 L 4.421875 -2.765625 L 4.421875 0.75 C 4.421875 0.890625 4.53125 1 4.671875 1 C 4.796875 1 4.90625 0.890625 4.90625 0.75 L 4.90625 -2.765625 L 8.421875 -2.765625 C 8.5625 -2.765625 8.65625 -2.875 8.65625 -3 Z M 8.65625 -3 "/>
</symbol>
<symbol overflow="visible" id="LUZ8oOJy10-0">
<path style="stroke:none;" d=""/>
</symbol>
<symbol overflow="visible" id="LUZ8oOJy10-1">
<path style="stroke:none;" d="M 4.984375 0.03125 L 6.15625 -4.6875 C 6.171875 -4.765625 6.1875 -4.828125 6.1875 -4.859375 C 6.1875 -4.984375 6.09375 -5.171875 5.859375 -5.171875 C 5.5 -5.171875 5.40625 -4.828125 5.390625 -4.734375 L 4.515625 -1.203125 C 4.421875 -0.859375 3.953125 -0.125 3.234375 -0.125 C 2.703125 -0.125 2.59375 -0.65625 2.59375 -1.0625 C 2.59375 -1.78125 2.984375 -2.875 3.28125 -3.6875 C 3.390625 -3.9375 3.4375 -4.109375 3.4375 -4.328125 C 3.4375 -4.9375 3.046875 -5.296875 2.53125 -5.296875 C 1.421875 -5.296875 1 -3.53125 1 -3.453125 C 1 -3.34375 1.109375 -3.34375 1.171875 -3.34375 C 1.328125 -3.34375 1.34375 -3.359375 1.390625 -3.53125 C 1.484375 -3.90625 1.8125 -5.046875 2.515625 -5.046875 C 2.640625 -5.046875 2.765625 -5 2.765625 -4.6875 C 2.765625 -4.40625 2.65625 -4.078125 2.484375 -3.609375 C 2.171875 -2.765625 1.859375 -1.890625 1.859375 -1.265625 C 1.859375 -0.21875 2.5625 0.125 3.203125 0.125 C 3.75 0.125 4.125 -0.15625 4.28125 -0.3125 C 3.828125 1.671875 2.9375 2.203125 2.34375 2.203125 C 1.765625 2.203125 1.59375 1.734375 1.59375 1.6875 C 1.59375 1.6875 1.609375 1.65625 1.6875 1.640625 C 2.0625 1.578125 2.203125 1.265625 2.203125 1.0625 C 2.203125 0.8125 2.015625 0.6875 1.796875 0.6875 C 1.65625 0.6875 1.1875 0.75 1.1875 1.421875 C 1.1875 2.046875 1.6875 2.453125 2.34375 2.453125 C 3.59375 2.453125 4.6875 1.21875 4.984375 0.03125 Z M 4.984375 0.03125 "/>
</symbol>
<symbol overflow="visible" id="LUZ8oOJy11-0">
<path style="stroke:none;" d="M 0.59375 0 L 5.40625 0 L 5.40625 -6.4375 L 0.59375 -6.4375 Z M 1.203125 -0.59375 L 1.203125 -5.84375 L 4.796875 -5.84375 L 4.796875 -0.59375 Z M 1.203125 -0.59375 "/>
</symbol>
<symbol overflow="visible" id="LUZ8oOJy11-1">
<path style="stroke:none;" d="M 4.3125 -1.53125 C 4.3125 -2.171875 3.953125 -2.53125 3.8125 -2.671875 C 3.421875 -3.0625 2.953125 -3.15625 2.453125 -3.25 C 1.78125 -3.390625 0.96875 -3.546875 0.96875 -4.234375 C 0.96875 -4.65625 1.28125 -5.140625 2.3125 -5.140625 C 3.640625 -5.140625 3.703125 -4.0625 3.71875 -3.703125 C 3.734375 -3.59375 3.859375 -3.59375 3.859375 -3.59375 C 4.015625 -3.59375 4.015625 -3.640625 4.015625 -3.875 L 4.015625 -5.09375 C 4.015625 -5.296875 4.015625 -5.375 3.890625 -5.375 C 3.828125 -5.375 3.796875 -5.375 3.640625 -5.234375 C 3.609375 -5.1875 3.484375 -5.078125 3.4375 -5.046875 C 2.984375 -5.375 2.5 -5.375 2.3125 -5.375 C 0.859375 -5.375 0.390625 -4.578125 0.390625 -3.90625 C 0.390625 -3.484375 0.59375 -3.140625 0.90625 -2.875 C 1.296875 -2.5625 1.625 -2.5 2.5 -2.328125 C 2.765625 -2.28125 3.75 -2.09375 3.75 -1.21875 C 3.75 -0.609375 3.328125 -0.125 2.390625 -0.125 C 1.375 -0.125 0.953125 -0.8125 0.71875 -1.84375 C 0.6875 -1.984375 0.671875 -2.046875 0.546875 -2.046875 C 0.390625 -2.046875 0.390625 -1.953125 0.390625 -1.734375 L 0.390625 -0.15625 C 0.390625 0.046875 0.390625 0.125 0.53125 0.125 C 0.59375 0.125 0.59375 0.125 0.828125 -0.109375 C 0.859375 -0.125 0.859375 -0.15625 1.0625 -0.390625 C 1.59375 0.125 2.140625 0.125 2.390625 0.125 C 3.765625 0.125 4.3125 -0.671875 4.3125 -1.53125 Z M 4.3125 -1.53125 "/>
</symbol>
<symbol overflow="visible" id="LUZ8oOJy11-2">
<path style="stroke:none;" d="M 2.96875 0 L 2.96875 -0.375 C 2.171875 -0.375 2.125 -0.4375 2.125 -0.90625 L 2.125 -5.296875 L 0.4375 -5.171875 L 0.4375 -4.796875 C 1.21875 -4.796875 1.328125 -4.734375 1.328125 -4.140625 L 1.328125 -0.90625 C 1.328125 -0.375 1.203125 -0.375 0.390625 -0.375 L 0.390625 0 L 1.71875 -0.03125 C 2.140625 -0.03125 2.5625 -0.015625 2.96875 0 Z M 2.296875 -7.25 C 2.296875 -7.578125 2.03125 -7.890625 1.671875 -7.890625 C 1.265625 -7.890625 1.015625 -7.546875 1.015625 -7.25 C 1.015625 -6.921875 1.296875 -6.609375 1.65625 -6.609375 C 2.0625 -6.609375 2.296875 -6.953125 2.296875 -7.25 Z M 2.296875 -7.25 "/>
</symbol>
<symbol overflow="visible" id="LUZ8oOJy11-3">
<path style="stroke:none;" d="M 3.96875 2.875 C 3.96875 2.84375 3.96875 2.8125 3.765625 2.609375 C 2.265625 1.109375 1.890625 -1.15625 1.890625 -3 C 1.890625 -5.09375 2.34375 -7.171875 3.8125 -8.671875 C 3.96875 -8.8125 3.96875 -8.84375 3.96875 -8.875 C 3.96875 -8.96875 3.921875 -9 3.859375 -9 C 3.734375 -9 2.65625 -8.1875 1.9375 -6.65625 C 1.328125 -5.34375 1.1875 -4.015625 1.1875 -3 C 1.1875 -2.0625 1.3125 -0.609375 1.984375 0.75 C 2.703125 2.21875 3.734375 3 3.859375 3 C 3.921875 3 3.96875 2.96875 3.96875 2.875 Z M 3.96875 2.875 "/>
</symbol>
<symbol overflow="visible" id="LUZ8oOJy12-0">
<path style="stroke:none;" d="M 0.59375 0 L 5.40625 0 L 5.40625 -6.4375 L 0.59375 -6.4375 Z M 1.203125 -0.59375 L 1.203125 -5.84375 L 4.796875 -5.84375 L 4.796875 -0.59375 Z M 1.203125 -0.59375 "/>
</symbol>
<symbol overflow="visible" id="LUZ8oOJy12-1">
<path style="stroke:none;" d="M 6.421875 0 L 6.421875 -0.375 C 5.796875 -0.375 5.5 -0.375 5.484375 -0.734375 L 5.484375 -3.03125 C 5.484375 -4.0625 5.484375 -4.421875 5.109375 -4.859375 C 4.9375 -5.0625 4.546875 -5.296875 3.859375 -5.296875 C 2.96875 -5.296875 2.40625 -4.78125 2.078125 -4.046875 L 2.078125 -5.296875 L 0.390625 -5.171875 L 0.390625 -4.796875 C 1.21875 -4.796875 1.3125 -4.71875 1.3125 -4.125 L 1.3125 -0.90625 C 1.3125 -0.375 1.1875 -0.375 0.390625 -0.375 L 0.390625 0 L 1.734375 -0.03125 L 3.078125 0 L 3.078125 -0.375 C 2.28125 -0.375 2.140625 -0.375 2.140625 -0.90625 L 2.140625 -3.125 C 2.140625 -4.375 3 -5.046875 3.765625 -5.046875 C 4.53125 -5.046875 4.65625 -4.390625 4.65625 -3.703125 L 4.65625 -0.90625 C 4.65625 -0.375 4.53125 -0.375 3.71875 -0.375 L 3.71875 0 L 5.078125 -0.03125 Z M 6.421875 0 "/>
</symbol>
<symbol overflow="visible" id="LUZ8oOJy12-2">
<path style="stroke:none;" d="M 3.46875 -3 C 3.46875 -3.9375 3.34375 -5.390625 2.671875 -6.75 C 1.953125 -8.21875 0.921875 -9 0.796875 -9 C 0.734375 -9 0.6875 -8.953125 0.6875 -8.875 C 0.6875 -8.84375 0.6875 -8.8125 0.90625 -8.609375 C 2.09375 -7.421875 2.765625 -5.515625 2.765625 -3 C 2.765625 -0.953125 2.328125 1.15625 0.84375 2.671875 C 0.6875 2.8125 0.6875 2.84375 0.6875 2.875 C 0.6875 2.953125 0.734375 3 0.796875 3 C 0.921875 3 2 2.1875 2.71875 0.65625 C 3.328125 -0.65625 3.46875 -1.984375 3.46875 -3 Z M 3.46875 -3 "/>
</symbol>
<symbol overflow="visible" id="LUZ8oOJy13-0">
<path style="stroke:none;" d=""/>
</symbol>
<symbol overflow="visible" id="LUZ8oOJy13-1">
<path style="stroke:none;" d="M 5.8125 -1.71875 C 5.8125 -1.84375 5.71875 -1.84375 5.625 -1.84375 C 5.484375 -1.84375 5.46875 -1.828125 5.40625 -1.5625 C 5.25 -0.953125 5.015625 -0.125 4.484375 -0.125 C 4.15625 -0.125 4.140625 -0.40625 4.140625 -0.640625 C 4.140625 -0.921875 4.21875 -1.265625 4.234375 -1.3125 C 4.296875 -1.578125 4.296875 -1.578125 4.296875 -1.734375 C 4.296875 -2.5625 3.453125 -2.875 2.703125 -2.984375 C 2.96875 -3.15625 3.234375 -3.40625 3.546875 -3.78125 C 4.171875 -4.484375 4.640625 -5.046875 5.25 -5.046875 C 5.46875 -5.046875 5.5625 -4.890625 5.5625 -4.890625 C 5.0625 -4.8125 5 -4.390625 5 -4.296875 C 5 -4.140625 5.109375 -3.90625 5.421875 -3.90625 C 5.6875 -3.90625 6.03125 -4.125 6.03125 -4.578125 C 6.03125 -4.890625 5.8125 -5.296875 5.265625 -5.296875 C 4.625 -5.296875 4.109375 -4.796875 3.703125 -4.3125 C 3.03125 -3.53125 2.828125 -3.34375 2.40625 -3.125 L 3.640625 -8.03125 C 3.640625 -8.0625 3.671875 -8.1875 3.671875 -8.1875 C 3.671875 -8.296875 3.59375 -8.328125 3.5 -8.328125 C 3.46875 -8.328125 3.34375 -8.3125 3.3125 -8.296875 L 2.125 -8.203125 C 1.984375 -8.203125 1.84375 -8.1875 1.84375 -7.953125 C 1.84375 -7.828125 1.96875 -7.828125 2.140625 -7.828125 C 2.71875 -7.828125 2.734375 -7.734375 2.734375 -7.625 C 2.734375 -7.578125 2.703125 -7.421875 2.703125 -7.421875 L 0.921875 -0.34375 C 0.90625 -0.3125 0.90625 -0.1875 0.90625 -0.1875 C 0.90625 -0.046875 1.015625 0.125 1.234375 0.125 C 1.59375 0.125 1.6875 -0.203125 1.703125 -0.3125 L 2.3125 -2.75 C 2.765625 -2.6875 3.53125 -2.4375 3.53125 -1.734375 C 3.53125 -1.65625 3.53125 -1.609375 3.484375 -1.4375 C 3.4375 -1.234375 3.4375 -1.15625 3.4375 -1.03125 C 3.4375 -0.171875 4.015625 0.125 4.453125 0.125 C 4.984375 0.125 5.25 -0.265625 5.375 -0.484375 C 5.640625 -0.953125 5.8125 -1.6875 5.8125 -1.71875 Z M 5.8125 -1.71875 "/>
</symbol>
<symbol overflow="visible" id="LUZ8oOJy14-0">
<path style="stroke:none;" d="M 0.359375 0 L 3.234375 0 L 3.234375 -3.875 L 0.359375 -3.875 Z M 0.71875 -0.359375 L 0.71875 -3.515625 L 2.875 -3.515625 L 2.875 -0.359375 Z M 0.71875 -0.359375 "/>
</symbol>
<symbol overflow="visible" id="LUZ8oOJy14-1">
<path style="stroke:none;" d="M 3.234375 -1.25 L 3.046875 -1.25 C 3.015625 -1.03125 2.96875 -0.71875 2.890625 -0.609375 C 2.84375 -0.546875 2.375 -0.546875 2.21875 -0.546875 L 0.921875 -0.546875 L 1.671875 -1.296875 C 2.796875 -2.296875 3.234375 -2.671875 3.234375 -3.40625 C 3.234375 -4.21875 2.578125 -4.796875 1.703125 -4.796875 C 0.890625 -4.796875 0.359375 -4.140625 0.359375 -3.5 C 0.359375 -3.09375 0.71875 -3.09375 0.734375 -3.09375 C 0.859375 -3.09375 1.109375 -3.171875 1.109375 -3.46875 C 1.109375 -3.65625 0.984375 -3.84375 0.734375 -3.84375 C 0.671875 -3.84375 0.65625 -3.84375 0.640625 -3.84375 C 0.8125 -4.3125 1.203125 -4.578125 1.609375 -4.578125 C 2.265625 -4.578125 2.578125 -3.984375 2.578125 -3.40625 C 2.578125 -2.828125 2.21875 -2.25 1.828125 -1.8125 L 0.4375 -0.265625 C 0.359375 -0.1875 0.359375 -0.171875 0.359375 0 L 3.03125 0 Z M 3.234375 -1.25 "/>
</symbol>
</g>
</defs>
<g id="surface1">
<rect x="0" y="0" width="600" height="450" style="fill:rgb(100%,100%,100%);fill-opacity:1;stroke:none;"/>
<path style=" stroke:none;fill-rule:nonzero;fill:rgb(100%,100%,100%);fill-opacity:1;" d="M 30 417.75 L 588 417.75 L 588 51.75 L 30 51.75 Z M 30 417.75 "/>
<path style="fill:none;stroke-width:1;stroke-linecap:butt;stroke-linejoin:miter;stroke:rgb(0%,0%,0%);stroke-opacity:0.12;stroke-miterlimit:10;" d="M 212.057292 557 L 212.057292 69 " transform="matrix(0.75,0,0,0.75,0,0)"/>
<path style="fill:none;stroke-width:1;stroke-linecap:butt;stroke-linejoin:miter;stroke:rgb(0%,0%,0%);stroke-opacity:0.12;stroke-miterlimit:10;" d="M 440.901042 557 L 440.901042 69 " transform="matrix(0.75,0,0,0.75,0,0)"/>
<path style="fill:none;stroke-width:1;stroke-linecap:butt;stroke-linejoin:miter;stroke:rgb(0%,0%,0%);stroke-opacity:0.12;stroke-miterlimit:10;" d="M 669.744792 557 L 669.744792 69 " transform="matrix(0.75,0,0,0.75,0,0)"/>
<path style="fill:none;stroke-width:1;stroke-linecap:butt;stroke-linejoin:miter;stroke:rgb(0%,0%,0%);stroke-opacity:0.12;stroke-miterlimit:10;" d="M 40 523.6875 L 784 523.6875 " transform="matrix(0.75,0,0,0.75,0,0)"/>
<path style="fill:none;stroke-width:1;stroke-linecap:butt;stroke-linejoin:miter;stroke:rgb(0%,0%,0%);stroke-opacity:0.12;stroke-miterlimit:10;" d="M 40 429.364583 L 784 429.364583 " transform="matrix(0.75,0,0,0.75,0,0)"/>
<path style="fill:none;stroke-width:1;stroke-linecap:butt;stroke-linejoin:miter;stroke:rgb(0%,0%,0%);stroke-opacity:0.12;stroke-miterlimit:10;" d="M 40 335.041667 L 784 335.041667 " transform="matrix(0.75,0,0,0.75,0,0)"/>
<path style="fill:none;stroke-width:1;stroke-linecap:butt;stroke-linejoin:miter;stroke:rgb(0%,0%,0%);stroke-opacity:0.12;stroke-miterlimit:10;" d="M 40 240.71875 L 784 240.71875 " transform="matrix(0.75,0,0,0.75,0,0)"/>
<path style="fill:none;stroke-width:1;stroke-linecap:butt;stroke-linejoin:miter;stroke:rgb(0%,0%,0%);stroke-opacity:0.12;stroke-miterlimit:10;" d="M 40 146.395833 L 784 146.395833 " transform="matrix(0.75,0,0,0.75,0,0)"/>
<g style="fill:rgb(0%,0%,0%);fill-opacity:1;">
  <use xlink:href="#LUZ8oOJy0-1" x="153.808594" y="435.640625"/>
</g>
<g style="fill:rgb(0%,0%,0%);fill-opacity:1;">
  <use xlink:href="#LUZ8oOJy1-1" x="158.140625" y="435.640625"/>
</g>
<g style="fill:rgb(0%,0%,0%);fill-opacity:1;">
  <use xlink:href="#LUZ8oOJy2-1" x="327.257812" y="435.640625"/>
</g>
<g style="fill:rgb(0%,0%,0%);fill-opacity:1;">
  <use xlink:href="#LUZ8oOJy2-2" x="499.089844" y="435.640625"/>
</g>
<g style="fill:rgb(0%,0%,0%);fill-opacity:1;">
  <use xlink:href="#LUZ8oOJy3-1" x="11.867188" y="396.921875"/>
</g>
<g style="fill:rgb(0%,0%,0%);fill-opacity:1;">
  <use xlink:href="#LUZ8oOJy1-1" x="16.195312" y="396.921875"/>
</g>
<g style="fill:rgb(0%,0%,0%);fill-opacity:1;">
  <use xlink:href="#LUZ8oOJy4-1" x="12.210938" y="326.179688"/>
</g>
<g style="fill:rgb(0%,0%,0%);fill-opacity:1;">
  <use xlink:href="#LUZ8oOJy5-1" x="16.542969" y="326.179688"/>
</g>
<g style="fill:rgb(0%,0%,0%);fill-opacity:1;">
  <use xlink:href="#LUZ8oOJy6-1" x="15.703125" y="255.433594"/>
</g>
<g style="fill:rgb(0%,0%,0%);fill-opacity:1;">
  <use xlink:href="#LUZ8oOJy7-1" x="16.542969" y="184.691406"/>
</g>
<g style="fill:rgb(0%,0%,0%);fill-opacity:1;">
  <use xlink:href="#LUZ8oOJy7-2" x="16.195312" y="113.949219"/>
</g>
<g style="fill:rgb(0%,0%,0%);fill-opacity:1;">
  <use xlink:href="#LUZ8oOJy8-1" x="297.664062" y="25.667969"/>
</g>
<g style="fill:rgb(0%,0%,0%);fill-opacity:1;">
  <use xlink:href="#LUZ8oOJy9-1" x="305.632812" y="25.667969"/>
</g>
<g style="fill:rgb(0%,0%,0%);fill-opacity:1;">
  <use xlink:href="#LUZ8oOJy10-1" x="317.367188" y="25.667969"/>
</g>
<g style="fill:rgb(0%,0%,0%);fill-opacity:1;">
  <use xlink:href="#LUZ8oOJy11-1" x="294.496094" y="45.269531"/>
</g>
<g style="fill:rgb(0%,0%,0%);fill-opacity:1;">
  <use xlink:href="#LUZ8oOJy11-2" x="299.222656" y="45.269531"/>
</g>
<g style="fill:rgb(0%,0%,0%);fill-opacity:1;">
  <use xlink:href="#LUZ8oOJy12-1" x="302.558594" y="45.269531"/>
</g>
<g style="fill:rgb(0%,0%,0%);fill-opacity:1;">
  <use xlink:href="#LUZ8oOJy11-3" x="309.230469" y="45.269531"/>
</g>
<g style="fill:rgb(0%,0%,0%);fill-opacity:1;">
  <use xlink:href="#LUZ8oOJy13-1" x="313.898438" y="45.269531"/>
</g>
<g style="fill:rgb(0%,0%,0%);fill-opacity:1;">
  <use xlink:href="#LUZ8oOJy14-1" x="319.417969" y="38.09375"/>
</g>
<g style="fill:rgb(0%,0%,0%);fill-opacity:1;">
  <use xlink:href="#LUZ8oOJy12-2" x="323.019531" y="45.269531"/>
</g>
<path style="fill:none;stroke-width:0.64;stroke-linecap:round;stroke-linejoin:miter;stroke:rgb(0%,0%,0%);stroke-opacity:1;stroke-miterlimit:10;" d="M 390.9375 40.947917 L 436.510417 40.947917 " transform="matrix(0.75,0,0,0.75,0,0)"/>
<path style=" stroke:none;fill-rule:nonzero;fill:rgb(0%,44.705883%,69.803923%);fill-opacity:1;" d="M 350.582031 287.878906 C 350.582031 292.378906 343.832031 292.378906 343.832031 287.878906 C 343.832031 283.378906 350.582031 283.378906 350.582031 287.878906 "/>
<path style=" stroke:none;fill-rule:nonzero;fill:rgb(0%,44.705883%,69.803923%);fill-opacity:1;" d="M 326.542969 331.855469 C 326.542969 336.355469 319.792969 336.355469 319.792969 331.855469 C 319.792969 327.355469 326.542969 327.355469 326.542969 331.855469 "/>
<path style=" stroke:none;fill-rule:nonzero;fill:rgb(0%,44.705883%,69.803923%);fill-opacity:1;" d="M 286.144531 319.40625 C 286.144531 323.90625 279.394531 323.90625 279.394531 319.40625 C 279.394531 314.90625 286.144531 314.90625 286.144531 319.40625 "/>
<path style=" stroke:none;fill-rule:nonzero;fill:rgb(0%,44.705883%,69.803923%);fill-opacity:1;" d="M 408.023438 119.71875 C 408.023438 124.21875 401.273438 124.21875 401.273438 119.71875 C 401.273438 115.21875 408.023438 115.21875 408.023438 119.71875 "/>
<path style=" stroke:none;fill-rule:nonzero;fill:rgb(0%,44.705883%,69.803923%);fill-opacity:1;" d="M 254.5625 247.007812 C 254.5625 251.507812 247.8125 251.507812 247.8125 247.007812 C 247.8125 242.507812 254.5625 242.507812 254.5625 247.007812 "/>
<path style=" stroke:none;fill-rule:nonzero;fill:rgb(0%,44.705883%,69.803923%);fill-opacity:1;" d="M 350.265625 275.992188 C 350.265625 280.492188 343.515625 280.492188 343.515625 275.992188 C 343.515625 271.492188 350.265625 271.492188 350.265625 275.992188 "/>
<path style=" stroke:none;fill-rule:nonzero;fill:rgb(0%,44.705883%,69.803923%);fill-opacity:1;" d="M 386.476562 100.210938 C 386.476562 104.710938 379.726562 104.710938 379.726562 100.210938 C 379.726562 95.710938 386.476562 95.710938 386.476562 100.210938 "/>
<path style=" stroke:none;fill-rule:nonzero;fill:rgb(0%,44.705883%,69.803923%);fill-opacity:1;" d="M 421.714844 186.042969 C 421.714844 190.542969 414.964844 190.542969 414.964844 186.042969 C 414.964844 181.542969 421.714844 181.542969 421.714844 186.042969 "/>
<path style=" stroke:none;fill-rule:nonzero;fill:rgb(0%,44.705883%,69.803923%);fill-opacity:1;" d="M 397.53125 222.816406 C 397.53125 227.316406 390.78125 227.316406 390.78125 222.816406 C 390.78125 218.316406 397.53125 218.316406 397.53125 222.816406 "/>
<path style=" stroke:none;fill-rule:nonzero;fill:rgb(0%,44.705883%,69.803923%);fill-opacity:1;" d="M 213.773438 207.835938 C 213.773438 212.335938 207.023438 212.335938 207.023438 207.835938 C 207.023438 203.335938 213.773438 203.335938 213.773438 207.835938 "/>
<path style=" stroke:none;fill-rule:nonzero;fill:rgb(0%,44.705883%,69.803923%);fill-opacity:1;" d="M 251.058594 238.621094 C 251.058594 243.121094 244.308594 243.121094 244.308594 238.621094 C 244.308594 234.121094 251.058594 234.121094 251.058594 238.621094 "/>
<path style=" stroke:none;fill-rule:nonzero;fill:rgb(0%,44.705883%,69.803923%);fill-opacity:1;" d="M 461.320312 266.238281 C 461.320312 270.738281 454.570312 270.738281 454.570312 266.238281 C 454.570312 261.738281 461.320312 261.738281 461.320312 266.238281 "/>
<path style=" stroke:none;fill-rule:nonzero;fill:rgb(0%,44.705883%,69.803923%);fill-opacity:1;" d="M 309.195312 145.371094 C 309.195312 149.871094 302.445312 149.871094 302.445312 145.371094 C 302.445312 140.871094 309.195312 140.871094 309.195312 145.371094 "/>
<path style=" stroke:none;fill-rule:nonzero;fill:rgb(0%,44.705883%,69.803923%);fill-opacity:1;" d="M 304.132812 175.078125 C 304.132812 179.578125 297.382812 179.578125 297.382812 175.078125 C 297.382812 170.578125 304.132812 170.578125 304.132812 175.078125 "/>
<path style=" stroke:none;fill-rule:nonzero;fill:rgb(0%,44.705883%,69.803923%);fill-opacity:1;" d="M 566.011719 268.148438 C 566.011719 272.648438 559.261719 272.648438 559.261719 268.148438 C 559.261719 263.648438 566.011719 263.648438 566.011719 268.148438 "/>
<path style=" stroke:none;fill-rule:nonzero;fill:rgb(0%,44.705883%,69.803923%);fill-opacity:1;" d="M 397.402344 252.511719 C 397.402344 257.011719 390.652344 257.011719 390.652344 252.511719 C 390.652344 248.011719 397.402344 248.011719 397.402344 252.511719 "/>
<path style=" stroke:none;fill-rule:nonzero;fill:rgb(0%,44.705883%,69.803923%);fill-opacity:1;" d="M 282.527344 197.371094 C 282.527344 201.871094 275.777344 201.871094 275.777344 197.371094 C 275.777344 192.871094 282.527344 192.871094 282.527344 197.371094 "/>
<path style=" stroke:none;fill-rule:nonzero;fill:rgb(0%,44.705883%,69.803923%);fill-opacity:1;" d="M 421.589844 68.386719 C 421.589844 72.886719 414.839844 72.886719 414.839844 68.386719 C 414.839844 63.886719 421.589844 63.886719 421.589844 68.386719 "/>
<path style=" stroke:none;fill-rule:nonzero;fill:rgb(0%,44.705883%,69.803923%);fill-opacity:1;" d="M 204.601562 304.335938 C 204.601562 308.835938 197.851562 308.835938 197.851562 304.335938 C 197.851562 299.835938 204.601562 299.835938 204.601562 304.335938 "/>
<path style=" stroke:none;fill-rule:nonzero;fill:rgb(0%,44.705883%,69.803923%);fill-opacity:1;" d="M 250.09375 285.660156 C 250.09375 290.160156 243.34375 290.160156 243.34375 285.660156 C 243.34375 281.160156 250.09375 281.160156 250.09375 285.660156 "/>
<path style=" stroke:none;fill-rule:nonzero;fill:rgb(0%,44.705883%,69.803923%);fill-opacity:1;" d="M 467.011719 401.113281 C 467.011719 405.613281 460.261719 405.613281 460.261719 401.113281 C 460.261719 396.613281 467.011719 396.613281 467.011719 401.113281 "/>
<path style=" stroke:none;fill-rule:nonzero;fill:rgb(0%,44.705883%,69.803923%);fill-opacity:1;" d="M 252.871094 273.1875 C 252.871094 277.6875 246.121094 277.6875 246.121094 273.1875 C 246.121094 268.6875 252.871094 268.6875 252.871094 273.1875 "/>
<path style=" stroke:none;fill-rule:nonzero;fill:rgb(0%,44.705883%,69.803923%);fill-opacity:1;" d="M 280.300781 206.378906 C 280.300781 210.878906 273.550781 210.878906 273.550781 206.378906 C 273.550781 201.878906 280.300781 201.878906 280.300781 206.378906 "/>
<path style=" stroke:none;fill-rule:nonzero;fill:rgb(0%,44.705883%,69.803923%);fill-opacity:1;" d="M 280.9375 146.828125 C 280.9375 151.328125 274.1875 151.328125 274.1875 146.828125 C 274.1875 142.328125 280.9375 142.328125 280.9375 146.828125 "/>
<path style=" stroke:none;fill-rule:nonzero;fill:rgb(0%,44.705883%,69.803923%);fill-opacity:1;" d="M 58.738281 158.421875 C 58.738281 162.921875 51.988281 162.921875 51.988281 158.421875 C 51.988281 153.921875 58.738281 153.921875 58.738281 158.421875 "/>
<path style=" stroke:none;fill-rule:nonzero;fill:rgb(0%,44.705883%,69.803923%);fill-opacity:1;" d="M 338.808594 265.214844 C 338.808594 269.714844 332.058594 269.714844 332.058594 265.214844 C 332.058594 260.714844 338.808594 260.714844 338.808594 265.214844 "/>
<path style=" stroke:none;fill-rule:nonzero;fill:rgb(0%,44.705883%,69.803923%);fill-opacity:1;" d="M 494.660156 113.285156 C 494.660156 117.785156 487.910156 117.785156 487.910156 113.285156 C 487.910156 108.785156 494.660156 108.785156 494.660156 113.285156 "/>
<path style=" stroke:none;fill-rule:nonzero;fill:rgb(0%,44.705883%,69.803923%);fill-opacity:1;" d="M 339.507812 124.902344 C 339.507812 129.402344 332.757812 129.402344 332.757812 124.902344 C 332.757812 120.402344 339.507812 120.402344 339.507812 124.902344 "/>
<path style=" stroke:none;fill-rule:nonzero;fill:rgb(0%,44.705883%,69.803923%);fill-opacity:1;" d="M 425.898438 239.042969 C 425.898438 243.542969 419.148438 243.542969 419.148438 239.042969 C 419.148438 234.542969 425.898438 234.542969 425.898438 239.042969 "/>
<path style=" stroke:none;fill-rule:nonzero;fill:rgb(0%,44.705883%,69.803923%);fill-opacity:1;" d="M 257.203125 280.082031 C 257.203125 284.582031 250.453125 284.582031 250.453125 280.082031 C 250.453125 275.582031 257.203125 275.582031 257.203125 280.082031 "/>
<path style=" stroke:none;fill-rule:nonzero;fill:rgb(0%,44.705883%,69.803923%);fill-opacity:1;" d="M 304.125 170.359375 C 304.125 174.859375 297.375 174.859375 297.375 170.359375 C 297.375 165.859375 304.125 165.859375 304.125 170.359375 "/>
<path style=" stroke:none;fill-rule:nonzero;fill:rgb(0%,44.705883%,69.803923%);fill-opacity:1;" d="M 366.914062 221.039062 C 366.914062 225.539062 360.164062 225.539062 360.164062 221.039062 C 360.164062 216.539062 366.914062 216.539062 366.914062 221.039062 "/>
<path style=" stroke:none;fill-rule:nonzero;fill:rgb(0%,44.705883%,69.803923%);fill-opacity:1;" d="M 377.886719 240.441406 C 377.886719 244.941406 371.136719 244.941406 371.136719 240.441406 C 371.136719 235.941406 377.886719 235.941406 377.886719 240.441406 "/>
<path style=" stroke:none;fill-rule:nonzero;fill:rgb(0%,44.705883%,69.803923%);fill-opacity:1;" d="M 233.425781 253.046875 C 233.425781 257.546875 226.675781 257.546875 226.675781 253.046875 C 226.675781 248.546875 233.425781 248.546875 233.425781 253.046875 "/>
<path style=" stroke:none;fill-rule:nonzero;fill:rgb(0%,44.705883%,69.803923%);fill-opacity:1;" d="M 191.824219 280.953125 C 191.824219 285.453125 185.074219 285.453125 185.074219 280.953125 C 185.074219 276.453125 191.824219 276.453125 191.824219 280.953125 "/>
<path style=" stroke:none;fill-rule:nonzero;fill:rgb(0%,44.705883%,69.803923%);fill-opacity:1;" d="M 336.628906 160.007812 C 336.628906 164.507812 329.878906 164.507812 329.878906 160.007812 C 329.878906 155.507812 336.628906 155.507812 336.628906 160.007812 "/>
<path style=" stroke:none;fill-rule:nonzero;fill:rgb(0%,44.705883%,69.803923%);fill-opacity:1;" d="M 328.242188 171.453125 C 328.242188 175.953125 321.492188 175.953125 321.492188 171.453125 C 321.492188 166.953125 328.242188 166.953125 328.242188 171.453125 "/>
<path style=" stroke:none;fill-rule:nonzero;fill:rgb(0%,44.705883%,69.803923%);fill-opacity:1;" d="M 474.472656 211.558594 C 474.472656 216.058594 467.722656 216.058594 467.722656 211.558594 C 467.722656 207.058594 474.472656 207.058594 474.472656 211.558594 "/>
<path style=" stroke:none;fill-rule:nonzero;fill:rgb(0%,44.705883%,69.803923%);fill-opacity:1;" d="M 339.234375 211.074219 C 339.234375 215.574219 332.484375 215.574219 332.484375 211.074219 C 332.484375 206.574219 339.234375 206.574219 339.234375 211.074219 "/>
<path style=" stroke:none;fill-rule:nonzero;fill:rgb(0%,44.705883%,69.803923%);fill-opacity:1;" d="M 236.75 219.335938 C 236.75 223.835938 230 223.835938 230 219.335938 C 230 214.835938 236.75 214.835938 236.75 219.335938 "/>
<path style=" stroke:none;fill-rule:nonzero;fill:rgb(0%,44.705883%,69.803923%);fill-opacity:1;" d="M 297.171875 292.59375 C 297.171875 297.09375 290.421875 297.09375 290.421875 292.59375 C 290.421875 288.09375 297.171875 288.09375 297.171875 292.59375 "/>
<path style=" stroke:none;fill-rule:nonzero;fill:rgb(0%,44.705883%,69.803923%);fill-opacity:1;" d="M 194.136719 274.144531 C 194.136719 278.644531 187.386719 278.644531 187.386719 274.144531 C 187.386719 269.644531 194.136719 269.644531 194.136719 274.144531 "/>
<path style=" stroke:none;fill-rule:nonzero;fill:rgb(0%,44.705883%,69.803923%);fill-opacity:1;" d="M 356.074219 293.964844 C 356.074219 298.464844 349.324219 298.464844 349.324219 293.964844 C 349.324219 289.464844 356.074219 289.464844 356.074219 293.964844 "/>
<path style=" stroke:none;fill-rule:nonzero;fill:rgb(0%,44.705883%,69.803923%);fill-opacity:1;" d="M 293.140625 208.070312 C 293.140625 212.570312 286.390625 212.570312 286.390625 208.070312 C 286.390625 203.570312 293.140625 203.570312 293.140625 208.070312 "/>
<path style=" stroke:none;fill-rule:nonzero;fill:rgb(0%,44.705883%,69.803923%);fill-opacity:1;" d="M 289.851562 274.738281 C 289.851562 279.238281 283.101562 279.238281 283.101562 274.738281 C 283.101562 270.238281 289.851562 270.238281 289.851562 274.738281 "/>
<path style=" stroke:none;fill-rule:nonzero;fill:rgb(0%,44.705883%,69.803923%);fill-opacity:1;" d="M 375.03125 174.730469 C 375.03125 179.230469 368.28125 179.230469 368.28125 174.730469 C 368.28125 170.230469 375.03125 170.230469 375.03125 174.730469 "/>
<path style=" stroke:none;fill-rule:nonzero;fill:rgb(0%,44.705883%,69.803923%);fill-opacity:1;" d="M 207.84375 329.4375 C 207.84375 333.9375 201.09375 333.9375 201.09375 329.4375 C 201.09375 324.9375 207.84375 324.9375 207.84375 329.4375 "/>
<path style=" stroke:none;fill-rule:nonzero;fill:rgb(0%,44.705883%,69.803923%);fill-opacity:1;" d="M 174.609375 78.457031 C 174.609375 82.957031 167.859375 82.957031 167.859375 78.457031 C 167.859375 73.957031 174.609375 73.957031 174.609375 78.457031 "/>
<path style=" stroke:none;fill-rule:nonzero;fill:rgb(0%,44.705883%,69.803923%);fill-opacity:1;" d="M 257.886719 286.875 C 257.886719 291.375 251.136719 291.375 251.136719 286.875 C 251.136719 282.375 257.886719 282.375 257.886719 286.875 "/>
<path style=" stroke:none;fill-rule:nonzero;fill:rgb(0%,44.705883%,69.803923%);fill-opacity:1;" d="M 283.953125 266.265625 C 283.953125 270.765625 277.203125 270.765625 277.203125 266.265625 C 277.203125 261.765625 283.953125 261.765625 283.953125 266.265625 "/>
<path style="fill:none;stroke-width:1;stroke-linecap:butt;stroke-linejoin:miter;stroke:rgb(0%,0%,0%);stroke-opacity:1;stroke-miterlimit:10;" d="M 212.057292 557.5 L 212.057292 563.5 " transform="matrix(0.75,0,0,0.75,0,0)"/>
<path style="fill:none;stroke-width:1;stroke-linecap:butt;stroke-linejoin:miter;stroke:rgb(0%,0%,0%);stroke-opacity:1;stroke-miterlimit:10;" d="M 440.901042 557.5 L 440.901042 563.5 " transform="matrix(0.75,0,0,0.75,0,0)"/>
<path style="fill:none;stroke-width:1;stroke-linecap:butt;stroke-linejoin:miter;stroke:rgb(0%,0%,0%);stroke-opacity:1;stroke-miterlimit:10;" d="M 669.744792 557.5 L 669.744792 563.5 " transform="matrix(0.75,0,0,0.75,0,0)"/>
<path style="fill:none;stroke-width:1;stroke-linecap:butt;stroke-linejoin:miter;stroke:rgb(0%,0%,0%);stroke-opacity:1;stroke-miterlimit:10;" d="M 39.5 523.6875 L 33.5 523.6875 " transform="matrix(0.75,0,0,0.75,0,0)"/>
<path style="fill:none;stroke-width:1;stroke-linecap:butt;stroke-linejoin:miter;stroke:rgb(0%,0%,0%);stroke-opacity:1;stroke-miterlimit:10;" d="M 39.5 429.364583 L 33.5 429.364583 " transform="matrix(0.75,0,0,0.75,0,0)"/>
<path style="fill:none;stroke-width:1;stroke-linecap:butt;stroke-linejoin:miter;stroke:rgb(0%,0%,0%);stroke-opacity:1;stroke-miterlimit:10;" d="M 39.5 335.041667 L 33.5 335.041667 " transform="matrix(0.75,0,0,0.75,0,0)"/>
<path style="fill:none;stroke-width:1;stroke-linecap:butt;stroke-linejoin:miter;stroke:rgb(0%,0%,0%);stroke-opacity:1;stroke-miterlimit:10;" d="M 39.5 240.71875 L 33.5 240.71875 " transform="matrix(0.75,0,0,0.75,0,0)"/>
<path style="fill:none;stroke-width:1;stroke-linecap:butt;stroke-linejoin:miter;stroke:rgb(0%,0%,0%);stroke-opacity:1;stroke-miterlimit:10;" d="M 39.5 146.395833 L 33.5 146.395833 " transform="matrix(0.75,0,0,0.75,0,0)"/>
<path style="fill:none;stroke-width:1;stroke-linecap:butt;stroke-linejoin:miter;stroke:rgb(0%,0%,0%);stroke-opacity:1;stroke-miterlimit:10;" d="M 39.5 557 L 784.5 557 " transform="matrix(0.75,0,0,0.75,0,0)"/>
<path style="fill:none;stroke-width:1;stroke-linecap:butt;stroke-linejoin:miter;stroke:rgb(0%,0%,0%);stroke-opacity:1;stroke-miterlimit:10;" d="M 40 557.5 L 40 68.5 " transform="matrix(0.75,0,0,0.75,0,0)"/>
<path style="fill:none;stroke-width:1;stroke-linecap:butt;stroke-linejoin:miter;stroke:rgb(0%,0%,0%);stroke-opacity:1;stroke-miterlimit:10;" d="M 39.5 69 L 784.5 69 " transform="matrix(0.75,0,0,0.75,0,0)"/>
<path style="fill:none;stroke-width:1;stroke-linecap:butt;stroke-linejoin:miter;stroke:rgb(0%,0%,0%);stroke-opacity:1;stroke-miterlimit:10;" d="M 784 557.5 L 784 68.5 " transform="matrix(0.75,0,0,0.75,0,0)"/>
</g>
</svg>
